<?xml version="1.0" encoding="UTF-8" standalone="no"?>
<!DOCTYPE svg PUBLIC "-//W3C//DTD SVG 1.1//EN"
 "http://www.w3.org/Graphics/SVG/1.1/DTD/svg11.dtd">
<!-- Generated by graphviz version 2.38.0 (20140413.2041)
 -->
<!-- Title: controllers_diagram Pages: 1 -->
<svg width="700pt" height="821pt"
 viewBox="0.00 0.00 699.93 821.00" xmlns="http://www.w3.org/2000/svg" xmlns:xlink="http://www.w3.org/1999/xlink">
<g id="graph0" class="graph" transform="scale(1 1) rotate(0) translate(255.714 457.5)">
<title>controllers_diagram</title>
<polygon fill="white" stroke="none" points="-255.714,363.5 -255.714,-457.5 444.212,-457.5 444.212,363.5 -255.714,363.5"/>
<!-- _diagram_info -->
<g id="node1" class="node"><title>_diagram_info</title>
<text text-anchor="start" x="241.788" y="300.9" font-family="Times,serif" font-size="13.00">Controllers diagram</text>
<text text-anchor="start" x="241.788" y="313.9" font-family="Times,serif" font-size="13.00">Date: Jun 07 2015 &#45; 13:15</text>
<text text-anchor="start" x="241.788" y="326.9" font-family="Times,serif" font-size="13.00">Migration version: 20150607111053</text>
<text text-anchor="start" x="241.788" y="339.9" font-family="Times,serif" font-size="13.00">Generated by RailRoady 1.3.0</text>
<text text-anchor="start" x="241.788" y="352.9" font-family="Times,serif" font-size="13.00">http://railroady.prestonlee.com</text>
</g>
<!-- ApplicationController -->
<g id="node2" class="node"><title>ApplicationController</title>
<path fill="none" stroke="black" d="M-23.8208,-361C-23.8208,-361 91.8208,-361 91.8208,-361 97.8208,-361 103.821,-367 103.821,-373 103.821,-373 103.821,-441 103.821,-441 103.821,-447 97.8208,-453 91.8208,-453 91.8208,-453 -23.8208,-453 -23.8208,-453 -29.8208,-453 -35.8208,-447 -35.8208,-441 -35.8208,-441 -35.8208,-373 -35.8208,-373 -35.8208,-367 -29.8208,-361 -23.8208,-361"/>
<text text-anchor="middle" x="34" y="-437.8" font-family="Times,serif" font-size="14.00">ApplicationController</text>
<polyline fill="none" stroke="black" points="-35.8208,-431 103.821,-431 "/>
<polyline fill="none" stroke="black" points="-35.8208,-407 103.821,-407 "/>
<polyline fill="none" stroke="black" points="-35.8208,-383 103.821,-383 "/>
<text text-anchor="start" x="-27.8208" y="-367.8" font-family="Times,serif" font-size="14.00">_layout</text>
</g>
<!-- CategoriesController -->
<g id="node3" class="node"><title>CategoriesController</title>
<path fill="none" stroke="black" d="M-59.707,107C-59.707,107 49.707,107 49.707,107 55.707,107 61.707,101 61.707,95 61.707,95 61.707,-83 61.707,-83 61.707,-89 55.707,-95 49.707,-95 49.707,-95 -59.707,-95 -59.707,-95 -65.707,-95 -71.707,-89 -71.707,-83 -71.707,-83 -71.707,95 -71.707,95 -71.707,101 -65.707,107 -59.707,107"/>
<text text-anchor="middle" x="-5" y="-79.8" font-family="Times,serif" font-size="14.00">CategoriesController</text>
<polyline fill="none" stroke="black" points="-71.707,-73 61.707,-73 "/>
<text text-anchor="start" x="-63.707" y="-57.8" font-family="Times,serif" font-size="14.00">create</text>
<text text-anchor="start" x="-63.707" y="-43.8" font-family="Times,serif" font-size="14.00">destroy</text>
<text text-anchor="start" x="-63.707" y="-29.8" font-family="Times,serif" font-size="14.00">edit</text>
<text text-anchor="start" x="-63.707" y="-15.8" font-family="Times,serif" font-size="14.00">index</text>
<text text-anchor="start" x="-63.707" y="-1.8" font-family="Times,serif" font-size="14.00">new</text>
<text text-anchor="start" x="-63.707" y="12.2" font-family="Times,serif" font-size="14.00">show</text>
<text text-anchor="start" x="-63.707" y="26.2" font-family="Times,serif" font-size="14.00">update</text>
<polyline fill="none" stroke="black" points="-71.707,33 61.707,33 "/>
<polyline fill="none" stroke="black" points="-71.707,57 61.707,57 "/>
<text text-anchor="start" x="-63.707" y="72.2" font-family="Times,serif" font-size="14.00">_layout</text>
<text text-anchor="start" x="-63.707" y="86.2" font-family="Times,serif" font-size="14.00">category_params</text>
<text text-anchor="start" x="-63.707" y="100.2" font-family="Times,serif" font-size="14.00">set_category</text>
</g>
<!-- ImagesController -->
<g id="node4" class="node"><title>ImagesController</title>
<path fill="none" stroke="black" d="M264.014,251C264.014,251 353.986,251 353.986,251 359.986,251 365.986,245 365.986,239 365.986,239 365.986,61 365.986,61 365.986,55 359.986,49 353.986,49 353.986,49 264.014,49 264.014,49 258.014,49 252.014,55 252.014,61 252.014,61 252.014,239 252.014,239 252.014,245 258.014,251 264.014,251"/>
<text text-anchor="middle" x="309" y="64.2" font-family="Times,serif" font-size="14.00">ImagesController</text>
<polyline fill="none" stroke="black" points="252.014,71 365.986,71 "/>
<text text-anchor="start" x="260.014" y="86.2" font-family="Times,serif" font-size="14.00">create</text>
<text text-anchor="start" x="260.014" y="100.2" font-family="Times,serif" font-size="14.00">destroy</text>
<text text-anchor="start" x="260.014" y="114.2" font-family="Times,serif" font-size="14.00">edit</text>
<text text-anchor="start" x="260.014" y="128.2" font-family="Times,serif" font-size="14.00">index</text>
<text text-anchor="start" x="260.014" y="142.2" font-family="Times,serif" font-size="14.00">new</text>
<text text-anchor="start" x="260.014" y="156.2" font-family="Times,serif" font-size="14.00">show</text>
<text text-anchor="start" x="260.014" y="170.2" font-family="Times,serif" font-size="14.00">update</text>
<polyline fill="none" stroke="black" points="252.014,177 365.986,177 "/>
<polyline fill="none" stroke="black" points="252.014,201 365.986,201 "/>
<text text-anchor="start" x="260.014" y="216.2" font-family="Times,serif" font-size="14.00">_layout</text>
<text text-anchor="start" x="260.014" y="230.2" font-family="Times,serif" font-size="14.00">image_params</text>
<text text-anchor="start" x="260.014" y="244.2" font-family="Times,serif" font-size="14.00">set_image</text>
</g>
<!-- OrdersController -->
<g id="node5" class="node"><title>OrdersController</title>
<path fill="none" stroke="black" d="M-41.8208,-127C-41.8208,-127 45.8208,-127 45.8208,-127 51.8208,-127 57.8208,-133 57.8208,-139 57.8208,-139 57.8208,-317 57.8208,-317 57.8208,-323 51.8208,-329 45.8208,-329 45.8208,-329 -41.8208,-329 -41.8208,-329 -47.8208,-329 -53.8208,-323 -53.8208,-317 -53.8208,-317 -53.8208,-139 -53.8208,-139 -53.8208,-133 -47.8208,-127 -41.8208,-127"/>
<text text-anchor="middle" x="2" y="-313.8" font-family="Times,serif" font-size="14.00">OrdersController</text>
<polyline fill="none" stroke="black" points="-53.8208,-307 57.8208,-307 "/>
<text text-anchor="start" x="-45.8208" y="-291.8" font-family="Times,serif" font-size="14.00">create</text>
<text text-anchor="start" x="-45.8208" y="-277.8" font-family="Times,serif" font-size="14.00">destroy</text>
<text text-anchor="start" x="-45.8208" y="-263.8" font-family="Times,serif" font-size="14.00">edit</text>
<text text-anchor="start" x="-45.8208" y="-249.8" font-family="Times,serif" font-size="14.00">index</text>
<text text-anchor="start" x="-45.8208" y="-235.8" font-family="Times,serif" font-size="14.00">new</text>
<text text-anchor="start" x="-45.8208" y="-221.8" font-family="Times,serif" font-size="14.00">show</text>
<text text-anchor="start" x="-45.8208" y="-207.8" font-family="Times,serif" font-size="14.00">update</text>
<polyline fill="none" stroke="black" points="-53.8208,-201 57.8208,-201 "/>
<polyline fill="none" stroke="black" points="-53.8208,-177 57.8208,-177 "/>
<text text-anchor="start" x="-45.8208" y="-161.8" font-family="Times,serif" font-size="14.00">_layout</text>
<text text-anchor="start" x="-45.8208" y="-147.8" font-family="Times,serif" font-size="14.00">order_params</text>
<text text-anchor="start" x="-45.8208" y="-133.8" font-family="Times,serif" font-size="14.00">set_order</text>
</g>
<!-- PaymentsController -->
<g id="node6" class="node"><title>PaymentsController</title>
<path fill="none" stroke="black" d="M156.007,-145C156.007,-145 259.993,-145 259.993,-145 265.993,-145 271.993,-151 271.993,-157 271.993,-157 271.993,-335 271.993,-335 271.993,-341 265.993,-347 259.993,-347 259.993,-347 156.007,-347 156.007,-347 150.007,-347 144.007,-341 144.007,-335 144.007,-335 144.007,-157 144.007,-157 144.007,-151 150.007,-145 156.007,-145"/>
<text text-anchor="middle" x="208" y="-331.8" font-family="Times,serif" font-size="14.00">PaymentsController</text>
<polyline fill="none" stroke="black" points="144.007,-325 271.993,-325 "/>
<text text-anchor="start" x="152.007" y="-309.8" font-family="Times,serif" font-size="14.00">create</text>
<text text-anchor="start" x="152.007" y="-295.8" font-family="Times,serif" font-size="14.00">destroy</text>
<text text-anchor="start" x="152.007" y="-281.8" font-family="Times,serif" font-size="14.00">edit</text>
<text text-anchor="start" x="152.007" y="-267.8" font-family="Times,serif" font-size="14.00">index</text>
<text text-anchor="start" x="152.007" y="-253.8" font-family="Times,serif" font-size="14.00">new</text>
<text text-anchor="start" x="152.007" y="-239.8" font-family="Times,serif" font-size="14.00">show</text>
<text text-anchor="start" x="152.007" y="-225.8" font-family="Times,serif" font-size="14.00">update</text>
<polyline fill="none" stroke="black" points="144.007,-219 271.993,-219 "/>
<polyline fill="none" stroke="black" points="144.007,-195 271.993,-195 "/>
<text text-anchor="start" x="152.007" y="-179.8" font-family="Times,serif" font-size="14.00">_layout</text>
<text text-anchor="start" x="152.007" y="-165.8" font-family="Times,serif" font-size="14.00">payment_params</text>
<text text-anchor="start" x="152.007" y="-151.8" font-family="Times,serif" font-size="14.00">set_payment</text>
</g>
<!-- PositionsController -->
<g id="node7" class="node"><title>PositionsController</title>
<path fill="none" stroke="black" d="M-204.448,-217C-204.448,-217 -103.552,-217 -103.552,-217 -97.5518,-217 -91.5518,-223 -91.5518,-229 -91.5518,-229 -91.5518,-407 -91.5518,-407 -91.5518,-413 -97.5518,-419 -103.552,-419 -103.552,-419 -204.448,-419 -204.448,-419 -210.448,-419 -216.448,-413 -216.448,-407 -216.448,-407 -216.448,-229 -216.448,-229 -216.448,-223 -210.448,-217 -204.448,-217"/>
<text text-anchor="middle" x="-154" y="-403.8" font-family="Times,serif" font-size="14.00">PositionsController</text>
<polyline fill="none" stroke="black" points="-216.448,-397 -91.5518,-397 "/>
<text text-anchor="start" x="-208.448" y="-381.8" font-family="Times,serif" font-size="14.00">create</text>
<text text-anchor="start" x="-208.448" y="-367.8" font-family="Times,serif" font-size="14.00">destroy</text>
<text text-anchor="start" x="-208.448" y="-353.8" font-family="Times,serif" font-size="14.00">edit</text>
<text text-anchor="start" x="-208.448" y="-339.8" font-family="Times,serif" font-size="14.00">index</text>
<text text-anchor="start" x="-208.448" y="-325.8" font-family="Times,serif" font-size="14.00">new</text>
<text text-anchor="start" x="-208.448" y="-311.8" font-family="Times,serif" font-size="14.00">show</text>
<text text-anchor="start" x="-208.448" y="-297.8" font-family="Times,serif" font-size="14.00">update</text>
<polyline fill="none" stroke="black" points="-216.448,-291 -91.5518,-291 "/>
<polyline fill="none" stroke="black" points="-216.448,-267 -91.5518,-267 "/>
<text text-anchor="start" x="-208.448" y="-251.8" font-family="Times,serif" font-size="14.00">_layout</text>
<text text-anchor="start" x="-208.448" y="-237.8" font-family="Times,serif" font-size="14.00">position_params</text>
<text text-anchor="start" x="-208.448" y="-223.8" font-family="Times,serif" font-size="14.00">set_position</text>
</g>
<!-- ProductsController -->
<g id="node8" class="node"><title>ProductsController</title>
<path fill="none" stroke="black" d="M-222.272,17C-222.272,17 -123.728,17 -123.728,17 -117.728,17 -111.728,11 -111.728,5 -111.728,5 -111.728,-173 -111.728,-173 -111.728,-179 -117.728,-185 -123.728,-185 -123.728,-185 -222.272,-185 -222.272,-185 -228.272,-185 -234.272,-179 -234.272,-173 -234.272,-173 -234.272,5 -234.272,5 -234.272,11 -228.272,17 -222.272,17"/>
<text text-anchor="middle" x="-173" y="-169.8" font-family="Times,serif" font-size="14.00">ProductsController</text>
<polyline fill="none" stroke="black" points="-234.272,-163 -111.728,-163 "/>
<text text-anchor="start" x="-226.272" y="-147.8" font-family="Times,serif" font-size="14.00">create</text>
<text text-anchor="start" x="-226.272" y="-133.8" font-family="Times,serif" font-size="14.00">destroy</text>
<text text-anchor="start" x="-226.272" y="-119.8" font-family="Times,serif" font-size="14.00">edit</text>
<text text-anchor="start" x="-226.272" y="-105.8" font-family="Times,serif" font-size="14.00">index</text>
<text text-anchor="start" x="-226.272" y="-91.8" font-family="Times,serif" font-size="14.00">new</text>
<text text-anchor="start" x="-226.272" y="-77.8" font-family="Times,serif" font-size="14.00">show</text>
<text text-anchor="start" x="-226.272" y="-63.8" font-family="Times,serif" font-size="14.00">update</text>
<polyline fill="none" stroke="black" points="-234.272,-57 -111.728,-57 "/>
<polyline fill="none" stroke="black" points="-234.272,-33 -111.728,-33 "/>
<text text-anchor="start" x="-226.272" y="-17.8" font-family="Times,serif" font-size="14.00">_layout</text>
<text text-anchor="start" x="-226.272" y="-3.8" font-family="Times,serif" font-size="14.00">product_params</text>
<text text-anchor="start" x="-226.272" y="10.2" font-family="Times,serif" font-size="14.00">set_product</text>
</g>
<!-- RatesController -->
<g id="node9" class="node"><title>RatesController</title>
<path fill="none" stroke="black" d="M-78.3242,341C-78.3242,341 2.32422,341 2.32422,341 8.32422,341 14.3242,335 14.3242,329 14.3242,329 14.3242,151 14.3242,151 14.3242,145 8.32422,139 2.32422,139 2.32422,139 -78.3242,139 -78.3242,139 -84.3242,139 -90.3242,145 -90.3242,151 -90.3242,151 -90.3242,329 -90.3242,329 -90.3242,335 -84.3242,341 -78.3242,341"/>
<text text-anchor="middle" x="-38" y="154.2" font-family="Times,serif" font-size="14.00">RatesController</text>
<polyline fill="none" stroke="black" points="-90.3242,161 14.3242,161 "/>
<text text-anchor="start" x="-82.3242" y="176.2" font-family="Times,serif" font-size="14.00">create</text>
<text text-anchor="start" x="-82.3242" y="190.2" font-family="Times,serif" font-size="14.00">destroy</text>
<text text-anchor="start" x="-82.3242" y="204.2" font-family="Times,serif" font-size="14.00">edit</text>
<text text-anchor="start" x="-82.3242" y="218.2" font-family="Times,serif" font-size="14.00">index</text>
<text text-anchor="start" x="-82.3242" y="232.2" font-family="Times,serif" font-size="14.00">new</text>
<text text-anchor="start" x="-82.3242" y="246.2" font-family="Times,serif" font-size="14.00">show</text>
<text text-anchor="start" x="-82.3242" y="260.2" font-family="Times,serif" font-size="14.00">update</text>
<polyline fill="none" stroke="black" points="-90.3242,267 14.3242,267 "/>
<polyline fill="none" stroke="black" points="-90.3242,291 14.3242,291 "/>
<text text-anchor="start" x="-82.3242" y="306.2" font-family="Times,serif" font-size="14.00">_layout</text>
<text text-anchor="start" x="-82.3242" y="320.2" font-family="Times,serif" font-size="14.00">rate_params</text>
<text text-anchor="start" x="-82.3242" y="334.2" font-family="Times,serif" font-size="14.00">set_rate</text>
</g>
<!-- ShipmentsController -->
<g id="node10" class="node"><title>ShipmentsController</title>
<path fill="none" stroke="black" d="M101.669,89C101.669,89 210.331,89 210.331,89 216.331,89 222.331,83 222.331,77 222.331,77 222.331,-101 222.331,-101 222.331,-107 216.331,-113 210.331,-113 210.331,-113 101.669,-113 101.669,-113 95.6689,-113 89.6689,-107 89.6689,-101 89.6689,-101 89.6689,77 89.6689,77 89.6689,83 95.6689,89 101.669,89"/>
<text text-anchor="middle" x="156" y="-97.8" font-family="Times,serif" font-size="14.00">ShipmentsController</text>
<polyline fill="none" stroke="black" points="89.6689,-91 222.331,-91 "/>
<text text-anchor="start" x="97.6689" y="-75.8" font-family="Times,serif" font-size="14.00">create</text>
<text text-anchor="start" x="97.6689" y="-61.8" font-family="Times,serif" font-size="14.00">destroy</text>
<text text-anchor="start" x="97.6689" y="-47.8" font-family="Times,serif" font-size="14.00">edit</text>
<text text-anchor="start" x="97.6689" y="-33.8" font-family="Times,serif" font-size="14.00">index</text>
<text text-anchor="start" x="97.6689" y="-19.8" font-family="Times,serif" font-size="14.00">new</text>
<text text-anchor="start" x="97.6689" y="-5.8" font-family="Times,serif" font-size="14.00">show</text>
<text text-anchor="start" x="97.6689" y="8.2" font-family="Times,serif" font-size="14.00">update</text>
<polyline fill="none" stroke="black" points="89.6689,15 222.331,15 "/>
<polyline fill="none" stroke="black" points="89.6689,39 222.331,39 "/>
<text text-anchor="start" x="97.6689" y="54.2" font-family="Times,serif" font-size="14.00">_layout</text>
<text text-anchor="start" x="97.6689" y="68.2" font-family="Times,serif" font-size="14.00">set_shipment</text>
<text text-anchor="start" x="97.6689" y="82.2" font-family="Times,serif" font-size="14.00">shipment_params</text>
</g>
<!-- StatusesController -->
<g id="node11" class="node"><title>StatusesController</title>
<path fill="none" stroke="black" d="M318.283,17C318.283,17 413.717,17 413.717,17 419.717,17 425.717,11 425.717,5 425.717,5 425.717,-173 425.717,-173 425.717,-179 419.717,-185 413.717,-185 413.717,-185 318.283,-185 318.283,-185 312.283,-185 306.283,-179 306.283,-173 306.283,-173 306.283,5 306.283,5 306.283,11 312.283,17 318.283,17"/>
<text text-anchor="middle" x="366" y="-169.8" font-family="Times,serif" font-size="14.00">StatusesController</text>
<polyline fill="none" stroke="black" points="306.283,-163 425.717,-163 "/>
<text text-anchor="start" x="314.283" y="-147.8" font-family="Times,serif" font-size="14.00">create</text>
<text text-anchor="start" x="314.283" y="-133.8" font-family="Times,serif" font-size="14.00">destroy</text>
<text text-anchor="start" x="314.283" y="-119.8" font-family="Times,serif" font-size="14.00">edit</text>
<text text-anchor="start" x="314.283" y="-105.8" font-family="Times,serif" font-size="14.00">index</text>
<text text-anchor="start" x="314.283" y="-91.8" font-family="Times,serif" font-size="14.00">new</text>
<text text-anchor="start" x="314.283" y="-77.8" font-family="Times,serif" font-size="14.00">show</text>
<text text-anchor="start" x="314.283" y="-63.8" font-family="Times,serif" font-size="14.00">update</text>
<polyline fill="none" stroke="black" points="306.283,-57 425.717,-57 "/>
<polyline fill="none" stroke="black" points="306.283,-33 425.717,-33 "/>
<text text-anchor="start" x="314.283" y="-17.8" font-family="Times,serif" font-size="14.00">_layout</text>
<text text-anchor="start" x="314.283" y="-3.8" font-family="Times,serif" font-size="14.00">set_status</text>
<text text-anchor="start" x="314.283" y="10.2" font-family="Times,serif" font-size="14.00">status_params</text>
</g>
<!-- ThoughtsController -->
<g id="node12" class="node"><title>ThoughtsController</title>
<path fill="none" stroke="black" d="M317.783,-217C317.783,-217 420.217,-217 420.217,-217 426.217,-217 432.217,-223 432.217,-229 432.217,-229 432.217,-407 432.217,-407 432.217,-413 426.217,-419 420.217,-419 420.217,-419 317.783,-419 317.783,-419 311.783,-419 305.783,-413 305.783,-407 305.783,-407 305.783,-229 305.783,-229 305.783,-223 311.783,-217 317.783,-217"/>
<text text-anchor="middle" x="369" y="-403.8" font-family="Times,serif" font-size="14.00">ThoughtsController</text>
<polyline fill="none" stroke="black" points="305.783,-397 432.217,-397 "/>
<text text-anchor="start" x="313.783" y="-381.8" font-family="Times,serif" font-size="14.00">create</text>
<text text-anchor="start" x="313.783" y="-367.8" font-family="Times,serif" font-size="14.00">destroy</text>
<text text-anchor="start" x="313.783" y="-353.8" font-family="Times,serif" font-size="14.00">edit</text>
<text text-anchor="start" x="313.783" y="-339.8" font-family="Times,serif" font-size="14.00">index</text>
<text text-anchor="start" x="313.783" y="-325.8" font-family="Times,serif" font-size="14.00">new</text>
<text text-anchor="start" x="313.783" y="-311.8" font-family="Times,serif" font-size="14.00">show</text>
<text text-anchor="start" x="313.783" y="-297.8" font-family="Times,serif" font-size="14.00">update</text>
<polyline fill="none" stroke="black" points="305.783,-291 432.217,-291 "/>
<polyline fill="none" stroke="black" points="305.783,-267 432.217,-267 "/>
<text text-anchor="start" x="313.783" y="-251.8" font-family="Times,serif" font-size="14.00">_layout</text>
<text text-anchor="start" x="313.783" y="-237.8" font-family="Times,serif" font-size="14.00">set_thought</text>
<text text-anchor="start" x="313.783" y="-223.8" font-family="Times,serif" font-size="14.00">thought_params</text>
</g>
<!-- UnitsController -->
<g id="node13" class="node"><title>UnitsController</title>
<path fill="none" stroke="black" d="M102.059,323C102.059,323 181.941,323 181.941,323 187.941,323 193.941,317 193.941,311 193.941,311 193.941,133 193.941,133 193.941,127 187.941,121 181.941,121 181.941,121 102.059,121 102.059,121 96.0586,121 90.0586,127 90.0586,133 90.0586,133 90.0586,311 90.0586,311 90.0586,317 96.0586,323 102.059,323"/>
<text text-anchor="middle" x="142" y="136.2" font-family="Times,serif" font-size="14.00">UnitsController</text>
<polyline fill="none" stroke="black" points="90.0586,143 193.941,143 "/>
<text text-anchor="start" x="98.0586" y="158.2" font-family="Times,serif" font-size="14.00">create</text>
<text text-anchor="start" x="98.0586" y="172.2" font-family="Times,serif" font-size="14.00">destroy</text>
<text text-anchor="start" x="98.0586" y="186.2" font-family="Times,serif" font-size="14.00">edit</text>
<text text-anchor="start" x="98.0586" y="200.2" font-family="Times,serif" font-size="14.00">index</text>
<text text-anchor="start" x="98.0586" y="214.2" font-family="Times,serif" font-size="14.00">new</text>
<text text-anchor="start" x="98.0586" y="228.2" font-family="Times,serif" font-size="14.00">show</text>
<text text-anchor="start" x="98.0586" y="242.2" font-family="Times,serif" font-size="14.00">update</text>
<polyline fill="none" stroke="black" points="90.0586,249 193.941,249 "/>
<polyline fill="none" stroke="black" points="90.0586,273 193.941,273 "/>
<text text-anchor="start" x="98.0586" y="288.2" font-family="Times,serif" font-size="14.00">_layout</text>
<text text-anchor="start" x="98.0586" y="302.2" font-family="Times,serif" font-size="14.00">set_unit</text>
<text text-anchor="start" x="98.0586" y="316.2" font-family="Times,serif" font-size="14.00">unit_params</text>
</g>
<!-- VendorsController -->
<g id="node14" class="node"><title>VendorsController</title>
<path fill="none" stroke="black" d="M-239.714,251C-239.714,251 -144.286,251 -144.286,251 -138.286,251 -132.286,245 -132.286,239 -132.286,239 -132.286,61 -132.286,61 -132.286,55 -138.286,49 -144.286,49 -144.286,49 -239.714,49 -239.714,49 -245.714,49 -251.714,55 -251.714,61 -251.714,61 -251.714,239 -251.714,239 -251.714,245 -245.714,251 -239.714,251"/>
<text text-anchor="middle" x="-192" y="64.2" font-family="Times,serif" font-size="14.00">VendorsController</text>
<polyline fill="none" stroke="black" points="-251.714,71 -132.286,71 "/>
<text text-anchor="start" x="-243.714" y="86.2" font-family="Times,serif" font-size="14.00">create</text>
<text text-anchor="start" x="-243.714" y="100.2" font-family="Times,serif" font-size="14.00">destroy</text>
<text text-anchor="start" x="-243.714" y="114.2" font-family="Times,serif" font-size="14.00">edit</text>
<text text-anchor="start" x="-243.714" y="128.2" font-family="Times,serif" font-size="14.00">index</text>
<text text-anchor="start" x="-243.714" y="142.2" font-family="Times,serif" font-size="14.00">new</text>
<text text-anchor="start" x="-243.714" y="156.2" font-family="Times,serif" font-size="14.00">show</text>
<text text-anchor="start" x="-243.714" y="170.2" font-family="Times,serif" font-size="14.00">update</text>
<polyline fill="none" stroke="black" points="-251.714,177 -132.286,177 "/>
<polyline fill="none" stroke="black" points="-251.714,201 -132.286,201 "/>
<text text-anchor="start" x="-243.714" y="216.2" font-family="Times,serif" font-size="14.00">_layout</text>
<text text-anchor="start" x="-243.714" y="230.2" font-family="Times,serif" font-size="14.00">set_vendor</text>
<text text-anchor="start" x="-243.714" y="244.2" font-family="Times,serif" font-size="14.00">vendor_params</text>
</g>
</g>
</svg>
