<?xml version="1.0" encoding="UTF-8" standalone="no"?>
<!DOCTYPE svg PUBLIC "-//W3C//DTD SVG 1.1//EN"
 "http://www.w3.org/Graphics/SVG/1.1/DTD/svg11.dtd">
<!-- Generated by graphviz version 2.38.0 (20140413.2041)
 -->
<!-- Title: controllers_diagram Pages: 1 -->
<svg width="919pt" height="933pt"
 viewBox="0.00 0.00 919.01 933.00" xmlns="http://www.w3.org/2000/svg" xmlns:xlink="http://www.w3.org/1999/xlink">
<g id="graph0" class="graph" transform="scale(1 1) rotate(0) translate(384.324 568.5)">
<title>controllers_diagram</title>
<polygon fill="white" stroke="none" points="-384.324,364.5 -384.324,-568.5 534.688,-568.5 534.688,364.5 -384.324,364.5"/>
<!-- _diagram_info -->
<g id="node1" class="node"><title>_diagram_info</title>
<text text-anchor="start" x="331.312" y="16.9" font-family="Times,serif" font-size="13.00">Controllers diagram</text>
<text text-anchor="start" x="331.312" y="29.9" font-family="Times,serif" font-size="13.00">Date: Jun 07 2015 &#45; 20:55</text>
<text text-anchor="start" x="331.312" y="42.9" font-family="Times,serif" font-size="13.00">Migration version: 20150607184923</text>
<text text-anchor="start" x="331.312" y="55.9" font-family="Times,serif" font-size="13.00">Generated by RailRoady 1.3.0</text>
<text text-anchor="start" x="331.312" y="68.9" font-family="Times,serif" font-size="13.00">http://railroady.prestonlee.com</text>
</g>
<!-- ApplicationController -->
<g id="node2" class="node"><title>ApplicationController</title>
<path fill="none" stroke="black" d="M392.179,-381C392.179,-381 507.821,-381 507.821,-381 513.821,-381 519.821,-387 519.821,-393 519.821,-393 519.821,-461 519.821,-461 519.821,-467 513.821,-473 507.821,-473 507.821,-473 392.179,-473 392.179,-473 386.179,-473 380.179,-467 380.179,-461 380.179,-461 380.179,-393 380.179,-393 380.179,-387 386.179,-381 392.179,-381"/>
<text text-anchor="middle" x="450" y="-457.8" font-family="Times,serif" font-size="14.00">ApplicationController</text>
<polyline fill="none" stroke="black" points="380.179,-451 519.821,-451 "/>
<polyline fill="none" stroke="black" points="380.179,-427 519.821,-427 "/>
<polyline fill="none" stroke="black" points="380.179,-403 519.821,-403 "/>
<text text-anchor="start" x="388.179" y="-387.8" font-family="Times,serif" font-size="14.00">_layout</text>
</g>
<!-- CategoriesController -->
<g id="node3" class="node"><title>CategoriesController</title>
<path fill="none" stroke="black" d="M-25.707,-134C-25.707,-134 83.707,-134 83.707,-134 89.707,-134 95.707,-140 95.707,-146 95.707,-146 95.707,-324 95.707,-324 95.707,-330 89.707,-336 83.707,-336 83.707,-336 -25.707,-336 -25.707,-336 -31.707,-336 -37.707,-330 -37.707,-324 -37.707,-324 -37.707,-146 -37.707,-146 -37.707,-140 -31.707,-134 -25.707,-134"/>
<text text-anchor="middle" x="29" y="-320.8" font-family="Times,serif" font-size="14.00">CategoriesController</text>
<polyline fill="none" stroke="black" points="-37.707,-314 95.707,-314 "/>
<text text-anchor="start" x="-29.707" y="-298.8" font-family="Times,serif" font-size="14.00">create</text>
<text text-anchor="start" x="-29.707" y="-284.8" font-family="Times,serif" font-size="14.00">destroy</text>
<text text-anchor="start" x="-29.707" y="-270.8" font-family="Times,serif" font-size="14.00">edit</text>
<text text-anchor="start" x="-29.707" y="-256.8" font-family="Times,serif" font-size="14.00">index</text>
<text text-anchor="start" x="-29.707" y="-242.8" font-family="Times,serif" font-size="14.00">new</text>
<text text-anchor="start" x="-29.707" y="-228.8" font-family="Times,serif" font-size="14.00">show</text>
<text text-anchor="start" x="-29.707" y="-214.8" font-family="Times,serif" font-size="14.00">update</text>
<polyline fill="none" stroke="black" points="-37.707,-208 95.707,-208 "/>
<polyline fill="none" stroke="black" points="-37.707,-184 95.707,-184 "/>
<text text-anchor="start" x="-29.707" y="-168.8" font-family="Times,serif" font-size="14.00">_layout</text>
<text text-anchor="start" x="-29.707" y="-154.8" font-family="Times,serif" font-size="14.00">category_params</text>
<text text-anchor="start" x="-29.707" y="-140.8" font-family="Times,serif" font-size="14.00">set_category</text>
</g>
<!-- ImagesController -->
<g id="node4" class="node"><title>ImagesController</title>
<path fill="none" stroke="black" d="M-348.986,-362C-348.986,-362 -259.014,-362 -259.014,-362 -253.014,-362 -247.014,-368 -247.014,-374 -247.014,-374 -247.014,-552 -247.014,-552 -247.014,-558 -253.014,-564 -259.014,-564 -259.014,-564 -348.986,-564 -348.986,-564 -354.986,-564 -360.986,-558 -360.986,-552 -360.986,-552 -360.986,-374 -360.986,-374 -360.986,-368 -354.986,-362 -348.986,-362"/>
<text text-anchor="middle" x="-304" y="-548.8" font-family="Times,serif" font-size="14.00">ImagesController</text>
<polyline fill="none" stroke="black" points="-360.986,-542 -247.014,-542 "/>
<text text-anchor="start" x="-352.986" y="-526.8" font-family="Times,serif" font-size="14.00">create</text>
<text text-anchor="start" x="-352.986" y="-512.8" font-family="Times,serif" font-size="14.00">destroy</text>
<text text-anchor="start" x="-352.986" y="-498.8" font-family="Times,serif" font-size="14.00">edit</text>
<text text-anchor="start" x="-352.986" y="-484.8" font-family="Times,serif" font-size="14.00">index</text>
<text text-anchor="start" x="-352.986" y="-470.8" font-family="Times,serif" font-size="14.00">new</text>
<text text-anchor="start" x="-352.986" y="-456.8" font-family="Times,serif" font-size="14.00">show</text>
<text text-anchor="start" x="-352.986" y="-442.8" font-family="Times,serif" font-size="14.00">update</text>
<polyline fill="none" stroke="black" points="-360.986,-436 -247.014,-436 "/>
<polyline fill="none" stroke="black" points="-360.986,-412 -247.014,-412 "/>
<text text-anchor="start" x="-352.986" y="-396.8" font-family="Times,serif" font-size="14.00">_layout</text>
<text text-anchor="start" x="-352.986" y="-382.8" font-family="Times,serif" font-size="14.00">image_params</text>
<text text-anchor="start" x="-352.986" y="-368.8" font-family="Times,serif" font-size="14.00">set_image</text>
</g>
<!-- OrdersController -->
<g id="node5" class="node"><title>OrdersController</title>
<path fill="none" stroke="black" d="M50.1792,360C50.1792,360 137.821,360 137.821,360 143.821,360 149.821,354 149.821,348 149.821,348 149.821,170 149.821,170 149.821,164 143.821,158 137.821,158 137.821,158 50.1792,158 50.1792,158 44.1792,158 38.1792,164 38.1792,170 38.1792,170 38.1792,348 38.1792,348 38.1792,354 44.1792,360 50.1792,360"/>
<text text-anchor="middle" x="94" y="173.2" font-family="Times,serif" font-size="14.00">OrdersController</text>
<polyline fill="none" stroke="black" points="38.1792,180 149.821,180 "/>
<text text-anchor="start" x="46.1792" y="195.2" font-family="Times,serif" font-size="14.00">create</text>
<text text-anchor="start" x="46.1792" y="209.2" font-family="Times,serif" font-size="14.00">destroy</text>
<text text-anchor="start" x="46.1792" y="223.2" font-family="Times,serif" font-size="14.00">edit</text>
<text text-anchor="start" x="46.1792" y="237.2" font-family="Times,serif" font-size="14.00">index</text>
<text text-anchor="start" x="46.1792" y="251.2" font-family="Times,serif" font-size="14.00">new</text>
<text text-anchor="start" x="46.1792" y="265.2" font-family="Times,serif" font-size="14.00">show</text>
<text text-anchor="start" x="46.1792" y="279.2" font-family="Times,serif" font-size="14.00">update</text>
<polyline fill="none" stroke="black" points="38.1792,286 149.821,286 "/>
<polyline fill="none" stroke="black" points="38.1792,310 149.821,310 "/>
<text text-anchor="start" x="46.1792" y="325.2" font-family="Times,serif" font-size="14.00">_layout</text>
<text text-anchor="start" x="46.1792" y="339.2" font-family="Times,serif" font-size="14.00">order_params</text>
<text text-anchor="start" x="46.1792" y="353.2" font-family="Times,serif" font-size="14.00">set_order</text>
</g>
<!-- PaymentMethodsController -->
<g id="node6" class="node"><title>PaymentMethodsController</title>
<path fill="none" stroke="black" d="M126.231,113C126.231,113 273.769,113 273.769,113 279.769,113 285.769,107 285.769,101 285.769,101 285.769,-77 285.769,-77 285.769,-83 279.769,-89 273.769,-89 273.769,-89 126.231,-89 126.231,-89 120.231,-89 114.231,-83 114.231,-77 114.231,-77 114.231,101 114.231,101 114.231,107 120.231,113 126.231,113"/>
<text text-anchor="middle" x="200" y="-73.8" font-family="Times,serif" font-size="14.00">PaymentMethodsController</text>
<polyline fill="none" stroke="black" points="114.231,-67 285.769,-67 "/>
<text text-anchor="start" x="122.231" y="-51.8" font-family="Times,serif" font-size="14.00">create</text>
<text text-anchor="start" x="122.231" y="-37.8" font-family="Times,serif" font-size="14.00">destroy</text>
<text text-anchor="start" x="122.231" y="-23.8" font-family="Times,serif" font-size="14.00">edit</text>
<text text-anchor="start" x="122.231" y="-9.8" font-family="Times,serif" font-size="14.00">index</text>
<text text-anchor="start" x="122.231" y="4.2" font-family="Times,serif" font-size="14.00">new</text>
<text text-anchor="start" x="122.231" y="18.2" font-family="Times,serif" font-size="14.00">show</text>
<text text-anchor="start" x="122.231" y="32.2" font-family="Times,serif" font-size="14.00">update</text>
<polyline fill="none" stroke="black" points="114.231,39 285.769,39 "/>
<polyline fill="none" stroke="black" points="114.231,63 285.769,63 "/>
<text text-anchor="start" x="122.231" y="78.2" font-family="Times,serif" font-size="14.00">_layout</text>
<text text-anchor="start" x="122.231" y="92.2" font-family="Times,serif" font-size="14.00">payment_method_params</text>
<text text-anchor="start" x="122.231" y="106.2" font-family="Times,serif" font-size="14.00">set_payment_method</text>
</g>
<!-- PaymentsController -->
<g id="node7" class="node"><title>PaymentsController</title>
<path fill="none" stroke="black" d="M-196.993,-210C-196.993,-210 -93.0068,-210 -93.0068,-210 -87.0068,-210 -81.0068,-216 -81.0068,-222 -81.0068,-222 -81.0068,-400 -81.0068,-400 -81.0068,-406 -87.0068,-412 -93.0068,-412 -93.0068,-412 -196.993,-412 -196.993,-412 -202.993,-412 -208.993,-406 -208.993,-400 -208.993,-400 -208.993,-222 -208.993,-222 -208.993,-216 -202.993,-210 -196.993,-210"/>
<text text-anchor="middle" x="-145" y="-396.8" font-family="Times,serif" font-size="14.00">PaymentsController</text>
<polyline fill="none" stroke="black" points="-208.993,-390 -81.0068,-390 "/>
<text text-anchor="start" x="-200.993" y="-374.8" font-family="Times,serif" font-size="14.00">create</text>
<text text-anchor="start" x="-200.993" y="-360.8" font-family="Times,serif" font-size="14.00">destroy</text>
<text text-anchor="start" x="-200.993" y="-346.8" font-family="Times,serif" font-size="14.00">edit</text>
<text text-anchor="start" x="-200.993" y="-332.8" font-family="Times,serif" font-size="14.00">index</text>
<text text-anchor="start" x="-200.993" y="-318.8" font-family="Times,serif" font-size="14.00">new</text>
<text text-anchor="start" x="-200.993" y="-304.8" font-family="Times,serif" font-size="14.00">show</text>
<text text-anchor="start" x="-200.993" y="-290.8" font-family="Times,serif" font-size="14.00">update</text>
<polyline fill="none" stroke="black" points="-208.993,-284 -81.0068,-284 "/>
<polyline fill="none" stroke="black" points="-208.993,-260 -81.0068,-260 "/>
<text text-anchor="start" x="-200.993" y="-244.8" font-family="Times,serif" font-size="14.00">_layout</text>
<text text-anchor="start" x="-200.993" y="-230.8" font-family="Times,serif" font-size="14.00">payment_params</text>
<text text-anchor="start" x="-200.993" y="-216.8" font-family="Times,serif" font-size="14.00">set_payment</text>
</g>
<!-- PositionsController -->
<g id="node8" class="node"><title>PositionsController</title>
<path fill="none" stroke="black" d="M-235.448,37C-235.448,37 -134.552,37 -134.552,37 -128.552,37 -122.552,31 -122.552,25 -122.552,25 -122.552,-153 -122.552,-153 -122.552,-159 -128.552,-165 -134.552,-165 -134.552,-165 -235.448,-165 -235.448,-165 -241.448,-165 -247.448,-159 -247.448,-153 -247.448,-153 -247.448,25 -247.448,25 -247.448,31 -241.448,37 -235.448,37"/>
<text text-anchor="middle" x="-185" y="-149.8" font-family="Times,serif" font-size="14.00">PositionsController</text>
<polyline fill="none" stroke="black" points="-247.448,-143 -122.552,-143 "/>
<text text-anchor="start" x="-239.448" y="-127.8" font-family="Times,serif" font-size="14.00">create</text>
<text text-anchor="start" x="-239.448" y="-113.8" font-family="Times,serif" font-size="14.00">destroy</text>
<text text-anchor="start" x="-239.448" y="-99.8" font-family="Times,serif" font-size="14.00">edit</text>
<text text-anchor="start" x="-239.448" y="-85.8" font-family="Times,serif" font-size="14.00">index</text>
<text text-anchor="start" x="-239.448" y="-71.8" font-family="Times,serif" font-size="14.00">new</text>
<text text-anchor="start" x="-239.448" y="-57.8" font-family="Times,serif" font-size="14.00">show</text>
<text text-anchor="start" x="-239.448" y="-43.8" font-family="Times,serif" font-size="14.00">update</text>
<polyline fill="none" stroke="black" points="-247.448,-37 -122.552,-37 "/>
<polyline fill="none" stroke="black" points="-247.448,-13 -122.552,-13 "/>
<text text-anchor="start" x="-239.448" y="2.2" font-family="Times,serif" font-size="14.00">_layout</text>
<text text-anchor="start" x="-239.448" y="16.2" font-family="Times,serif" font-size="14.00">position_params</text>
<text text-anchor="start" x="-239.448" y="30.2" font-family="Times,serif" font-size="14.00">set_position</text>
</g>
<!-- ProductsController -->
<g id="node9" class="node"><title>ProductsController</title>
<path fill="none" stroke="black" d="M-273.272,284C-273.272,284 -174.728,284 -174.728,284 -168.728,284 -162.728,278 -162.728,272 -162.728,272 -162.728,94 -162.728,94 -162.728,88 -168.728,82 -174.728,82 -174.728,82 -273.272,82 -273.272,82 -279.272,82 -285.272,88 -285.272,94 -285.272,94 -285.272,272 -285.272,272 -285.272,278 -279.272,284 -273.272,284"/>
<text text-anchor="middle" x="-224" y="97.2" font-family="Times,serif" font-size="14.00">ProductsController</text>
<polyline fill="none" stroke="black" points="-285.272,104 -162.728,104 "/>
<text text-anchor="start" x="-277.272" y="119.2" font-family="Times,serif" font-size="14.00">create</text>
<text text-anchor="start" x="-277.272" y="133.2" font-family="Times,serif" font-size="14.00">destroy</text>
<text text-anchor="start" x="-277.272" y="147.2" font-family="Times,serif" font-size="14.00">edit</text>
<text text-anchor="start" x="-277.272" y="161.2" font-family="Times,serif" font-size="14.00">index</text>
<text text-anchor="start" x="-277.272" y="175.2" font-family="Times,serif" font-size="14.00">new</text>
<text text-anchor="start" x="-277.272" y="189.2" font-family="Times,serif" font-size="14.00">show</text>
<text text-anchor="start" x="-277.272" y="203.2" font-family="Times,serif" font-size="14.00">update</text>
<polyline fill="none" stroke="black" points="-285.272,210 -162.728,210 "/>
<polyline fill="none" stroke="black" points="-285.272,234 -162.728,234 "/>
<text text-anchor="start" x="-277.272" y="249.2" font-family="Times,serif" font-size="14.00">_layout</text>
<text text-anchor="start" x="-277.272" y="263.2" font-family="Times,serif" font-size="14.00">product_params</text>
<text text-anchor="start" x="-277.272" y="277.2" font-family="Times,serif" font-size="14.00">set_product</text>
</g>
<!-- RatesController -->
<g id="node10" class="node"><title>RatesController</title>
<path fill="none" stroke="black" d="M-368.324,-1C-368.324,-1 -287.676,-1 -287.676,-1 -281.676,-1 -275.676,-7 -275.676,-13 -275.676,-13 -275.676,-191 -275.676,-191 -275.676,-197 -281.676,-203 -287.676,-203 -287.676,-203 -368.324,-203 -368.324,-203 -374.324,-203 -380.324,-197 -380.324,-191 -380.324,-191 -380.324,-13 -380.324,-13 -380.324,-7 -374.324,-1 -368.324,-1"/>
<text text-anchor="middle" x="-328" y="-187.8" font-family="Times,serif" font-size="14.00">RatesController</text>
<polyline fill="none" stroke="black" points="-380.324,-181 -275.676,-181 "/>
<text text-anchor="start" x="-372.324" y="-165.8" font-family="Times,serif" font-size="14.00">create</text>
<text text-anchor="start" x="-372.324" y="-151.8" font-family="Times,serif" font-size="14.00">destroy</text>
<text text-anchor="start" x="-372.324" y="-137.8" font-family="Times,serif" font-size="14.00">edit</text>
<text text-anchor="start" x="-372.324" y="-123.8" font-family="Times,serif" font-size="14.00">index</text>
<text text-anchor="start" x="-372.324" y="-109.8" font-family="Times,serif" font-size="14.00">new</text>
<text text-anchor="start" x="-372.324" y="-95.8" font-family="Times,serif" font-size="14.00">show</text>
<text text-anchor="start" x="-372.324" y="-81.8" font-family="Times,serif" font-size="14.00">update</text>
<polyline fill="none" stroke="black" points="-380.324,-75 -275.676,-75 "/>
<polyline fill="none" stroke="black" points="-380.324,-51 -275.676,-51 "/>
<text text-anchor="start" x="-372.324" y="-35.8" font-family="Times,serif" font-size="14.00">_layout</text>
<text text-anchor="start" x="-372.324" y="-21.8" font-family="Times,serif" font-size="14.00">rate_params</text>
<text text-anchor="start" x="-372.324" y="-7.8" font-family="Times,serif" font-size="14.00">set_rate</text>
</g>
<!-- ShipmentMethodsController -->
<g id="node11" class="node"><title>ShipmentMethodsController</title>
<path fill="none" stroke="black" d="M-83.1069,113C-83.1069,113 69.1069,113 69.1069,113 75.1069,113 81.1069,107 81.1069,101 81.1069,101 81.1069,-77 81.1069,-77 81.1069,-83 75.1069,-89 69.1069,-89 69.1069,-89 -83.1069,-89 -83.1069,-89 -89.1069,-89 -95.1069,-83 -95.1069,-77 -95.1069,-77 -95.1069,101 -95.1069,101 -95.1069,107 -89.1069,113 -83.1069,113"/>
<text text-anchor="middle" x="-7" y="-73.8" font-family="Times,serif" font-size="14.00">ShipmentMethodsController</text>
<polyline fill="none" stroke="black" points="-95.1069,-67 81.1069,-67 "/>
<text text-anchor="start" x="-87.1069" y="-51.8" font-family="Times,serif" font-size="14.00">create</text>
<text text-anchor="start" x="-87.1069" y="-37.8" font-family="Times,serif" font-size="14.00">destroy</text>
<text text-anchor="start" x="-87.1069" y="-23.8" font-family="Times,serif" font-size="14.00">edit</text>
<text text-anchor="start" x="-87.1069" y="-9.8" font-family="Times,serif" font-size="14.00">index</text>
<text text-anchor="start" x="-87.1069" y="4.2" font-family="Times,serif" font-size="14.00">new</text>
<text text-anchor="start" x="-87.1069" y="18.2" font-family="Times,serif" font-size="14.00">show</text>
<text text-anchor="start" x="-87.1069" y="32.2" font-family="Times,serif" font-size="14.00">update</text>
<polyline fill="none" stroke="black" points="-95.1069,39 81.1069,39 "/>
<polyline fill="none" stroke="black" points="-95.1069,63 81.1069,63 "/>
<text text-anchor="start" x="-87.1069" y="78.2" font-family="Times,serif" font-size="14.00">_layout</text>
<text text-anchor="start" x="-87.1069" y="92.2" font-family="Times,serif" font-size="14.00">set_shipment_method</text>
<text text-anchor="start" x="-87.1069" y="106.2" font-family="Times,serif" font-size="14.00">shipment_method_params</text>
</g>
<!-- ShipmentsController -->
<g id="node12" class="node"><title>ShipmentsController</title>
<path fill="none" stroke="black" d="M296.669,-134C296.669,-134 405.331,-134 405.331,-134 411.331,-134 417.331,-140 417.331,-146 417.331,-146 417.331,-324 417.331,-324 417.331,-330 411.331,-336 405.331,-336 405.331,-336 296.669,-336 296.669,-336 290.669,-336 284.669,-330 284.669,-324 284.669,-324 284.669,-146 284.669,-146 284.669,-140 290.669,-134 296.669,-134"/>
<text text-anchor="middle" x="351" y="-320.8" font-family="Times,serif" font-size="14.00">ShipmentsController</text>
<polyline fill="none" stroke="black" points="284.669,-314 417.331,-314 "/>
<text text-anchor="start" x="292.669" y="-298.8" font-family="Times,serif" font-size="14.00">create</text>
<text text-anchor="start" x="292.669" y="-284.8" font-family="Times,serif" font-size="14.00">destroy</text>
<text text-anchor="start" x="292.669" y="-270.8" font-family="Times,serif" font-size="14.00">edit</text>
<text text-anchor="start" x="292.669" y="-256.8" font-family="Times,serif" font-size="14.00">index</text>
<text text-anchor="start" x="292.669" y="-242.8" font-family="Times,serif" font-size="14.00">new</text>
<text text-anchor="start" x="292.669" y="-228.8" font-family="Times,serif" font-size="14.00">show</text>
<text text-anchor="start" x="292.669" y="-214.8" font-family="Times,serif" font-size="14.00">update</text>
<polyline fill="none" stroke="black" points="284.669,-208 417.331,-208 "/>
<polyline fill="none" stroke="black" points="284.669,-184 417.331,-184 "/>
<text text-anchor="start" x="292.669" y="-168.8" font-family="Times,serif" font-size="14.00">_layout</text>
<text text-anchor="start" x="292.669" y="-154.8" font-family="Times,serif" font-size="14.00">set_shipment</text>
<text text-anchor="start" x="292.669" y="-140.8" font-family="Times,serif" font-size="14.00">shipment_params</text>
</g>
<!-- StatusesController -->
<g id="node13" class="node"><title>StatusesController</title>
<path fill="none" stroke="black" d="M335.283,322C335.283,322 430.717,322 430.717,322 436.717,322 442.717,316 442.717,310 442.717,310 442.717,132 442.717,132 442.717,126 436.717,120 430.717,120 430.717,120 335.283,120 335.283,120 329.283,120 323.283,126 323.283,132 323.283,132 323.283,310 323.283,310 323.283,316 329.283,322 335.283,322"/>
<text text-anchor="middle" x="383" y="135.2" font-family="Times,serif" font-size="14.00">StatusesController</text>
<polyline fill="none" stroke="black" points="323.283,142 442.717,142 "/>
<text text-anchor="start" x="331.283" y="157.2" font-family="Times,serif" font-size="14.00">create</text>
<text text-anchor="start" x="331.283" y="171.2" font-family="Times,serif" font-size="14.00">destroy</text>
<text text-anchor="start" x="331.283" y="185.2" font-family="Times,serif" font-size="14.00">edit</text>
<text text-anchor="start" x="331.283" y="199.2" font-family="Times,serif" font-size="14.00">index</text>
<text text-anchor="start" x="331.283" y="213.2" font-family="Times,serif" font-size="14.00">new</text>
<text text-anchor="start" x="331.283" y="227.2" font-family="Times,serif" font-size="14.00">show</text>
<text text-anchor="start" x="331.283" y="241.2" font-family="Times,serif" font-size="14.00">update</text>
<polyline fill="none" stroke="black" points="323.283,248 442.717,248 "/>
<polyline fill="none" stroke="black" points="323.283,272 442.717,272 "/>
<text text-anchor="start" x="331.283" y="287.2" font-family="Times,serif" font-size="14.00">_layout</text>
<text text-anchor="start" x="331.283" y="301.2" font-family="Times,serif" font-size="14.00">set_status</text>
<text text-anchor="start" x="331.283" y="315.2" font-family="Times,serif" font-size="14.00">status_params</text>
</g>
<!-- ThoughtsController -->
<g id="node14" class="node"><title>ThoughtsController</title>
<path fill="none" stroke="black" d="M-121.217,360C-121.217,360 -18.7827,360 -18.7827,360 -12.7827,360 -6.78271,354 -6.78271,348 -6.78271,348 -6.78271,170 -6.78271,170 -6.78271,164 -12.7827,158 -18.7827,158 -18.7827,158 -121.217,158 -121.217,158 -127.217,158 -133.217,164 -133.217,170 -133.217,170 -133.217,348 -133.217,348 -133.217,354 -127.217,360 -121.217,360"/>
<text text-anchor="middle" x="-70" y="173.2" font-family="Times,serif" font-size="14.00">ThoughtsController</text>
<polyline fill="none" stroke="black" points="-133.217,180 -6.78271,180 "/>
<text text-anchor="start" x="-125.217" y="195.2" font-family="Times,serif" font-size="14.00">create</text>
<text text-anchor="start" x="-125.217" y="209.2" font-family="Times,serif" font-size="14.00">destroy</text>
<text text-anchor="start" x="-125.217" y="223.2" font-family="Times,serif" font-size="14.00">edit</text>
<text text-anchor="start" x="-125.217" y="237.2" font-family="Times,serif" font-size="14.00">index</text>
<text text-anchor="start" x="-125.217" y="251.2" font-family="Times,serif" font-size="14.00">new</text>
<text text-anchor="start" x="-125.217" y="265.2" font-family="Times,serif" font-size="14.00">show</text>
<text text-anchor="start" x="-125.217" y="279.2" font-family="Times,serif" font-size="14.00">update</text>
<polyline fill="none" stroke="black" points="-133.217,286 -6.78271,286 "/>
<polyline fill="none" stroke="black" points="-133.217,310 -6.78271,310 "/>
<text text-anchor="start" x="-125.217" y="325.2" font-family="Times,serif" font-size="14.00">_layout</text>
<text text-anchor="start" x="-125.217" y="339.2" font-family="Times,serif" font-size="14.00">set_thought</text>
<text text-anchor="start" x="-125.217" y="353.2" font-family="Times,serif" font-size="14.00">thought_params</text>
</g>
<!-- UnitsController -->
<g id="node15" class="node"><title>UnitsController</title>
<path fill="none" stroke="black" d="M202.059,360C202.059,360 281.941,360 281.941,360 287.941,360 293.941,354 293.941,348 293.941,348 293.941,170 293.941,170 293.941,164 287.941,158 281.941,158 281.941,158 202.059,158 202.059,158 196.059,158 190.059,164 190.059,170 190.059,170 190.059,348 190.059,348 190.059,354 196.059,360 202.059,360"/>
<text text-anchor="middle" x="242" y="173.2" font-family="Times,serif" font-size="14.00">UnitsController</text>
<polyline fill="none" stroke="black" points="190.059,180 293.941,180 "/>
<text text-anchor="start" x="198.059" y="195.2" font-family="Times,serif" font-size="14.00">create</text>
<text text-anchor="start" x="198.059" y="209.2" font-family="Times,serif" font-size="14.00">destroy</text>
<text text-anchor="start" x="198.059" y="223.2" font-family="Times,serif" font-size="14.00">edit</text>
<text text-anchor="start" x="198.059" y="237.2" font-family="Times,serif" font-size="14.00">index</text>
<text text-anchor="start" x="198.059" y="251.2" font-family="Times,serif" font-size="14.00">new</text>
<text text-anchor="start" x="198.059" y="265.2" font-family="Times,serif" font-size="14.00">show</text>
<text text-anchor="start" x="198.059" y="279.2" font-family="Times,serif" font-size="14.00">update</text>
<polyline fill="none" stroke="black" points="190.059,286 293.941,286 "/>
<polyline fill="none" stroke="black" points="190.059,310 293.941,310 "/>
<text text-anchor="start" x="198.059" y="325.2" font-family="Times,serif" font-size="14.00">_layout</text>
<text text-anchor="start" x="198.059" y="339.2" font-family="Times,serif" font-size="14.00">set_unit</text>
<text text-anchor="start" x="198.059" y="353.2" font-family="Times,serif" font-size="14.00">unit_params</text>
</g>
<!-- VendorsController -->
<g id="node16" class="node"><title>VendorsController</title>
<path fill="none" stroke="black" d="M145.286,-134C145.286,-134 240.714,-134 240.714,-134 246.714,-134 252.714,-140 252.714,-146 252.714,-146 252.714,-324 252.714,-324 252.714,-330 246.714,-336 240.714,-336 240.714,-336 145.286,-336 145.286,-336 139.286,-336 133.286,-330 133.286,-324 133.286,-324 133.286,-146 133.286,-146 133.286,-140 139.286,-134 145.286,-134"/>
<text text-anchor="middle" x="193" y="-320.8" font-family="Times,serif" font-size="14.00">VendorsController</text>
<polyline fill="none" stroke="black" points="133.286,-314 252.714,-314 "/>
<text text-anchor="start" x="141.286" y="-298.8" font-family="Times,serif" font-size="14.00">create</text>
<text text-anchor="start" x="141.286" y="-284.8" font-family="Times,serif" font-size="14.00">destroy</text>
<text text-anchor="start" x="141.286" y="-270.8" font-family="Times,serif" font-size="14.00">edit</text>
<text text-anchor="start" x="141.286" y="-256.8" font-family="Times,serif" font-size="14.00">index</text>
<text text-anchor="start" x="141.286" y="-242.8" font-family="Times,serif" font-size="14.00">new</text>
<text text-anchor="start" x="141.286" y="-228.8" font-family="Times,serif" font-size="14.00">show</text>
<text text-anchor="start" x="141.286" y="-214.8" font-family="Times,serif" font-size="14.00">update</text>
<polyline fill="none" stroke="black" points="133.286,-208 252.714,-208 "/>
<polyline fill="none" stroke="black" points="133.286,-184 252.714,-184 "/>
<text text-anchor="start" x="141.286" y="-168.8" font-family="Times,serif" font-size="14.00">_layout</text>
<text text-anchor="start" x="141.286" y="-154.8" font-family="Times,serif" font-size="14.00">set_vendor</text>
<text text-anchor="start" x="141.286" y="-140.8" font-family="Times,serif" font-size="14.00">vendor_params</text>
</g>
</g>
</svg>
