<?xml version="1.0" encoding="UTF-8" standalone="no"?>
<!DOCTYPE svg PUBLIC "-//W3C//DTD SVG 1.1//EN"
 "http://www.w3.org/Graphics/SVG/1.1/DTD/svg11.dtd">
<!-- Generated by graphviz version 2.38.0 (20140413.2041)
 -->
<!-- Title: controllers_diagram Pages: 1 -->
<svg width="702pt" height="787pt"
 viewBox="0.00 0.00 701.67 787.00" xmlns="http://www.w3.org/2000/svg" xmlns:xlink="http://www.w3.org/1999/xlink">
<g id="graph0" class="graph" transform="scale(1 1) rotate(0) translate(255.986 423.5)">
<title>controllers_diagram</title>
<polygon fill="white" stroke="none" points="-255.986,363.5 -255.986,-423.5 445.688,-423.5 445.688,363.5 -255.986,363.5"/>
<!-- _diagram_info -->
<g id="node1" class="node"><title>_diagram_info</title>
<text text-anchor="start" x="242.312" y="300.9" font-family="Times,serif" font-size="13.00">Controllers diagram</text>
<text text-anchor="start" x="242.312" y="313.9" font-family="Times,serif" font-size="13.00">Date: Jun 07 2015 &#45; 12:59</text>
<text text-anchor="start" x="242.312" y="326.9" font-family="Times,serif" font-size="13.00">Migration version: 20150607104300</text>
<text text-anchor="start" x="242.312" y="339.9" font-family="Times,serif" font-size="13.00">Generated by RailRoady 1.3.0</text>
<text text-anchor="start" x="242.312" y="352.9" font-family="Times,serif" font-size="13.00">http://railroady.prestonlee.com</text>
</g>
<!-- ApplicationController -->
<g id="node2" class="node"><title>ApplicationController</title>
<path fill="none" stroke="black" d="M-95.8208,233C-95.8208,233 19.8208,233 19.8208,233 25.8208,233 31.8208,227 31.8208,221 31.8208,221 31.8208,153 31.8208,153 31.8208,147 25.8208,141 19.8208,141 19.8208,141 -95.8208,141 -95.8208,141 -101.821,141 -107.821,147 -107.821,153 -107.821,153 -107.821,221 -107.821,221 -107.821,227 -101.821,233 -95.8208,233"/>
<text text-anchor="middle" x="-38" y="156.2" font-family="Times,serif" font-size="14.00">ApplicationController</text>
<polyline fill="none" stroke="black" points="-107.821,163 31.8208,163 "/>
<polyline fill="none" stroke="black" points="-107.821,187 31.8208,187 "/>
<polyline fill="none" stroke="black" points="-107.821,211 31.8208,211 "/>
<text text-anchor="start" x="-99.8208" y="226.2" font-family="Times,serif" font-size="14.00">_layout</text>
</g>
<!-- CategoriesController -->
<g id="node3" class="node"><title>CategoriesController</title>
<path fill="none" stroke="black" d="M102.293,89C102.293,89 211.707,89 211.707,89 217.707,89 223.707,83 223.707,77 223.707,77 223.707,-101 223.707,-101 223.707,-107 217.707,-113 211.707,-113 211.707,-113 102.293,-113 102.293,-113 96.293,-113 90.293,-107 90.293,-101 90.293,-101 90.293,77 90.293,77 90.293,83 96.293,89 102.293,89"/>
<text text-anchor="middle" x="157" y="-97.8" font-family="Times,serif" font-size="14.00">CategoriesController</text>
<polyline fill="none" stroke="black" points="90.293,-91 223.707,-91 "/>
<text text-anchor="start" x="98.293" y="-75.8" font-family="Times,serif" font-size="14.00">create</text>
<text text-anchor="start" x="98.293" y="-61.8" font-family="Times,serif" font-size="14.00">destroy</text>
<text text-anchor="start" x="98.293" y="-47.8" font-family="Times,serif" font-size="14.00">edit</text>
<text text-anchor="start" x="98.293" y="-33.8" font-family="Times,serif" font-size="14.00">index</text>
<text text-anchor="start" x="98.293" y="-19.8" font-family="Times,serif" font-size="14.00">new</text>
<text text-anchor="start" x="98.293" y="-5.8" font-family="Times,serif" font-size="14.00">show</text>
<text text-anchor="start" x="98.293" y="8.2" font-family="Times,serif" font-size="14.00">update</text>
<polyline fill="none" stroke="black" points="90.293,15 223.707,15 "/>
<polyline fill="none" stroke="black" points="90.293,39 223.707,39 "/>
<text text-anchor="start" x="98.293" y="54.2" font-family="Times,serif" font-size="14.00">_layout</text>
<text text-anchor="start" x="98.293" y="68.2" font-family="Times,serif" font-size="14.00">category_params</text>
<text text-anchor="start" x="98.293" y="82.2" font-family="Times,serif" font-size="14.00">set_category</text>
</g>
<!-- ImagesController -->
<g id="node4" class="node"><title>ImagesController</title>
<path fill="none" stroke="black" d="M-239.986,251C-239.986,251 -150.014,251 -150.014,251 -144.014,251 -138.014,245 -138.014,239 -138.014,239 -138.014,61 -138.014,61 -138.014,55 -144.014,49 -150.014,49 -150.014,49 -239.986,49 -239.986,49 -245.986,49 -251.986,55 -251.986,61 -251.986,61 -251.986,239 -251.986,239 -251.986,245 -245.986,251 -239.986,251"/>
<text text-anchor="middle" x="-195" y="64.2" font-family="Times,serif" font-size="14.00">ImagesController</text>
<polyline fill="none" stroke="black" points="-251.986,71 -138.014,71 "/>
<text text-anchor="start" x="-243.986" y="86.2" font-family="Times,serif" font-size="14.00">create</text>
<text text-anchor="start" x="-243.986" y="100.2" font-family="Times,serif" font-size="14.00">destroy</text>
<text text-anchor="start" x="-243.986" y="114.2" font-family="Times,serif" font-size="14.00">edit</text>
<text text-anchor="start" x="-243.986" y="128.2" font-family="Times,serif" font-size="14.00">index</text>
<text text-anchor="start" x="-243.986" y="142.2" font-family="Times,serif" font-size="14.00">new</text>
<text text-anchor="start" x="-243.986" y="156.2" font-family="Times,serif" font-size="14.00">show</text>
<text text-anchor="start" x="-243.986" y="170.2" font-family="Times,serif" font-size="14.00">update</text>
<polyline fill="none" stroke="black" points="-251.986,177 -138.014,177 "/>
<polyline fill="none" stroke="black" points="-251.986,201 -138.014,201 "/>
<text text-anchor="start" x="-243.986" y="216.2" font-family="Times,serif" font-size="14.00">_layout</text>
<text text-anchor="start" x="-243.986" y="230.2" font-family="Times,serif" font-size="14.00">image_params</text>
<text text-anchor="start" x="-243.986" y="244.2" font-family="Times,serif" font-size="14.00">set_image</text>
</g>
<!-- OrdersController -->
<g id="node5" class="node"><title>OrdersController</title>
<path fill="none" stroke="black" d="M-41.8208,-127C-41.8208,-127 45.8208,-127 45.8208,-127 51.8208,-127 57.8208,-133 57.8208,-139 57.8208,-139 57.8208,-317 57.8208,-317 57.8208,-323 51.8208,-329 45.8208,-329 45.8208,-329 -41.8208,-329 -41.8208,-329 -47.8208,-329 -53.8208,-323 -53.8208,-317 -53.8208,-317 -53.8208,-139 -53.8208,-139 -53.8208,-133 -47.8208,-127 -41.8208,-127"/>
<text text-anchor="middle" x="2" y="-313.8" font-family="Times,serif" font-size="14.00">OrdersController</text>
<polyline fill="none" stroke="black" points="-53.8208,-307 57.8208,-307 "/>
<text text-anchor="start" x="-45.8208" y="-291.8" font-family="Times,serif" font-size="14.00">create</text>
<text text-anchor="start" x="-45.8208" y="-277.8" font-family="Times,serif" font-size="14.00">destroy</text>
<text text-anchor="start" x="-45.8208" y="-263.8" font-family="Times,serif" font-size="14.00">edit</text>
<text text-anchor="start" x="-45.8208" y="-249.8" font-family="Times,serif" font-size="14.00">index</text>
<text text-anchor="start" x="-45.8208" y="-235.8" font-family="Times,serif" font-size="14.00">new</text>
<text text-anchor="start" x="-45.8208" y="-221.8" font-family="Times,serif" font-size="14.00">show</text>
<text text-anchor="start" x="-45.8208" y="-207.8" font-family="Times,serif" font-size="14.00">update</text>
<polyline fill="none" stroke="black" points="-53.8208,-201 57.8208,-201 "/>
<polyline fill="none" stroke="black" points="-53.8208,-177 57.8208,-177 "/>
<text text-anchor="start" x="-45.8208" y="-161.8" font-family="Times,serif" font-size="14.00">_layout</text>
<text text-anchor="start" x="-45.8208" y="-147.8" font-family="Times,serif" font-size="14.00">order_params</text>
<text text-anchor="start" x="-45.8208" y="-133.8" font-family="Times,serif" font-size="14.00">set_order</text>
</g>
<!-- PaymentsController -->
<g id="node6" class="node"><title>PaymentsController</title>
<path fill="none" stroke="black" d="M156.007,-145C156.007,-145 259.993,-145 259.993,-145 265.993,-145 271.993,-151 271.993,-157 271.993,-157 271.993,-335 271.993,-335 271.993,-341 265.993,-347 259.993,-347 259.993,-347 156.007,-347 156.007,-347 150.007,-347 144.007,-341 144.007,-335 144.007,-335 144.007,-157 144.007,-157 144.007,-151 150.007,-145 156.007,-145"/>
<text text-anchor="middle" x="208" y="-331.8" font-family="Times,serif" font-size="14.00">PaymentsController</text>
<polyline fill="none" stroke="black" points="144.007,-325 271.993,-325 "/>
<text text-anchor="start" x="152.007" y="-309.8" font-family="Times,serif" font-size="14.00">create</text>
<text text-anchor="start" x="152.007" y="-295.8" font-family="Times,serif" font-size="14.00">destroy</text>
<text text-anchor="start" x="152.007" y="-281.8" font-family="Times,serif" font-size="14.00">edit</text>
<text text-anchor="start" x="152.007" y="-267.8" font-family="Times,serif" font-size="14.00">index</text>
<text text-anchor="start" x="152.007" y="-253.8" font-family="Times,serif" font-size="14.00">new</text>
<text text-anchor="start" x="152.007" y="-239.8" font-family="Times,serif" font-size="14.00">show</text>
<text text-anchor="start" x="152.007" y="-225.8" font-family="Times,serif" font-size="14.00">update</text>
<polyline fill="none" stroke="black" points="144.007,-219 271.993,-219 "/>
<polyline fill="none" stroke="black" points="144.007,-195 271.993,-195 "/>
<text text-anchor="start" x="152.007" y="-179.8" font-family="Times,serif" font-size="14.00">_layout</text>
<text text-anchor="start" x="152.007" y="-165.8" font-family="Times,serif" font-size="14.00">payment_params</text>
<text text-anchor="start" x="152.007" y="-151.8" font-family="Times,serif" font-size="14.00">set_payment</text>
</g>
<!-- ProductsController -->
<g id="node7" class="node"><title>ProductsController</title>
<path fill="none" stroke="black" d="M-204.272,-217C-204.272,-217 -105.728,-217 -105.728,-217 -99.7275,-217 -93.7275,-223 -93.7275,-229 -93.7275,-229 -93.7275,-407 -93.7275,-407 -93.7275,-413 -99.7275,-419 -105.728,-419 -105.728,-419 -204.272,-419 -204.272,-419 -210.272,-419 -216.272,-413 -216.272,-407 -216.272,-407 -216.272,-229 -216.272,-229 -216.272,-223 -210.272,-217 -204.272,-217"/>
<text text-anchor="middle" x="-155" y="-403.8" font-family="Times,serif" font-size="14.00">ProductsController</text>
<polyline fill="none" stroke="black" points="-216.272,-397 -93.7275,-397 "/>
<text text-anchor="start" x="-208.272" y="-381.8" font-family="Times,serif" font-size="14.00">create</text>
<text text-anchor="start" x="-208.272" y="-367.8" font-family="Times,serif" font-size="14.00">destroy</text>
<text text-anchor="start" x="-208.272" y="-353.8" font-family="Times,serif" font-size="14.00">edit</text>
<text text-anchor="start" x="-208.272" y="-339.8" font-family="Times,serif" font-size="14.00">index</text>
<text text-anchor="start" x="-208.272" y="-325.8" font-family="Times,serif" font-size="14.00">new</text>
<text text-anchor="start" x="-208.272" y="-311.8" font-family="Times,serif" font-size="14.00">show</text>
<text text-anchor="start" x="-208.272" y="-297.8" font-family="Times,serif" font-size="14.00">update</text>
<polyline fill="none" stroke="black" points="-216.272,-291 -93.7275,-291 "/>
<polyline fill="none" stroke="black" points="-216.272,-267 -93.7275,-267 "/>
<text text-anchor="start" x="-208.272" y="-251.8" font-family="Times,serif" font-size="14.00">_layout</text>
<text text-anchor="start" x="-208.272" y="-237.8" font-family="Times,serif" font-size="14.00">product_params</text>
<text text-anchor="start" x="-208.272" y="-223.8" font-family="Times,serif" font-size="14.00">set_product</text>
</g>
<!-- RatesController -->
<g id="node8" class="node"><title>RatesController</title>
<path fill="none" stroke="black" d="M101.676,323C101.676,323 182.324,323 182.324,323 188.324,323 194.324,317 194.324,311 194.324,311 194.324,133 194.324,133 194.324,127 188.324,121 182.324,121 182.324,121 101.676,121 101.676,121 95.6758,121 89.6758,127 89.6758,133 89.6758,133 89.6758,311 89.6758,311 89.6758,317 95.6758,323 101.676,323"/>
<text text-anchor="middle" x="142" y="136.2" font-family="Times,serif" font-size="14.00">RatesController</text>
<polyline fill="none" stroke="black" points="89.6758,143 194.324,143 "/>
<text text-anchor="start" x="97.6758" y="158.2" font-family="Times,serif" font-size="14.00">create</text>
<text text-anchor="start" x="97.6758" y="172.2" font-family="Times,serif" font-size="14.00">destroy</text>
<text text-anchor="start" x="97.6758" y="186.2" font-family="Times,serif" font-size="14.00">edit</text>
<text text-anchor="start" x="97.6758" y="200.2" font-family="Times,serif" font-size="14.00">index</text>
<text text-anchor="start" x="97.6758" y="214.2" font-family="Times,serif" font-size="14.00">new</text>
<text text-anchor="start" x="97.6758" y="228.2" font-family="Times,serif" font-size="14.00">show</text>
<text text-anchor="start" x="97.6758" y="242.2" font-family="Times,serif" font-size="14.00">update</text>
<polyline fill="none" stroke="black" points="89.6758,249 194.324,249 "/>
<polyline fill="none" stroke="black" points="89.6758,273 194.324,273 "/>
<text text-anchor="start" x="97.6758" y="288.2" font-family="Times,serif" font-size="14.00">_layout</text>
<text text-anchor="start" x="97.6758" y="302.2" font-family="Times,serif" font-size="14.00">rate_params</text>
<text text-anchor="start" x="97.6758" y="316.2" font-family="Times,serif" font-size="14.00">set_rate</text>
</g>
<!-- ShipmentsController -->
<g id="node9" class="node"><title>ShipmentsController</title>
<path fill="none" stroke="black" d="M-60.3311,107C-60.3311,107 48.3311,107 48.3311,107 54.3311,107 60.3311,101 60.3311,95 60.3311,95 60.3311,-83 60.3311,-83 60.3311,-89 54.3311,-95 48.3311,-95 48.3311,-95 -60.3311,-95 -60.3311,-95 -66.3311,-95 -72.3311,-89 -72.3311,-83 -72.3311,-83 -72.3311,95 -72.3311,95 -72.3311,101 -66.3311,107 -60.3311,107"/>
<text text-anchor="middle" x="-6" y="-79.8" font-family="Times,serif" font-size="14.00">ShipmentsController</text>
<polyline fill="none" stroke="black" points="-72.3311,-73 60.3311,-73 "/>
<text text-anchor="start" x="-64.3311" y="-57.8" font-family="Times,serif" font-size="14.00">create</text>
<text text-anchor="start" x="-64.3311" y="-43.8" font-family="Times,serif" font-size="14.00">destroy</text>
<text text-anchor="start" x="-64.3311" y="-29.8" font-family="Times,serif" font-size="14.00">edit</text>
<text text-anchor="start" x="-64.3311" y="-15.8" font-family="Times,serif" font-size="14.00">index</text>
<text text-anchor="start" x="-64.3311" y="-1.8" font-family="Times,serif" font-size="14.00">new</text>
<text text-anchor="start" x="-64.3311" y="12.2" font-family="Times,serif" font-size="14.00">show</text>
<text text-anchor="start" x="-64.3311" y="26.2" font-family="Times,serif" font-size="14.00">update</text>
<polyline fill="none" stroke="black" points="-72.3311,33 60.3311,33 "/>
<polyline fill="none" stroke="black" points="-72.3311,57 60.3311,57 "/>
<text text-anchor="start" x="-64.3311" y="72.2" font-family="Times,serif" font-size="14.00">_layout</text>
<text text-anchor="start" x="-64.3311" y="86.2" font-family="Times,serif" font-size="14.00">set_shipment</text>
<text text-anchor="start" x="-64.3311" y="100.2" font-family="Times,serif" font-size="14.00">shipment_params</text>
</g>
<!-- StatusesController -->
<g id="node10" class="node"><title>StatusesController</title>
<path fill="none" stroke="black" d="M264.283,251C264.283,251 359.717,251 359.717,251 365.717,251 371.717,245 371.717,239 371.717,239 371.717,61 371.717,61 371.717,55 365.717,49 359.717,49 359.717,49 264.283,49 264.283,49 258.283,49 252.283,55 252.283,61 252.283,61 252.283,239 252.283,239 252.283,245 258.283,251 264.283,251"/>
<text text-anchor="middle" x="312" y="64.2" font-family="Times,serif" font-size="14.00">StatusesController</text>
<polyline fill="none" stroke="black" points="252.283,71 371.717,71 "/>
<text text-anchor="start" x="260.283" y="86.2" font-family="Times,serif" font-size="14.00">create</text>
<text text-anchor="start" x="260.283" y="100.2" font-family="Times,serif" font-size="14.00">destroy</text>
<text text-anchor="start" x="260.283" y="114.2" font-family="Times,serif" font-size="14.00">edit</text>
<text text-anchor="start" x="260.283" y="128.2" font-family="Times,serif" font-size="14.00">index</text>
<text text-anchor="start" x="260.283" y="142.2" font-family="Times,serif" font-size="14.00">new</text>
<text text-anchor="start" x="260.283" y="156.2" font-family="Times,serif" font-size="14.00">show</text>
<text text-anchor="start" x="260.283" y="170.2" font-family="Times,serif" font-size="14.00">update</text>
<polyline fill="none" stroke="black" points="252.283,177 371.717,177 "/>
<polyline fill="none" stroke="black" points="252.283,201 371.717,201 "/>
<text text-anchor="start" x="260.283" y="216.2" font-family="Times,serif" font-size="14.00">_layout</text>
<text text-anchor="start" x="260.283" y="230.2" font-family="Times,serif" font-size="14.00">set_status</text>
<text text-anchor="start" x="260.283" y="244.2" font-family="Times,serif" font-size="14.00">status_params</text>
</g>
<!-- ThoughtsController -->
<g id="node11" class="node"><title>ThoughtsController</title>
<path fill="none" stroke="black" d="M317.783,17C317.783,17 420.217,17 420.217,17 426.217,17 432.217,11 432.217,5 432.217,5 432.217,-173 432.217,-173 432.217,-179 426.217,-185 420.217,-185 420.217,-185 317.783,-185 317.783,-185 311.783,-185 305.783,-179 305.783,-173 305.783,-173 305.783,5 305.783,5 305.783,11 311.783,17 317.783,17"/>
<text text-anchor="middle" x="369" y="-169.8" font-family="Times,serif" font-size="14.00">ThoughtsController</text>
<polyline fill="none" stroke="black" points="305.783,-163 432.217,-163 "/>
<text text-anchor="start" x="313.783" y="-147.8" font-family="Times,serif" font-size="14.00">create</text>
<text text-anchor="start" x="313.783" y="-133.8" font-family="Times,serif" font-size="14.00">destroy</text>
<text text-anchor="start" x="313.783" y="-119.8" font-family="Times,serif" font-size="14.00">edit</text>
<text text-anchor="start" x="313.783" y="-105.8" font-family="Times,serif" font-size="14.00">index</text>
<text text-anchor="start" x="313.783" y="-91.8" font-family="Times,serif" font-size="14.00">new</text>
<text text-anchor="start" x="313.783" y="-77.8" font-family="Times,serif" font-size="14.00">show</text>
<text text-anchor="start" x="313.783" y="-63.8" font-family="Times,serif" font-size="14.00">update</text>
<polyline fill="none" stroke="black" points="305.783,-57 432.217,-57 "/>
<polyline fill="none" stroke="black" points="305.783,-33 432.217,-33 "/>
<text text-anchor="start" x="313.783" y="-17.8" font-family="Times,serif" font-size="14.00">_layout</text>
<text text-anchor="start" x="313.783" y="-3.8" font-family="Times,serif" font-size="14.00">set_thought</text>
<text text-anchor="start" x="313.783" y="10.2" font-family="Times,serif" font-size="14.00">thought_params</text>
</g>
<!-- UnitsController -->
<g id="node12" class="node"><title>UnitsController</title>
<path fill="none" stroke="black" d="M318.059,-217C318.059,-217 397.941,-217 397.941,-217 403.941,-217 409.941,-223 409.941,-229 409.941,-229 409.941,-407 409.941,-407 409.941,-413 403.941,-419 397.941,-419 397.941,-419 318.059,-419 318.059,-419 312.059,-419 306.059,-413 306.059,-407 306.059,-407 306.059,-229 306.059,-229 306.059,-223 312.059,-217 318.059,-217"/>
<text text-anchor="middle" x="358" y="-403.8" font-family="Times,serif" font-size="14.00">UnitsController</text>
<polyline fill="none" stroke="black" points="306.059,-397 409.941,-397 "/>
<text text-anchor="start" x="314.059" y="-381.8" font-family="Times,serif" font-size="14.00">create</text>
<text text-anchor="start" x="314.059" y="-367.8" font-family="Times,serif" font-size="14.00">destroy</text>
<text text-anchor="start" x="314.059" y="-353.8" font-family="Times,serif" font-size="14.00">edit</text>
<text text-anchor="start" x="314.059" y="-339.8" font-family="Times,serif" font-size="14.00">index</text>
<text text-anchor="start" x="314.059" y="-325.8" font-family="Times,serif" font-size="14.00">new</text>
<text text-anchor="start" x="314.059" y="-311.8" font-family="Times,serif" font-size="14.00">show</text>
<text text-anchor="start" x="314.059" y="-297.8" font-family="Times,serif" font-size="14.00">update</text>
<polyline fill="none" stroke="black" points="306.059,-291 409.941,-291 "/>
<polyline fill="none" stroke="black" points="306.059,-267 409.941,-267 "/>
<text text-anchor="start" x="314.059" y="-251.8" font-family="Times,serif" font-size="14.00">_layout</text>
<text text-anchor="start" x="314.059" y="-237.8" font-family="Times,serif" font-size="14.00">set_unit</text>
<text text-anchor="start" x="314.059" y="-223.8" font-family="Times,serif" font-size="14.00">unit_params</text>
</g>
<!-- VendorsController -->
<g id="node13" class="node"><title>VendorsController</title>
<path fill="none" stroke="black" d="M-221.714,17C-221.714,17 -126.286,17 -126.286,17 -120.286,17 -114.286,11 -114.286,5 -114.286,5 -114.286,-173 -114.286,-173 -114.286,-179 -120.286,-185 -126.286,-185 -126.286,-185 -221.714,-185 -221.714,-185 -227.714,-185 -233.714,-179 -233.714,-173 -233.714,-173 -233.714,5 -233.714,5 -233.714,11 -227.714,17 -221.714,17"/>
<text text-anchor="middle" x="-174" y="-169.8" font-family="Times,serif" font-size="14.00">VendorsController</text>
<polyline fill="none" stroke="black" points="-233.714,-163 -114.286,-163 "/>
<text text-anchor="start" x="-225.714" y="-147.8" font-family="Times,serif" font-size="14.00">create</text>
<text text-anchor="start" x="-225.714" y="-133.8" font-family="Times,serif" font-size="14.00">destroy</text>
<text text-anchor="start" x="-225.714" y="-119.8" font-family="Times,serif" font-size="14.00">edit</text>
<text text-anchor="start" x="-225.714" y="-105.8" font-family="Times,serif" font-size="14.00">index</text>
<text text-anchor="start" x="-225.714" y="-91.8" font-family="Times,serif" font-size="14.00">new</text>
<text text-anchor="start" x="-225.714" y="-77.8" font-family="Times,serif" font-size="14.00">show</text>
<text text-anchor="start" x="-225.714" y="-63.8" font-family="Times,serif" font-size="14.00">update</text>
<polyline fill="none" stroke="black" points="-233.714,-57 -114.286,-57 "/>
<polyline fill="none" stroke="black" points="-233.714,-33 -114.286,-33 "/>
<text text-anchor="start" x="-225.714" y="-17.8" font-family="Times,serif" font-size="14.00">_layout</text>
<text text-anchor="start" x="-225.714" y="-3.8" font-family="Times,serif" font-size="14.00">set_vendor</text>
<text text-anchor="start" x="-225.714" y="10.2" font-family="Times,serif" font-size="14.00">vendor_params</text>
</g>
</g>
</svg>
