<?xml version="1.0" encoding="UTF-8" standalone="no"?>
<!DOCTYPE svg PUBLIC "-//W3C//DTD SVG 1.1//EN"
 "http://www.w3.org/Graphics/SVG/1.1/DTD/svg11.dtd">
<!-- Generated by graphviz version 2.38.0 (20140413.2041)
 -->
<!-- Title: models_diagram Pages: 1 -->
<svg width="1120pt" height="744pt"
 viewBox="0.00 0.00 1120.18 744.00" xmlns="http://www.w3.org/2000/svg" xmlns:xlink="http://www.w3.org/1999/xlink">
<g id="graph0" class="graph" transform="scale(1 1) rotate(0) translate(4 740)">
<title>models_diagram</title>
<polygon fill="white" stroke="none" points="-4,4 -4,-740 1116.18,-740 1116.18,4 -4,4"/>
<!-- _diagram_info -->
<g id="node1" class="node"><title>_diagram_info</title>
<text text-anchor="start" x="123.466" y="-714.6" font-family="Times,serif" font-size="13.00">Models diagram</text>
<text text-anchor="start" x="123.466" y="-701.6" font-family="Times,serif" font-size="13.00">Date: Jun 07 2015 &#45; 13:15</text>
<text text-anchor="start" x="123.466" y="-688.6" font-family="Times,serif" font-size="13.00">Migration version: 20150607111053</text>
<text text-anchor="start" x="123.466" y="-675.6" font-family="Times,serif" font-size="13.00">Generated by RailRoady 1.3.0</text>
<text text-anchor="start" x="123.466" y="-662.6" font-family="Times,serif" font-size="13.00">http://railroady.prestonlee.com</text>
</g>
<!-- Category -->
<g id="node2" class="node"><title>Category</title>
<path fill="none" stroke="black" d="M840.172,-649.5C840.172,-649.5 949.183,-649.5 949.183,-649.5 955.183,-649.5 961.183,-655.5 961.183,-661.5 961.183,-661.5 961.183,-723.5 961.183,-723.5 961.183,-729.5 955.183,-735.5 949.183,-735.5 949.183,-735.5 840.172,-735.5 840.172,-735.5 834.172,-735.5 828.172,-729.5 828.172,-723.5 828.172,-723.5 828.172,-661.5 828.172,-661.5 828.172,-655.5 834.172,-649.5 840.172,-649.5"/>
<text text-anchor="middle" x="894.678" y="-720.3" font-family="Times,serif" font-size="14.00">Category</text>
<polyline fill="none" stroke="black" points="828.172,-713.5 961.183,-713.5 "/>
<text text-anchor="start" x="836.172" y="-698.3" font-family="Times,serif" font-size="14.00">id :integer</text>
<text text-anchor="start" x="836.172" y="-684.3" font-family="Times,serif" font-size="14.00">name :string</text>
<text text-anchor="start" x="836.172" y="-670.3" font-family="Times,serif" font-size="14.00">created_at :datetime</text>
<text text-anchor="start" x="836.172" y="-656.3" font-family="Times,serif" font-size="14.00">updated_at :datetime</text>
</g>
<!-- Product -->
<g id="node9" class="node"><title>Product</title>
<path fill="none" stroke="black" d="M914.614,-428.5C914.614,-428.5 1026.74,-428.5 1026.74,-428.5 1032.74,-428.5 1038.74,-434.5 1038.74,-440.5 1038.74,-440.5 1038.74,-572.5 1038.74,-572.5 1038.74,-578.5 1032.74,-584.5 1026.74,-584.5 1026.74,-584.5 914.614,-584.5 914.614,-584.5 908.614,-584.5 902.614,-578.5 902.614,-572.5 902.614,-572.5 902.614,-440.5 902.614,-440.5 902.614,-434.5 908.614,-428.5 914.614,-428.5"/>
<text text-anchor="middle" x="970.678" y="-569.3" font-family="Times,serif" font-size="14.00">Product</text>
<polyline fill="none" stroke="black" points="902.614,-562.5 1038.74,-562.5 "/>
<text text-anchor="start" x="910.614" y="-547.3" font-family="Times,serif" font-size="14.00">id :integer</text>
<text text-anchor="start" x="910.614" y="-533.3" font-family="Times,serif" font-size="14.00">category_id :integer</text>
<text text-anchor="start" x="910.614" y="-519.3" font-family="Times,serif" font-size="14.00">producent_id :integer</text>
<text text-anchor="start" x="910.614" y="-505.3" font-family="Times,serif" font-size="14.00">name :string</text>
<text text-anchor="start" x="910.614" y="-491.3" font-family="Times,serif" font-size="14.00">netto_price :float</text>
<text text-anchor="start" x="910.614" y="-477.3" font-family="Times,serif" font-size="14.00">vat :float</text>
<text text-anchor="start" x="910.614" y="-463.3" font-family="Times,serif" font-size="14.00">description :text</text>
<text text-anchor="start" x="910.614" y="-449.3" font-family="Times,serif" font-size="14.00">created_at :datetime</text>
<text text-anchor="start" x="910.614" y="-435.3" font-family="Times,serif" font-size="14.00">updated_at :datetime</text>
</g>
<!-- Category&#45;&gt;Product -->
<g id="edge1" class="edge"><title>Category&#45;&gt;Product</title>
<path fill="none" stroke="#615d64" d="M915.359,-641.428C921.411,-626.778 928.208,-610.322 934.911,-594.092"/>
<ellipse fill="none" stroke="#615d64" cx="913.641" cy="-645.59" rx="4.00001" ry="4.00001"/>
<polygon fill="#615d64" stroke="#615d64" points="935.024,-593.82 943,-586.296 936.932,-589.199 938.841,-584.578 938.841,-584.578 938.841,-584.578 936.932,-589.199 934.682,-582.86 935.024,-593.82 935.024,-593.82"/>
</g>
<!-- Client -->
<g id="node3" class="node"><title>Client</title>
<path fill="none" stroke="black" d="M692.4,-400.5C692.4,-400.5 872.956,-400.5 872.956,-400.5 878.956,-400.5 884.956,-406.5 884.956,-412.5 884.956,-412.5 884.956,-600.5 884.956,-600.5 884.956,-606.5 878.956,-612.5 872.956,-612.5 872.956,-612.5 692.4,-612.5 692.4,-612.5 686.4,-612.5 680.4,-606.5 680.4,-600.5 680.4,-600.5 680.4,-412.5 680.4,-412.5 680.4,-406.5 686.4,-400.5 692.4,-400.5"/>
<text text-anchor="middle" x="782.678" y="-597.3" font-family="Times,serif" font-size="14.00">Client</text>
<polyline fill="none" stroke="black" points="680.4,-590.5 884.956,-590.5 "/>
<text text-anchor="start" x="688.4" y="-575.3" font-family="Times,serif" font-size="14.00">id :integer</text>
<text text-anchor="start" x="688.4" y="-561.3" font-family="Times,serif" font-size="14.00">email :string</text>
<text text-anchor="start" x="688.4" y="-547.3" font-family="Times,serif" font-size="14.00">encrypted_password :string</text>
<text text-anchor="start" x="688.4" y="-533.3" font-family="Times,serif" font-size="14.00">reset_password_token :string</text>
<text text-anchor="start" x="688.4" y="-519.3" font-family="Times,serif" font-size="14.00">reset_password_sent_at :datetime</text>
<text text-anchor="start" x="688.4" y="-505.3" font-family="Times,serif" font-size="14.00">remember_created_at :datetime</text>
<text text-anchor="start" x="688.4" y="-491.3" font-family="Times,serif" font-size="14.00">sign_in_count :integer</text>
<text text-anchor="start" x="688.4" y="-477.3" font-family="Times,serif" font-size="14.00">current_sign_in_at :datetime</text>
<text text-anchor="start" x="688.4" y="-463.3" font-family="Times,serif" font-size="14.00">last_sign_in_at :datetime</text>
<text text-anchor="start" x="688.4" y="-449.3" font-family="Times,serif" font-size="14.00">current_sign_in_ip :string</text>
<text text-anchor="start" x="688.4" y="-435.3" font-family="Times,serif" font-size="14.00">last_sign_in_ip :string</text>
<text text-anchor="start" x="688.4" y="-421.3" font-family="Times,serif" font-size="14.00">created_at :datetime</text>
<text text-anchor="start" x="688.4" y="-407.3" font-family="Times,serif" font-size="14.00">updated_at :datetime</text>
</g>
<!-- Order -->
<g id="node6" class="node"><title>Order</title>
<path fill="none" stroke="black" d="M395.393,-179.5C395.393,-179.5 505.962,-179.5 505.962,-179.5 511.962,-179.5 517.962,-185.5 517.962,-191.5 517.962,-191.5 517.962,-351.5 517.962,-351.5 517.962,-357.5 511.962,-363.5 505.962,-363.5 505.962,-363.5 395.393,-363.5 395.393,-363.5 389.393,-363.5 383.393,-357.5 383.393,-351.5 383.393,-351.5 383.393,-191.5 383.393,-191.5 383.393,-185.5 389.393,-179.5 395.393,-179.5"/>
<text text-anchor="middle" x="450.678" y="-348.3" font-family="Times,serif" font-size="14.00">Order</text>
<polyline fill="none" stroke="black" points="383.393,-341.5 517.962,-341.5 "/>
<text text-anchor="start" x="391.393" y="-326.3" font-family="Times,serif" font-size="14.00">id :integer</text>
<text text-anchor="start" x="391.393" y="-312.3" font-family="Times,serif" font-size="14.00">client_id :integer</text>
<text text-anchor="start" x="391.393" y="-298.3" font-family="Times,serif" font-size="14.00">employee_id :integer</text>
<text text-anchor="start" x="391.393" y="-284.3" font-family="Times,serif" font-size="14.00">status_id :integer</text>
<text text-anchor="start" x="391.393" y="-270.3" font-family="Times,serif" font-size="14.00">shipment_id :integer</text>
<text text-anchor="start" x="391.393" y="-256.3" font-family="Times,serif" font-size="14.00">payment_id :integer</text>
<text text-anchor="start" x="391.393" y="-242.3" font-family="Times,serif" font-size="14.00">redeem_code :string</text>
<text text-anchor="start" x="391.393" y="-228.3" font-family="Times,serif" font-size="14.00">cost :float</text>
<text text-anchor="start" x="391.393" y="-214.3" font-family="Times,serif" font-size="14.00">extra_info :text</text>
<text text-anchor="start" x="391.393" y="-200.3" font-family="Times,serif" font-size="14.00">created_at :datetime</text>
<text text-anchor="start" x="391.393" y="-186.3" font-family="Times,serif" font-size="14.00">updated_at :datetime</text>
</g>
<!-- Client&#45;&gt;Order -->
<g id="edge2" class="edge"><title>Client&#45;&gt;Order</title>
<path fill="none" stroke="#2cb9a7" d="M673.267,-400.99C672.738,-400.657 672.208,-400.327 671.678,-400 631.476,-375.198 613.211,-386.502 571.678,-364 556.385,-355.715 540.93,-345.615 526.415,-335.189"/>
<ellipse fill="none" stroke="#2cb9a7" cx="676.773" cy="-403.279" rx="4.00002" ry="4.00002"/>
<polygon fill="#2cb9a7" stroke="#2cb9a7" points="526.057,-334.927 520.642,-325.391 522.021,-331.975 517.985,-329.023 517.985,-329.023 517.985,-329.023 522.021,-331.975 515.329,-332.656 526.057,-334.927 526.057,-334.927"/>
</g>
<!-- Rate -->
<g id="node10" class="node"><title>Rate</title>
<path fill="none" stroke="black" d="M744.172,-214.5C744.172,-214.5 853.183,-214.5 853.183,-214.5 859.183,-214.5 865.183,-220.5 865.183,-226.5 865.183,-226.5 865.183,-316.5 865.183,-316.5 865.183,-322.5 859.183,-328.5 853.183,-328.5 853.183,-328.5 744.172,-328.5 744.172,-328.5 738.172,-328.5 732.172,-322.5 732.172,-316.5 732.172,-316.5 732.172,-226.5 732.172,-226.5 732.172,-220.5 738.172,-214.5 744.172,-214.5"/>
<text text-anchor="middle" x="798.678" y="-313.3" font-family="Times,serif" font-size="14.00">Rate</text>
<polyline fill="none" stroke="black" points="732.172,-306.5 865.183,-306.5 "/>
<text text-anchor="start" x="740.172" y="-291.3" font-family="Times,serif" font-size="14.00">id :integer</text>
<text text-anchor="start" x="740.172" y="-277.3" font-family="Times,serif" font-size="14.00">product_id :integer</text>
<text text-anchor="start" x="740.172" y="-263.3" font-family="Times,serif" font-size="14.00">client_id :integer</text>
<text text-anchor="start" x="740.172" y="-249.3" font-family="Times,serif" font-size="14.00">rate :integer</text>
<text text-anchor="start" x="740.172" y="-235.3" font-family="Times,serif" font-size="14.00">created_at :datetime</text>
<text text-anchor="start" x="740.172" y="-221.3" font-family="Times,serif" font-size="14.00">updated_at :datetime</text>
</g>
<!-- Client&#45;&gt;Rate -->
<g id="edge4" class="edge"><title>Client&#45;&gt;Rate</title>
<path fill="none" stroke="#0e9076" d="M790.464,-392.117C791.721,-373.812 792.985,-355.405 794.132,-338.704"/>
<ellipse fill="none" stroke="#0e9076" cx="790.179" cy="-396.257" rx="4" ry="4"/>
<polygon fill="#0e9076" stroke="#0e9076" points="794.144,-338.519 799.319,-328.851 794.487,-333.531 794.829,-328.543 794.829,-328.543 794.829,-328.543 794.487,-333.531 790.34,-328.234 794.144,-338.519 794.144,-338.519"/>
</g>
<!-- Thought -->
<g id="node13" class="node"><title>Thought</title>
<path fill="none" stroke="black" d="M593.172,-214.5C593.172,-214.5 702.183,-214.5 702.183,-214.5 708.183,-214.5 714.183,-220.5 714.183,-226.5 714.183,-226.5 714.183,-316.5 714.183,-316.5 714.183,-322.5 708.183,-328.5 702.183,-328.5 702.183,-328.5 593.172,-328.5 593.172,-328.5 587.172,-328.5 581.172,-322.5 581.172,-316.5 581.172,-316.5 581.172,-226.5 581.172,-226.5 581.172,-220.5 587.172,-214.5 593.172,-214.5"/>
<text text-anchor="middle" x="647.678" y="-313.3" font-family="Times,serif" font-size="14.00">Thought</text>
<polyline fill="none" stroke="black" points="581.172,-306.5 714.183,-306.5 "/>
<text text-anchor="start" x="589.172" y="-291.3" font-family="Times,serif" font-size="14.00">id :integer</text>
<text text-anchor="start" x="589.172" y="-277.3" font-family="Times,serif" font-size="14.00">product_id :integer</text>
<text text-anchor="start" x="589.172" y="-263.3" font-family="Times,serif" font-size="14.00">client_id :integer</text>
<text text-anchor="start" x="589.172" y="-249.3" font-family="Times,serif" font-size="14.00">body :text</text>
<text text-anchor="start" x="589.172" y="-235.3" font-family="Times,serif" font-size="14.00">created_at :datetime</text>
<text text-anchor="start" x="589.172" y="-221.3" font-family="Times,serif" font-size="14.00">updated_at :datetime</text>
</g>
<!-- Client&#45;&gt;Thought -->
<g id="edge3" class="edge"><title>Client&#45;&gt;Thought</title>
<path fill="none" stroke="#976961" d="M717.658,-393.28C706.564,-374.133 695.38,-354.831 685.308,-337.447"/>
<ellipse fill="none" stroke="#976961" cx="719.689" cy="-396.787" rx="4.00002" ry="4.00002"/>
<polygon fill="#976961" stroke="#976961" points="685.162,-337.195 684.042,-326.287 682.655,-332.869 680.149,-328.543 680.149,-328.543 680.149,-328.543 682.655,-332.869 676.255,-330.799 685.162,-337.195 685.162,-337.195"/>
</g>
<!-- Employee -->
<g id="node4" class="node"><title>Employee</title>
<path fill="none" stroke="black" d="M316.4,-400.5C316.4,-400.5 496.956,-400.5 496.956,-400.5 502.956,-400.5 508.956,-406.5 508.956,-412.5 508.956,-412.5 508.956,-600.5 508.956,-600.5 508.956,-606.5 502.956,-612.5 496.956,-612.5 496.956,-612.5 316.4,-612.5 316.4,-612.5 310.4,-612.5 304.4,-606.5 304.4,-600.5 304.4,-600.5 304.4,-412.5 304.4,-412.5 304.4,-406.5 310.4,-400.5 316.4,-400.5"/>
<text text-anchor="middle" x="406.678" y="-597.3" font-family="Times,serif" font-size="14.00">Employee</text>
<polyline fill="none" stroke="black" points="304.4,-590.5 508.956,-590.5 "/>
<text text-anchor="start" x="312.4" y="-575.3" font-family="Times,serif" font-size="14.00">id :integer</text>
<text text-anchor="start" x="312.4" y="-561.3" font-family="Times,serif" font-size="14.00">email :string</text>
<text text-anchor="start" x="312.4" y="-547.3" font-family="Times,serif" font-size="14.00">encrypted_password :string</text>
<text text-anchor="start" x="312.4" y="-533.3" font-family="Times,serif" font-size="14.00">reset_password_token :string</text>
<text text-anchor="start" x="312.4" y="-519.3" font-family="Times,serif" font-size="14.00">reset_password_sent_at :datetime</text>
<text text-anchor="start" x="312.4" y="-505.3" font-family="Times,serif" font-size="14.00">remember_created_at :datetime</text>
<text text-anchor="start" x="312.4" y="-491.3" font-family="Times,serif" font-size="14.00">sign_in_count :integer</text>
<text text-anchor="start" x="312.4" y="-477.3" font-family="Times,serif" font-size="14.00">current_sign_in_at :datetime</text>
<text text-anchor="start" x="312.4" y="-463.3" font-family="Times,serif" font-size="14.00">last_sign_in_at :datetime</text>
<text text-anchor="start" x="312.4" y="-449.3" font-family="Times,serif" font-size="14.00">current_sign_in_ip :string</text>
<text text-anchor="start" x="312.4" y="-435.3" font-family="Times,serif" font-size="14.00">last_sign_in_ip :string</text>
<text text-anchor="start" x="312.4" y="-421.3" font-family="Times,serif" font-size="14.00">created_at :datetime</text>
<text text-anchor="start" x="312.4" y="-407.3" font-family="Times,serif" font-size="14.00">updated_at :datetime</text>
</g>
<!-- Employee&#45;&gt;Order -->
<g id="edge5" class="edge"><title>Employee&#45;&gt;Order</title>
<path fill="none" stroke="#ef14a5" d="M428.067,-392.236C429.222,-386.116 430.38,-379.985 431.527,-373.909"/>
<ellipse fill="none" stroke="#ef14a5" cx="427.296" cy="-396.317" rx="4.00001" ry="4.00001"/>
<polygon fill="#ef14a5" stroke="#ef14a5" points="431.591,-373.575 437.868,-364.584 432.518,-368.662 433.446,-363.749 433.446,-363.749 433.446,-363.749 432.518,-368.662 429.024,-362.914 431.591,-373.575 431.591,-373.575"/>
</g>
<!-- Image -->
<g id="node5" class="node"><title>Image</title>
<path fill="none" stroke="black" d="M895.569,-200.5C895.569,-200.5 1045.79,-200.5 1045.79,-200.5 1051.79,-200.5 1057.79,-206.5 1057.79,-212.5 1057.79,-212.5 1057.79,-330.5 1057.79,-330.5 1057.79,-336.5 1051.79,-342.5 1045.79,-342.5 1045.79,-342.5 895.569,-342.5 895.569,-342.5 889.569,-342.5 883.569,-336.5 883.569,-330.5 883.569,-330.5 883.569,-212.5 883.569,-212.5 883.569,-206.5 889.569,-200.5 895.569,-200.5"/>
<text text-anchor="middle" x="970.678" y="-327.3" font-family="Times,serif" font-size="14.00">Image</text>
<polyline fill="none" stroke="black" points="883.569,-320.5 1057.79,-320.5 "/>
<text text-anchor="start" x="891.569" y="-305.3" font-family="Times,serif" font-size="14.00">id :integer</text>
<text text-anchor="start" x="891.569" y="-291.3" font-family="Times,serif" font-size="14.00">product_id :integer</text>
<text text-anchor="start" x="891.569" y="-277.3" font-family="Times,serif" font-size="14.00">created_at :datetime</text>
<text text-anchor="start" x="891.569" y="-263.3" font-family="Times,serif" font-size="14.00">updated_at :datetime</text>
<text text-anchor="start" x="891.569" y="-249.3" font-family="Times,serif" font-size="14.00">image_file_name :string</text>
<text text-anchor="start" x="891.569" y="-235.3" font-family="Times,serif" font-size="14.00">image_content_type :string</text>
<text text-anchor="start" x="891.569" y="-221.3" font-family="Times,serif" font-size="14.00">image_file_size :integer</text>
<text text-anchor="start" x="891.569" y="-207.3" font-family="Times,serif" font-size="14.00">image_updated_at :datetime</text>
</g>
<!-- Unit -->
<g id="node14" class="node"><title>Unit</title>
<path fill="none" stroke="black" d="M735.172,-0.5C735.172,-0.5 844.183,-0.5 844.183,-0.5 850.183,-0.5 856.183,-6.5 856.183,-12.5 856.183,-12.5 856.183,-130.5 856.183,-130.5 856.183,-136.5 850.183,-142.5 844.183,-142.5 844.183,-142.5 735.172,-142.5 735.172,-142.5 729.172,-142.5 723.172,-136.5 723.172,-130.5 723.172,-130.5 723.172,-12.5 723.172,-12.5 723.172,-6.5 729.172,-0.5 735.172,-0.5"/>
<text text-anchor="middle" x="789.678" y="-127.3" font-family="Times,serif" font-size="14.00">Unit</text>
<polyline fill="none" stroke="black" points="723.172,-120.5 856.183,-120.5 "/>
<text text-anchor="start" x="731.172" y="-105.3" font-family="Times,serif" font-size="14.00">id :integer</text>
<text text-anchor="start" x="731.172" y="-91.3" font-family="Times,serif" font-size="14.00">product_id :integer</text>
<text text-anchor="start" x="731.172" y="-77.3" font-family="Times,serif" font-size="14.00">order_id :integer</text>
<text text-anchor="start" x="731.172" y="-63.3" font-family="Times,serif" font-size="14.00">netto_price :float</text>
<text text-anchor="start" x="731.172" y="-49.3" font-family="Times,serif" font-size="14.00">vat :float</text>
<text text-anchor="start" x="731.172" y="-35.3" font-family="Times,serif" font-size="14.00">sold_at :datetime</text>
<text text-anchor="start" x="731.172" y="-21.3" font-family="Times,serif" font-size="14.00">created_at :datetime</text>
<text text-anchor="start" x="731.172" y="-7.3" font-family="Times,serif" font-size="14.00">updated_at :datetime</text>
</g>
<!-- Order&#45;&gt;Unit -->
<g id="edge6" class="edge"><title>Order&#45;&gt;Unit</title>
<path fill="none" stroke="#608d24" d="M524.608,-211.067C539.805,-199.865 555.97,-188.651 571.678,-179 617.151,-151.061 671.013,-124.69 713.821,-105.178"/>
<ellipse fill="none" stroke="#608d24" cx="521.368" cy="-213.475" rx="4.00002" ry="4.00002"/>
<polygon fill="#608d24" stroke="#608d24" points="713.948,-105.121 724.914,-105.096 718.503,-103.059 723.057,-100.996 723.057,-100.996 723.057,-100.996 718.503,-103.059 721.201,-96.8969 713.948,-105.121 713.948,-105.121"/>
</g>
<!-- Payment -->
<g id="node7" class="node"><title>Payment</title>
<path fill="none" stroke="black" d="M539,-449.5C539,-449.5 650.355,-449.5 650.355,-449.5 656.355,-449.5 662.355,-455.5 662.355,-461.5 662.355,-461.5 662.355,-551.5 662.355,-551.5 662.355,-557.5 656.355,-563.5 650.355,-563.5 650.355,-563.5 539,-563.5 539,-563.5 533,-563.5 527,-557.5 527,-551.5 527,-551.5 527,-461.5 527,-461.5 527,-455.5 533,-449.5 539,-449.5"/>
<text text-anchor="middle" x="594.678" y="-548.3" font-family="Times,serif" font-size="14.00">Payment</text>
<polyline fill="none" stroke="black" points="527,-541.5 662.355,-541.5 "/>
<text text-anchor="start" x="535" y="-526.3" font-family="Times,serif" font-size="14.00">id :integer</text>
<text text-anchor="start" x="535" y="-512.3" font-family="Times,serif" font-size="14.00">method :string</text>
<text text-anchor="start" x="535" y="-498.3" font-family="Times,serif" font-size="14.00">is_complete :boolean</text>
<text text-anchor="start" x="535" y="-484.3" font-family="Times,serif" font-size="14.00">amount :float</text>
<text text-anchor="start" x="535" y="-470.3" font-family="Times,serif" font-size="14.00">created_at :datetime</text>
<text text-anchor="start" x="535" y="-456.3" font-family="Times,serif" font-size="14.00">updated_at :datetime</text>
</g>
<!-- Payment&#45;&gt;Order -->
<g id="edge7" class="edge"><title>Payment&#45;&gt;Order</title>
<path fill="none" stroke="#989851" d="M555.641,-442.336C542.298,-420.747 527.029,-396.041 512.346,-372.283"/>
<ellipse fill="none" stroke="#989851" cx="557.9" cy="-445.992" rx="4.00002" ry="4.00002"/>
<polygon fill="#989851" stroke="#989851" points="512.225,-372.087 510.796,-361.215 509.596,-367.834 506.968,-363.58 506.968,-363.58 506.968,-363.58 509.596,-367.834 503.14,-365.946 512.225,-372.087 512.225,-372.087"/>
</g>
<!-- Position -->
<g id="node8" class="node"><title>Position</title>
<path fill="none" stroke="black" d="M352.172,-649.5C352.172,-649.5 461.183,-649.5 461.183,-649.5 467.183,-649.5 473.183,-655.5 473.183,-661.5 473.183,-661.5 473.183,-723.5 473.183,-723.5 473.183,-729.5 467.183,-735.5 461.183,-735.5 461.183,-735.5 352.172,-735.5 352.172,-735.5 346.172,-735.5 340.172,-729.5 340.172,-723.5 340.172,-723.5 340.172,-661.5 340.172,-661.5 340.172,-655.5 346.172,-649.5 352.172,-649.5"/>
<text text-anchor="middle" x="406.678" y="-720.3" font-family="Times,serif" font-size="14.00">Position</text>
<polyline fill="none" stroke="black" points="340.172,-713.5 473.183,-713.5 "/>
<text text-anchor="start" x="348.172" y="-698.3" font-family="Times,serif" font-size="14.00">id :integer</text>
<text text-anchor="start" x="348.172" y="-684.3" font-family="Times,serif" font-size="14.00">name :string</text>
<text text-anchor="start" x="348.172" y="-670.3" font-family="Times,serif" font-size="14.00">created_at :datetime</text>
<text text-anchor="start" x="348.172" y="-656.3" font-family="Times,serif" font-size="14.00">updated_at :datetime</text>
</g>
<!-- Position&#45;&gt;Employee -->
<g id="edge8" class="edge"><title>Position&#45;&gt;Employee</title>
<path fill="none" stroke="#82c98e" d="M406.678,-641.237C406.678,-635.34 406.678,-629.153 406.678,-622.807"/>
<ellipse fill="none" stroke="#82c98e" cx="406.678" cy="-645.287" rx="4" ry="4"/>
<polygon fill="#82c98e" stroke="#82c98e" points="406.678,-622.724 411.178,-612.724 406.678,-617.724 406.678,-612.724 406.678,-612.724 406.678,-612.724 406.678,-617.724 402.178,-612.724 406.678,-622.724 406.678,-622.724"/>
</g>
<!-- Product&#45;&gt;Image -->
<g id="edge12" class="edge"><title>Product&#45;&gt;Image</title>
<path fill="none" stroke="#39c464" d="M970.678,-420.078C970.678,-398.163 970.678,-374.666 970.678,-353.009"/>
<ellipse fill="none" stroke="#39c464" cx="970.678" cy="-424.238" rx="4" ry="4"/>
<polygon fill="#39c464" stroke="#39c464" points="970.678,-352.872 975.178,-342.872 970.678,-347.872 970.678,-342.872 970.678,-342.872 970.678,-342.872 970.678,-347.872 966.178,-342.872 970.678,-352.872 970.678,-352.872"/>
</g>
<!-- Product&#45;&gt;Rate -->
<g id="edge11" class="edge"><title>Product&#45;&gt;Rate</title>
<path fill="none" stroke="#e37833" d="M909.507,-421.531C904.163,-414.242 898.83,-406.986 893.678,-400 878.486,-379.4 861.836,-356.996 846.777,-336.797"/>
<ellipse fill="none" stroke="#e37833" cx="912.05" cy="-425.001" rx="4.00002" ry="4.00002"/>
<polygon fill="#e37833" stroke="#e37833" points="846.63,-336.6 844.259,-325.893 843.641,-332.592 840.652,-328.584 840.652,-328.584 840.652,-328.584 843.641,-332.592 837.044,-331.274 846.63,-336.6 846.63,-336.6"/>
</g>
<!-- Product&#45;&gt;Thought -->
<g id="edge10" class="edge"><title>Product&#45;&gt;Thought</title>
<path fill="none" stroke="#676068" d="M919.823,-422.443C911.928,-413.921 903.193,-406.152 893.678,-400 828.455,-357.834 789.058,-404.319 722.678,-364 710.811,-356.793 699.983,-347.012 690.471,-336.52"/>
<ellipse fill="none" stroke="#676068" cx="922.5" cy="-425.46" rx="4.00002" ry="4.00002"/>
<polygon fill="#676068" stroke="#676068" points="690.321,-336.346 687.186,-325.838 687.051,-332.564 683.782,-328.781 683.782,-328.781 683.782,-328.781 687.051,-332.564 680.377,-331.724 690.321,-336.346 690.321,-336.346"/>
</g>
<!-- Product&#45;&gt;Unit -->
<g id="edge9" class="edge"><title>Product&#45;&gt;Unit</title>
<path fill="none" stroke="#b21467" d="M1039.53,-421.213C1050.71,-403.3 1060.6,-383.791 1066.68,-364 1090.82,-285.403 1113.23,-246.774 1066.68,-179 1022.1,-114.098 932.028,-88.7311 866.668,-78.8264"/>
<ellipse fill="none" stroke="#b21467" cx="1037.17" cy="-424.89" rx="4.00002" ry="4.00002"/>
<polygon fill="#b21467" stroke="#b21467" points="866.301,-78.7743 857.035,-72.9107 861.351,-78.0701 856.401,-77.3658 856.401,-77.3658 856.401,-77.3658 861.351,-78.0701 855.767,-81.821 866.301,-78.7743 866.301,-78.7743"/>
</g>
<!-- Shipment -->
<g id="node11" class="node"><title>Shipment</title>
<path fill="none" stroke="black" d="M12,-449.5C12,-449.5 123.355,-449.5 123.355,-449.5 129.355,-449.5 135.355,-455.5 135.355,-461.5 135.355,-461.5 135.355,-551.5 135.355,-551.5 135.355,-557.5 129.355,-563.5 123.355,-563.5 123.355,-563.5 12,-563.5 12,-563.5 6,-563.5 0,-557.5 0,-551.5 0,-551.5 0,-461.5 0,-461.5 0,-455.5 6,-449.5 12,-449.5"/>
<text text-anchor="middle" x="67.6777" y="-548.3" font-family="Times,serif" font-size="14.00">Shipment</text>
<polyline fill="none" stroke="black" points="0,-541.5 135.355,-541.5 "/>
<text text-anchor="start" x="8" y="-526.3" font-family="Times,serif" font-size="14.00">id :integer</text>
<text text-anchor="start" x="8" y="-512.3" font-family="Times,serif" font-size="14.00">method :string</text>
<text text-anchor="start" x="8" y="-498.3" font-family="Times,serif" font-size="14.00">price :float</text>
<text text-anchor="start" x="8" y="-484.3" font-family="Times,serif" font-size="14.00">is_complete :boolean</text>
<text text-anchor="start" x="8" y="-470.3" font-family="Times,serif" font-size="14.00">created_at :datetime</text>
<text text-anchor="start" x="8" y="-456.3" font-family="Times,serif" font-size="14.00">updated_at :datetime</text>
</g>
<!-- Shipment&#45;&gt;Order -->
<g id="edge13" class="edge"><title>Shipment&#45;&gt;Order</title>
<path fill="none" stroke="#4646a5" d="M104.199,-442.81C115.386,-427.344 128.739,-411.838 143.678,-400 212.195,-345.708 307.111,-311.027 373.198,-291.757"/>
<ellipse fill="none" stroke="#4646a5" cx="101.843" cy="-446.156" rx="4.00002" ry="4.00002"/>
<polygon fill="#4646a5" stroke="#4646a5" points="373.527,-291.663 384.379,-293.236 378.333,-290.286 383.14,-288.91 383.14,-288.91 383.14,-288.91 378.333,-290.286 381.902,-284.584 373.527,-291.663 373.527,-291.663"/>
</g>
<!-- Status -->
<g id="node12" class="node"><title>Status</title>
<path fill="none" stroke="black" d="M165.172,-463.5C165.172,-463.5 274.183,-463.5 274.183,-463.5 280.183,-463.5 286.183,-469.5 286.183,-475.5 286.183,-475.5 286.183,-537.5 286.183,-537.5 286.183,-543.5 280.183,-549.5 274.183,-549.5 274.183,-549.5 165.172,-549.5 165.172,-549.5 159.172,-549.5 153.172,-543.5 153.172,-537.5 153.172,-537.5 153.172,-475.5 153.172,-475.5 153.172,-469.5 159.172,-463.5 165.172,-463.5"/>
<text text-anchor="middle" x="219.678" y="-534.3" font-family="Times,serif" font-size="14.00">Status</text>
<polyline fill="none" stroke="black" points="153.172,-527.5 286.183,-527.5 "/>
<text text-anchor="start" x="161.172" y="-512.3" font-family="Times,serif" font-size="14.00">id :integer</text>
<text text-anchor="start" x="161.172" y="-498.3" font-family="Times,serif" font-size="14.00">name :string</text>
<text text-anchor="start" x="161.172" y="-484.3" font-family="Times,serif" font-size="14.00">created_at :datetime</text>
<text text-anchor="start" x="161.172" y="-470.3" font-family="Times,serif" font-size="14.00">updated_at :datetime</text>
</g>
<!-- Status&#45;&gt;Order -->
<g id="edge14" class="edge"><title>Status&#45;&gt;Order</title>
<path fill="none" stroke="#490fcf" d="M251.015,-456.543C263.869,-438.003 279.518,-417.231 295.678,-400 319.656,-374.434 348.723,-349.273 375.177,-328.147"/>
<ellipse fill="none" stroke="#490fcf" cx="248.672" cy="-459.963" rx="4.00002" ry="4.00002"/>
<polygon fill="#490fcf" stroke="#490fcf" points="375.452,-327.929 386.086,-325.253 379.373,-324.827 383.294,-321.724 383.294,-321.724 383.294,-321.724 379.373,-324.827 380.502,-318.195 375.452,-327.929 375.452,-327.929"/>
</g>
<!-- Vendor -->
<g id="node15" class="node"><title>Vendor</title>
<path fill="none" stroke="black" d="M991.172,-649.5C991.172,-649.5 1100.18,-649.5 1100.18,-649.5 1106.18,-649.5 1112.18,-655.5 1112.18,-661.5 1112.18,-661.5 1112.18,-723.5 1112.18,-723.5 1112.18,-729.5 1106.18,-735.5 1100.18,-735.5 1100.18,-735.5 991.172,-735.5 991.172,-735.5 985.172,-735.5 979.172,-729.5 979.172,-723.5 979.172,-723.5 979.172,-661.5 979.172,-661.5 979.172,-655.5 985.172,-649.5 991.172,-649.5"/>
<text text-anchor="middle" x="1045.68" y="-720.3" font-family="Times,serif" font-size="14.00">Vendor</text>
<polyline fill="none" stroke="black" points="979.172,-713.5 1112.18,-713.5 "/>
<text text-anchor="start" x="987.172" y="-698.3" font-family="Times,serif" font-size="14.00">id :integer</text>
<text text-anchor="start" x="987.172" y="-684.3" font-family="Times,serif" font-size="14.00">name :string</text>
<text text-anchor="start" x="987.172" y="-670.3" font-family="Times,serif" font-size="14.00">created_at :datetime</text>
<text text-anchor="start" x="987.172" y="-656.3" font-family="Times,serif" font-size="14.00">updated_at :datetime</text>
</g>
<!-- Vendor&#45;&gt;Product -->
<g id="edge15" class="edge"><title>Vendor&#45;&gt;Product</title>
<path fill="none" stroke="#820732" d="M1025.27,-641.428C1019.3,-626.778 1012.59,-610.322 1005.97,-594.092"/>
<ellipse fill="none" stroke="#820732" cx="1026.96" cy="-645.583" rx="4.00001" ry="4.00001"/>
<polygon fill="#820732" stroke="#820732" points="1005.87,-593.838 1006.26,-582.879 1003.98,-589.208 1002.1,-584.578 1002.1,-584.578 1002.1,-584.578 1003.98,-589.208 997.928,-586.276 1005.87,-593.838 1005.87,-593.838"/>
</g>
</g>
</svg>
