<?xml version="1.0" encoding="UTF-8" standalone="no"?>
<!DOCTYPE svg PUBLIC "-//W3C//DTD SVG 1.1//EN"
 "http://www.w3.org/Graphics/SVG/1.1/DTD/svg11.dtd">
<!-- Generated by graphviz version 2.38.0 (20140413.2041)
 -->
<!-- Title: models_diagram Pages: 1 -->
<svg width="714pt" height="225pt"
 viewBox="0.00 0.00 714.42 225.00" xmlns="http://www.w3.org/2000/svg" xmlns:xlink="http://www.w3.org/1999/xlink">
<g id="graph0" class="graph" transform="scale(1 1) rotate(0) translate(4 221)">
<title>models_diagram</title>
<polygon fill="white" stroke="none" points="-4,4 -4,-221 710.415,-221 710.415,4 -4,4"/>
<!-- _diagram_info -->
<g id="node1" class="node"><title>_diagram_info</title>
<text text-anchor="start" x="8" y="-202.6" font-family="Times,serif" font-size="13.00">Models diagram</text>
<text text-anchor="start" x="8" y="-189.6" font-family="Times,serif" font-size="13.00">Date: Jun 07 2015 &#45; 12:59</text>
<text text-anchor="start" x="8" y="-176.6" font-family="Times,serif" font-size="13.00">Migration version: 20150607104300</text>
<text text-anchor="start" x="8" y="-163.6" font-family="Times,serif" font-size="13.00">Generated by RailRoady 1.3.0</text>
<text text-anchor="start" x="8" y="-150.6" font-family="Times,serif" font-size="13.00">http://railroady.prestonlee.com</text>
</g>
<!-- Category -->
<g id="node2" class="node"><title>Category</title>
<ellipse fill="none" stroke="black" cx="267.688" cy="-180.5" rx="42.5456" ry="18"/>
<text text-anchor="middle" x="267.688" y="-176.3" font-family="Times,serif" font-size="14.00">Category</text>
</g>
<!-- Product -->
<g id="node6" class="node"><title>Product</title>
<ellipse fill="none" stroke="black" cx="353.688" cy="-90" rx="37.7352" ry="18"/>
<text text-anchor="middle" x="353.688" y="-85.8" font-family="Times,serif" font-size="14.00">Product</text>
</g>
<!-- Category&#45;&gt;Product -->
<g id="edge1" class="edge"><title>Category&#45;&gt;Product</title>
<path fill="none" stroke="#e09e9e" d="M288.888,-157.684C301.733,-144.465 318.106,-127.616 331.181,-114.161"/>
<ellipse fill="none" stroke="#e09e9e" cx="285.85" cy="-160.809" rx="4.00002" ry="4.00002"/>
<polygon fill="#e09e9e" stroke="#e09e9e" points="331.477,-113.857 341.673,-109.821 334.961,-110.271 338.446,-106.685 338.446,-106.685 338.446,-106.685 334.961,-110.271 335.219,-103.549 331.477,-113.857 331.477,-113.857"/>
</g>
<!-- Image -->
<g id="node3" class="node"><title>Image</title>
<ellipse fill="none" stroke="black" cx="267.688" cy="-18" rx="32.4063" ry="18"/>
<text text-anchor="middle" x="267.688" y="-13.8" font-family="Times,serif" font-size="14.00">Image</text>
</g>
<!-- Order -->
<g id="node4" class="node"><title>Order</title>
<ellipse fill="none" stroke="black" cx="514.688" cy="-90" rx="30.9619" ry="18"/>
<text text-anchor="middle" x="514.688" y="-85.8" font-family="Times,serif" font-size="14.00">Order</text>
</g>
<!-- Unit -->
<g id="node11" class="node"><title>Unit</title>
<ellipse fill="none" stroke="black" cx="514.688" cy="-18" rx="27" ry="18"/>
<text text-anchor="middle" x="514.688" y="-13.8" font-family="Times,serif" font-size="14.00">Unit</text>
</g>
<!-- Order&#45;&gt;Unit -->
<g id="edge2" class="edge"><title>Order&#45;&gt;Unit</title>
<path fill="none" stroke="#b4b067" d="M514.688,-63.6398C514.688,-58.0629 514.688,-52.1319 514.688,-46.4761"/>
<ellipse fill="none" stroke="#b4b067" cx="514.688" cy="-67.6966" rx="4" ry="4"/>
<polygon fill="#b4b067" stroke="#b4b067" points="514.688,-46.1043 519.188,-36.1043 514.688,-41.1043 514.688,-36.1043 514.688,-36.1043 514.688,-36.1043 514.688,-41.1043 510.188,-36.1044 514.688,-46.1043 514.688,-46.1043"/>
</g>
<!-- Payment -->
<g id="node5" class="node"><title>Payment</title>
<ellipse fill="none" stroke="black" cx="477.688" cy="-180.5" rx="41.1093" ry="18"/>
<text text-anchor="middle" x="477.688" y="-176.3" font-family="Times,serif" font-size="14.00">Payment</text>
</g>
<!-- Payment&#45;&gt;Order -->
<g id="edge3" class="edge"><title>Payment&#45;&gt;Order</title>
<path fill="none" stroke="#b8889f" d="M487.945,-154.965C492.86,-143.209 498.751,-129.119 503.751,-117.159"/>
<ellipse fill="none" stroke="#b8889f" cx="486.365" cy="-158.746" rx="4.00002" ry="4.00002"/>
<polygon fill="#b8889f" stroke="#b8889f" points="503.844,-116.937 511.853,-109.447 505.772,-112.324 507.701,-107.711 507.701,-107.711 507.701,-107.711 505.772,-112.324 503.549,-105.975 503.844,-116.937 503.844,-116.937"/>
</g>
<!-- Product&#45;&gt;Image -->
<g id="edge7" class="edge"><title>Product&#45;&gt;Image</title>
<path fill="none" stroke="#31631a" d="M328.891,-68.8164C317.673,-59.6857 304.428,-48.9051 293.134,-39.7121"/>
<ellipse fill="none" stroke="#31631a" cx="332.347" cy="-71.6297" rx="4.00002" ry="4.00002"/>
<polygon fill="#31631a" stroke="#31631a" points="293.067,-39.6578 288.152,-29.855 289.189,-36.5014 285.312,-33.345 285.312,-33.345 285.312,-33.345 289.189,-36.5014 282.471,-36.8351 293.067,-39.6578 293.067,-39.6578"/>
</g>
<!-- Rate -->
<g id="node7" class="node"><title>Rate</title>
<ellipse fill="none" stroke="black" cx="344.688" cy="-18" rx="27" ry="18"/>
<text text-anchor="middle" x="344.688" y="-13.8" font-family="Times,serif" font-size="14.00">Rate</text>
</g>
<!-- Product&#45;&gt;Rate -->
<g id="edge6" class="edge"><title>Product&#45;&gt;Rate</title>
<path fill="none" stroke="#dc9288" d="M350.427,-63.6398C349.692,-57.92 348.908,-51.8276 348.165,-46.0416"/>
<ellipse fill="none" stroke="#dc9288" cx="350.953" cy="-67.7293" rx="4.00001" ry="4.00001"/>
<polygon fill="#dc9288" stroke="#dc9288" points="348.162,-46.0227 351.35,-35.5304 347.525,-41.0635 346.887,-36.1043 346.887,-36.1043 346.887,-36.1043 347.525,-41.0635 342.424,-36.6782 348.162,-46.0227 348.162,-46.0227"/>
</g>
<!-- Thought -->
<g id="node10" class="node"><title>Thought</title>
<ellipse fill="none" stroke="black" cx="429.688" cy="-18" rx="40.149" ry="18"/>
<text text-anchor="middle" x="429.688" y="-13.8" font-family="Times,serif" font-size="14.00">Thought</text>
</g>
<!-- Product&#45;&gt;Thought -->
<g id="edge5" class="edge"><title>Product&#45;&gt;Thought</title>
<path fill="none" stroke="#375df3" d="M376.1,-68.3576C385.322,-59.8632 396.026,-50.004 405.432,-41.3407"/>
<ellipse fill="none" stroke="#375df3" cx="373.121" cy="-71.1011" rx="4.00002" ry="4.00002"/>
<polygon fill="#375df3" stroke="#375df3" points="405.611,-41.1758 416.015,-37.711 409.289,-37.7884 412.967,-34.401 412.967,-34.401 412.967,-34.401 409.289,-37.7884 409.918,-31.0911 405.611,-41.1758 405.611,-41.1758"/>
</g>
<!-- Product&#45;&gt;Unit -->
<g id="edge4" class="edge"><title>Product&#45;&gt;Unit</title>
<path fill="none" stroke="#ec50c7" d="M389.109,-74.4265C414.226,-63.9844 448.665,-49.4472 478.688,-36 480.486,-35.1948 482.329,-34.3582 484.186,-33.5071"/>
<ellipse fill="none" stroke="#ec50c7" cx="385.323" cy="-75.9971" rx="4.00002" ry="4.00002"/>
<polygon fill="#ec50c7" stroke="#ec50c7" points="484.364,-33.4245 495.329,-33.2909 488.898,-31.3173 493.433,-29.2101 493.433,-29.2101 493.433,-29.2101 488.898,-31.3173 491.536,-25.1292 484.364,-33.4245 484.364,-33.4245"/>
</g>
<!-- Shipment -->
<g id="node8" class="node"><title>Shipment</title>
<ellipse fill="none" stroke="black" cx="580.688" cy="-180.5" rx="44.0164" ry="18"/>
<text text-anchor="middle" x="580.688" y="-176.3" font-family="Times,serif" font-size="14.00">Shipment</text>
</g>
<!-- Shipment&#45;&gt;Order -->
<g id="edge8" class="edge"><title>Shipment&#45;&gt;Order</title>
<path fill="none" stroke="#b31662" d="M563.191,-156.038C553.737,-143.361 542.086,-127.738 532.573,-114.982"/>
<ellipse fill="none" stroke="#b31662" cx="565.882" cy="-159.647" rx="4.00002" ry="4.00002"/>
<polygon fill="#b31662" stroke="#b31662" points="532.36,-114.697 529.989,-103.99 529.371,-110.688 526.382,-106.68 526.382,-106.68 526.382,-106.68 529.371,-110.688 522.774,-109.371 532.36,-114.697 532.36,-114.697"/>
</g>
<!-- Status -->
<g id="node9" class="node"><title>Status</title>
<ellipse fill="none" stroke="black" cx="674.688" cy="-180.5" rx="31.9567" ry="18"/>
<text text-anchor="middle" x="674.688" y="-176.3" font-family="Times,serif" font-size="14.00">Status</text>
</g>
<!-- Vendor -->
<g id="node12" class="node"><title>Vendor</title>
<ellipse fill="none" stroke="black" cx="363.688" cy="-180.5" rx="35.7974" ry="18"/>
<text text-anchor="middle" x="363.688" y="-176.3" font-family="Times,serif" font-size="14.00">Vendor</text>
</g>
<!-- Vendor&#45;&gt;Product -->
<g id="edge9" class="edge"><title>Vendor&#45;&gt;Product</title>
<path fill="none" stroke="#12b007" d="M360.828,-154.189C359.547,-142.855 358.036,-129.479 356.734,-117.958"/>
<ellipse fill="none" stroke="#12b007" cx="361.31" cy="-158.462" rx="4.00001" ry="4.00001"/>
<polygon fill="#12b007" stroke="#12b007" points="356.733,-117.948 360.081,-107.506 356.171,-112.98 355.61,-108.011 355.61,-108.011 355.61,-108.011 356.171,-112.98 351.138,-108.517 356.733,-117.948 356.733,-117.948"/>
</g>
</g>
</svg>
