<?xml version="1.0" encoding="UTF-8" standalone="no"?>
<!DOCTYPE svg PUBLIC "-//W3C//DTD SVG 1.1//EN"
 "http://www.w3.org/Graphics/SVG/1.1/DTD/svg11.dtd">
<!-- Generated by graphviz version 2.38.0 (20140413.2041)
 -->
<!-- Title: models_diagram Pages: 1 -->
<svg width="1385pt" height="814pt"
 viewBox="0.00 0.00 1385.19 814.00" xmlns="http://www.w3.org/2000/svg" xmlns:xlink="http://www.w3.org/1999/xlink">
<g id="graph0" class="graph" transform="scale(1 1) rotate(0) translate(4 810)">
<title>models_diagram</title>
<polygon fill="white" stroke="none" points="-4,4 -4,-810 1381.19,-810 1381.19,4 -4,4"/>
<!-- _diagram_info -->
<g id="node1" class="node"><title>_diagram_info</title>
<text text-anchor="start" x="8" y="-777.6" font-family="Times,serif" font-size="13.00">Models diagram</text>
<text text-anchor="start" x="8" y="-764.6" font-family="Times,serif" font-size="13.00">Date: Jun 07 2015 &#45; 20:54</text>
<text text-anchor="start" x="8" y="-751.6" font-family="Times,serif" font-size="13.00">Migration version: 20150607184923</text>
<text text-anchor="start" x="8" y="-738.6" font-family="Times,serif" font-size="13.00">Generated by RailRoady 1.3.0</text>
<text text-anchor="start" x="8" y="-725.6" font-family="Times,serif" font-size="13.00">http://railroady.prestonlee.com</text>
</g>
<!-- Category -->
<g id="node2" class="node"><title>Category</title>
<path fill="none" stroke="black" d="M1105.18,-712.5C1105.18,-712.5 1214.19,-712.5 1214.19,-712.5 1220.19,-712.5 1226.19,-718.5 1226.19,-724.5 1226.19,-724.5 1226.19,-786.5 1226.19,-786.5 1226.19,-792.5 1220.19,-798.5 1214.19,-798.5 1214.19,-798.5 1105.18,-798.5 1105.18,-798.5 1099.18,-798.5 1093.18,-792.5 1093.18,-786.5 1093.18,-786.5 1093.18,-724.5 1093.18,-724.5 1093.18,-718.5 1099.18,-712.5 1105.18,-712.5"/>
<text text-anchor="middle" x="1159.69" y="-783.3" font-family="Times,serif" font-size="14.00">Category</text>
<polyline fill="none" stroke="black" points="1093.18,-776.5 1226.19,-776.5 "/>
<text text-anchor="start" x="1101.18" y="-761.3" font-family="Times,serif" font-size="14.00">id :integer</text>
<text text-anchor="start" x="1101.18" y="-747.3" font-family="Times,serif" font-size="14.00">name :string</text>
<text text-anchor="start" x="1101.18" y="-733.3" font-family="Times,serif" font-size="14.00">created_at :datetime</text>
<text text-anchor="start" x="1101.18" y="-719.3" font-family="Times,serif" font-size="14.00">updated_at :datetime</text>
</g>
<!-- Product -->
<g id="node10" class="node"><title>Product</title>
<path fill="none" stroke="black" d="M1181.18,-456.5C1181.18,-456.5 1290.19,-456.5 1290.19,-456.5 1296.19,-456.5 1302.19,-462.5 1302.19,-468.5 1302.19,-468.5 1302.19,-600.5 1302.19,-600.5 1302.19,-606.5 1296.19,-612.5 1290.19,-612.5 1290.19,-612.5 1181.18,-612.5 1181.18,-612.5 1175.18,-612.5 1169.18,-606.5 1169.18,-600.5 1169.18,-600.5 1169.18,-468.5 1169.18,-468.5 1169.18,-462.5 1175.18,-456.5 1181.18,-456.5"/>
<text text-anchor="middle" x="1235.69" y="-597.3" font-family="Times,serif" font-size="14.00">Product</text>
<polyline fill="none" stroke="black" points="1169.18,-590.5 1302.19,-590.5 "/>
<text text-anchor="start" x="1177.18" y="-575.3" font-family="Times,serif" font-size="14.00">id :integer</text>
<text text-anchor="start" x="1177.18" y="-561.3" font-family="Times,serif" font-size="14.00">category_id :integer</text>
<text text-anchor="start" x="1177.18" y="-547.3" font-family="Times,serif" font-size="14.00">vendor_id :integer</text>
<text text-anchor="start" x="1177.18" y="-533.3" font-family="Times,serif" font-size="14.00">name :string</text>
<text text-anchor="start" x="1177.18" y="-519.3" font-family="Times,serif" font-size="14.00">netto_price :float</text>
<text text-anchor="start" x="1177.18" y="-505.3" font-family="Times,serif" font-size="14.00">vat :float</text>
<text text-anchor="start" x="1177.18" y="-491.3" font-family="Times,serif" font-size="14.00">description :text</text>
<text text-anchor="start" x="1177.18" y="-477.3" font-family="Times,serif" font-size="14.00">created_at :datetime</text>
<text text-anchor="start" x="1177.18" y="-463.3" font-family="Times,serif" font-size="14.00">updated_at :datetime</text>
</g>
<!-- Category&#45;&gt;Product -->
<g id="edge1" class="edge"><title>Category&#45;&gt;Product</title>
<path fill="none" stroke="#7c92ec" d="M1177.06,-704.444C1185.49,-680.143 1195.87,-650.236 1205.54,-622.373"/>
<ellipse fill="none" stroke="#7c92ec" cx="1175.65" cy="-708.496" rx="4.00001" ry="4.00001"/>
<polygon fill="#7c92ec" stroke="#7c92ec" points="1205.65,-622.062 1213.18,-614.09 1207.29,-617.339 1208.93,-612.615 1208.93,-612.615 1208.93,-612.615 1207.29,-617.339 1204.68,-611.14 1205.65,-622.062 1205.65,-622.062"/>
</g>
<!-- Client -->
<g id="node3" class="node"><title>Client</title>
<path fill="none" stroke="black" d="M958.41,-407.5C958.41,-407.5 1138.97,-407.5 1138.97,-407.5 1144.97,-407.5 1150.97,-413.5 1150.97,-419.5 1150.97,-419.5 1150.97,-649.5 1150.97,-649.5 1150.97,-655.5 1144.97,-661.5 1138.97,-661.5 1138.97,-661.5 958.41,-661.5 958.41,-661.5 952.41,-661.5 946.41,-655.5 946.41,-649.5 946.41,-649.5 946.41,-419.5 946.41,-419.5 946.41,-413.5 952.41,-407.5 958.41,-407.5"/>
<text text-anchor="middle" x="1048.69" y="-646.3" font-family="Times,serif" font-size="14.00">Client</text>
<polyline fill="none" stroke="black" points="946.41,-639.5 1150.97,-639.5 "/>
<text text-anchor="start" x="954.41" y="-624.3" font-family="Times,serif" font-size="14.00">id :integer</text>
<text text-anchor="start" x="954.41" y="-610.3" font-family="Times,serif" font-size="14.00">email :string</text>
<text text-anchor="start" x="954.41" y="-596.3" font-family="Times,serif" font-size="14.00">encrypted_password :string</text>
<text text-anchor="start" x="954.41" y="-582.3" font-family="Times,serif" font-size="14.00">reset_password_token :string</text>
<text text-anchor="start" x="954.41" y="-568.3" font-family="Times,serif" font-size="14.00">reset_password_sent_at :datetime</text>
<text text-anchor="start" x="954.41" y="-554.3" font-family="Times,serif" font-size="14.00">remember_created_at :datetime</text>
<text text-anchor="start" x="954.41" y="-540.3" font-family="Times,serif" font-size="14.00">sign_in_count :integer</text>
<text text-anchor="start" x="954.41" y="-526.3" font-family="Times,serif" font-size="14.00">current_sign_in_at :datetime</text>
<text text-anchor="start" x="954.41" y="-512.3" font-family="Times,serif" font-size="14.00">last_sign_in_at :datetime</text>
<text text-anchor="start" x="954.41" y="-498.3" font-family="Times,serif" font-size="14.00">current_sign_in_ip :string</text>
<text text-anchor="start" x="954.41" y="-484.3" font-family="Times,serif" font-size="14.00">last_sign_in_ip :string</text>
<text text-anchor="start" x="954.41" y="-470.3" font-family="Times,serif" font-size="14.00">first_name :string</text>
<text text-anchor="start" x="954.41" y="-456.3" font-family="Times,serif" font-size="14.00">last_name :string</text>
<text text-anchor="start" x="954.41" y="-442.3" font-family="Times,serif" font-size="14.00">address :string</text>
<text text-anchor="start" x="954.41" y="-428.3" font-family="Times,serif" font-size="14.00">created_at :datetime</text>
<text text-anchor="start" x="954.41" y="-414.3" font-family="Times,serif" font-size="14.00">updated_at :datetime</text>
</g>
<!-- Order -->
<g id="node6" class="node"><title>Order</title>
<path fill="none" stroke="black" d="M640.403,-179.5C640.403,-179.5 750.972,-179.5 750.972,-179.5 756.972,-179.5 762.972,-185.5 762.972,-191.5 762.972,-191.5 762.972,-351.5 762.972,-351.5 762.972,-357.5 756.972,-363.5 750.972,-363.5 750.972,-363.5 640.403,-363.5 640.403,-363.5 634.403,-363.5 628.403,-357.5 628.403,-351.5 628.403,-351.5 628.403,-191.5 628.403,-191.5 628.403,-185.5 634.403,-179.5 640.403,-179.5"/>
<text text-anchor="middle" x="695.688" y="-348.3" font-family="Times,serif" font-size="14.00">Order</text>
<polyline fill="none" stroke="black" points="628.403,-341.5 762.972,-341.5 "/>
<text text-anchor="start" x="636.403" y="-326.3" font-family="Times,serif" font-size="14.00">id :integer</text>
<text text-anchor="start" x="636.403" y="-312.3" font-family="Times,serif" font-size="14.00">client_id :integer</text>
<text text-anchor="start" x="636.403" y="-298.3" font-family="Times,serif" font-size="14.00">employee_id :integer</text>
<text text-anchor="start" x="636.403" y="-284.3" font-family="Times,serif" font-size="14.00">status_id :integer</text>
<text text-anchor="start" x="636.403" y="-270.3" font-family="Times,serif" font-size="14.00">shipment_id :integer</text>
<text text-anchor="start" x="636.403" y="-256.3" font-family="Times,serif" font-size="14.00">payment_id :integer</text>
<text text-anchor="start" x="636.403" y="-242.3" font-family="Times,serif" font-size="14.00">redeem_code :string</text>
<text text-anchor="start" x="636.403" y="-228.3" font-family="Times,serif" font-size="14.00">cost :float</text>
<text text-anchor="start" x="636.403" y="-214.3" font-family="Times,serif" font-size="14.00">extra_info :text</text>
<text text-anchor="start" x="636.403" y="-200.3" font-family="Times,serif" font-size="14.00">created_at :datetime</text>
<text text-anchor="start" x="636.403" y="-186.3" font-family="Times,serif" font-size="14.00">updated_at :datetime</text>
</g>
<!-- Client&#45;&gt;Order -->
<g id="edge2" class="edge"><title>Client&#45;&gt;Order</title>
<path fill="none" stroke="#2da89d" d="M941.112,-402.447C939.976,-401.617 938.834,-400.801 937.688,-400 898.621,-372.708 879.41,-385.114 836.688,-364 814.729,-353.148 792.012,-339.575 771.395,-326.233"/>
<ellipse fill="none" stroke="#2da89d" cx="944.376" cy="-404.927" rx="4.00002" ry="4.00002"/>
<polygon fill="#2da89d" stroke="#2da89d" points="771.367,-326.216 765.464,-316.974 767.184,-323.478 763,-320.74 763,-320.74 763,-320.74 767.184,-323.478 760.536,-324.505 771.367,-326.216 771.367,-326.216"/>
</g>
<!-- Rate -->
<g id="node11" class="node"><title>Rate</title>
<path fill="none" stroke="black" d="M1009.18,-214.5C1009.18,-214.5 1118.19,-214.5 1118.19,-214.5 1124.19,-214.5 1130.19,-220.5 1130.19,-226.5 1130.19,-226.5 1130.19,-316.5 1130.19,-316.5 1130.19,-322.5 1124.19,-328.5 1118.19,-328.5 1118.19,-328.5 1009.18,-328.5 1009.18,-328.5 1003.18,-328.5 997.182,-322.5 997.182,-316.5 997.182,-316.5 997.182,-226.5 997.182,-226.5 997.182,-220.5 1003.18,-214.5 1009.18,-214.5"/>
<text text-anchor="middle" x="1063.69" y="-313.3" font-family="Times,serif" font-size="14.00">Rate</text>
<polyline fill="none" stroke="black" points="997.182,-306.5 1130.19,-306.5 "/>
<text text-anchor="start" x="1005.18" y="-291.3" font-family="Times,serif" font-size="14.00">id :integer</text>
<text text-anchor="start" x="1005.18" y="-277.3" font-family="Times,serif" font-size="14.00">product_id :integer</text>
<text text-anchor="start" x="1005.18" y="-263.3" font-family="Times,serif" font-size="14.00">client_id :integer</text>
<text text-anchor="start" x="1005.18" y="-249.3" font-family="Times,serif" font-size="14.00">rate :integer</text>
<text text-anchor="start" x="1005.18" y="-235.3" font-family="Times,serif" font-size="14.00">created_at :datetime</text>
<text text-anchor="start" x="1005.18" y="-221.3" font-family="Times,serif" font-size="14.00">updated_at :datetime</text>
</g>
<!-- Client&#45;&gt;Rate -->
<g id="edge4" class="edge"><title>Client&#45;&gt;Rate</title>
<path fill="none" stroke="#5f8946" d="M1056.41,-399.121C1057.62,-378.117 1058.82,-357.248 1059.88,-338.691"/>
<ellipse fill="none" stroke="#5f8946" cx="1056.18" cy="-403.212" rx="4" ry="4"/>
<polygon fill="#5f8946" stroke="#5f8946" points="1059.89,-338.617 1064.95,-328.892 1060.17,-333.626 1060.46,-328.634 1060.46,-328.634 1060.46,-328.634 1060.17,-333.626 1055.97,-328.376 1059.89,-338.617 1059.89,-338.617"/>
</g>
<!-- Thought -->
<g id="node15" class="node"><title>Thought</title>
<path fill="none" stroke="black" d="M858.182,-214.5C858.182,-214.5 967.193,-214.5 967.193,-214.5 973.193,-214.5 979.193,-220.5 979.193,-226.5 979.193,-226.5 979.193,-316.5 979.193,-316.5 979.193,-322.5 973.193,-328.5 967.193,-328.5 967.193,-328.5 858.182,-328.5 858.182,-328.5 852.182,-328.5 846.182,-322.5 846.182,-316.5 846.182,-316.5 846.182,-226.5 846.182,-226.5 846.182,-220.5 852.182,-214.5 858.182,-214.5"/>
<text text-anchor="middle" x="912.688" y="-313.3" font-family="Times,serif" font-size="14.00">Thought</text>
<polyline fill="none" stroke="black" points="846.182,-306.5 979.193,-306.5 "/>
<text text-anchor="start" x="854.182" y="-291.3" font-family="Times,serif" font-size="14.00">id :integer</text>
<text text-anchor="start" x="854.182" y="-277.3" font-family="Times,serif" font-size="14.00">product_id :integer</text>
<text text-anchor="start" x="854.182" y="-263.3" font-family="Times,serif" font-size="14.00">client_id :integer</text>
<text text-anchor="start" x="854.182" y="-249.3" font-family="Times,serif" font-size="14.00">body :text</text>
<text text-anchor="start" x="854.182" y="-235.3" font-family="Times,serif" font-size="14.00">created_at :datetime</text>
<text text-anchor="start" x="854.182" y="-221.3" font-family="Times,serif" font-size="14.00">updated_at :datetime</text>
</g>
<!-- Client&#45;&gt;Thought -->
<g id="edge3" class="edge"><title>Client&#45;&gt;Thought</title>
<path fill="none" stroke="#89f24e" d="M979.172,-400.091C967.827,-378.318 956.538,-356.653 946.569,-337.523"/>
<ellipse fill="none" stroke="#89f24e" cx="981.03" cy="-403.658" rx="4.00002" ry="4.00002"/>
<polygon fill="#89f24e" stroke="#89f24e" points="946.559,-337.502 945.928,-326.554 944.248,-333.068 941.938,-328.634 941.938,-328.634 941.938,-328.634 944.248,-333.068 937.947,-330.713 946.559,-337.502 946.559,-337.502"/>
</g>
<!-- Employee -->
<g id="node4" class="node"><title>Employee</title>
<path fill="none" stroke="black" d="M540.41,-400.5C540.41,-400.5 720.966,-400.5 720.966,-400.5 726.966,-400.5 732.966,-406.5 732.966,-412.5 732.966,-412.5 732.966,-656.5 732.966,-656.5 732.966,-662.5 726.966,-668.5 720.966,-668.5 720.966,-668.5 540.41,-668.5 540.41,-668.5 534.41,-668.5 528.41,-662.5 528.41,-656.5 528.41,-656.5 528.41,-412.5 528.41,-412.5 528.41,-406.5 534.41,-400.5 540.41,-400.5"/>
<text text-anchor="middle" x="630.688" y="-653.3" font-family="Times,serif" font-size="14.00">Employee</text>
<polyline fill="none" stroke="black" points="528.41,-646.5 732.966,-646.5 "/>
<text text-anchor="start" x="536.41" y="-631.3" font-family="Times,serif" font-size="14.00">id :integer</text>
<text text-anchor="start" x="536.41" y="-617.3" font-family="Times,serif" font-size="14.00">email :string</text>
<text text-anchor="start" x="536.41" y="-603.3" font-family="Times,serif" font-size="14.00">encrypted_password :string</text>
<text text-anchor="start" x="536.41" y="-589.3" font-family="Times,serif" font-size="14.00">reset_password_token :string</text>
<text text-anchor="start" x="536.41" y="-575.3" font-family="Times,serif" font-size="14.00">reset_password_sent_at :datetime</text>
<text text-anchor="start" x="536.41" y="-561.3" font-family="Times,serif" font-size="14.00">remember_created_at :datetime</text>
<text text-anchor="start" x="536.41" y="-547.3" font-family="Times,serif" font-size="14.00">sign_in_count :integer</text>
<text text-anchor="start" x="536.41" y="-533.3" font-family="Times,serif" font-size="14.00">current_sign_in_at :datetime</text>
<text text-anchor="start" x="536.41" y="-519.3" font-family="Times,serif" font-size="14.00">last_sign_in_at :datetime</text>
<text text-anchor="start" x="536.41" y="-505.3" font-family="Times,serif" font-size="14.00">current_sign_in_ip :string</text>
<text text-anchor="start" x="536.41" y="-491.3" font-family="Times,serif" font-size="14.00">last_sign_in_ip :string</text>
<text text-anchor="start" x="536.41" y="-477.3" font-family="Times,serif" font-size="14.00">birthdate :datetime</text>
<text text-anchor="start" x="536.41" y="-463.3" font-family="Times,serif" font-size="14.00">first_name :string</text>
<text text-anchor="start" x="536.41" y="-449.3" font-family="Times,serif" font-size="14.00">last_name :string</text>
<text text-anchor="start" x="536.41" y="-435.3" font-family="Times,serif" font-size="14.00">address :string</text>
<text text-anchor="start" x="536.41" y="-421.3" font-family="Times,serif" font-size="14.00">created_at :datetime</text>
<text text-anchor="start" x="536.41" y="-407.3" font-family="Times,serif" font-size="14.00">updated_at :datetime</text>
</g>
<!-- Employee&#45;&gt;Order -->
<g id="edge5" class="edge"><title>Employee&#45;&gt;Order</title>
<path fill="none" stroke="#e18373" d="M665.813,-392.459C667.413,-386.034 669.005,-379.643 670.572,-373.349"/>
<ellipse fill="none" stroke="#e18373" cx="664.821" cy="-396.442" rx="4.00001" ry="4.00001"/>
<polygon fill="#e18373" stroke="#e18373" points="670.596,-373.252 677.38,-364.636 671.805,-368.4 673.013,-363.548 673.013,-363.548 673.013,-363.548 671.805,-368.4 668.646,-362.461 670.596,-373.252 670.596,-373.252"/>
</g>
<!-- Image -->
<g id="node5" class="node"><title>Image</title>
<path fill="none" stroke="black" d="M1160.58,-200.5C1160.58,-200.5 1310.8,-200.5 1310.8,-200.5 1316.8,-200.5 1322.8,-206.5 1322.8,-212.5 1322.8,-212.5 1322.8,-330.5 1322.8,-330.5 1322.8,-336.5 1316.8,-342.5 1310.8,-342.5 1310.8,-342.5 1160.58,-342.5 1160.58,-342.5 1154.58,-342.5 1148.58,-336.5 1148.58,-330.5 1148.58,-330.5 1148.58,-212.5 1148.58,-212.5 1148.58,-206.5 1154.58,-200.5 1160.58,-200.5"/>
<text text-anchor="middle" x="1235.69" y="-327.3" font-family="Times,serif" font-size="14.00">Image</text>
<polyline fill="none" stroke="black" points="1148.58,-320.5 1322.8,-320.5 "/>
<text text-anchor="start" x="1156.58" y="-305.3" font-family="Times,serif" font-size="14.00">id :integer</text>
<text text-anchor="start" x="1156.58" y="-291.3" font-family="Times,serif" font-size="14.00">product_id :integer</text>
<text text-anchor="start" x="1156.58" y="-277.3" font-family="Times,serif" font-size="14.00">created_at :datetime</text>
<text text-anchor="start" x="1156.58" y="-263.3" font-family="Times,serif" font-size="14.00">updated_at :datetime</text>
<text text-anchor="start" x="1156.58" y="-249.3" font-family="Times,serif" font-size="14.00">image_file_name :string</text>
<text text-anchor="start" x="1156.58" y="-235.3" font-family="Times,serif" font-size="14.00">image_content_type :string</text>
<text text-anchor="start" x="1156.58" y="-221.3" font-family="Times,serif" font-size="14.00">image_file_size :integer</text>
<text text-anchor="start" x="1156.58" y="-207.3" font-family="Times,serif" font-size="14.00">image_updated_at :datetime</text>
</g>
<!-- Unit -->
<g id="node16" class="node"><title>Unit</title>
<path fill="none" stroke="black" d="M1001.18,-0.5C1001.18,-0.5 1110.19,-0.5 1110.19,-0.5 1116.19,-0.5 1122.19,-6.5 1122.19,-12.5 1122.19,-12.5 1122.19,-130.5 1122.19,-130.5 1122.19,-136.5 1116.19,-142.5 1110.19,-142.5 1110.19,-142.5 1001.18,-142.5 1001.18,-142.5 995.182,-142.5 989.182,-136.5 989.182,-130.5 989.182,-130.5 989.182,-12.5 989.182,-12.5 989.182,-6.5 995.182,-0.5 1001.18,-0.5"/>
<text text-anchor="middle" x="1055.69" y="-127.3" font-family="Times,serif" font-size="14.00">Unit</text>
<polyline fill="none" stroke="black" points="989.182,-120.5 1122.19,-120.5 "/>
<text text-anchor="start" x="997.182" y="-105.3" font-family="Times,serif" font-size="14.00">id :integer</text>
<text text-anchor="start" x="997.182" y="-91.3" font-family="Times,serif" font-size="14.00">product_id :integer</text>
<text text-anchor="start" x="997.182" y="-77.3" font-family="Times,serif" font-size="14.00">order_id :integer</text>
<text text-anchor="start" x="997.182" y="-63.3" font-family="Times,serif" font-size="14.00">netto_price :float</text>
<text text-anchor="start" x="997.182" y="-49.3" font-family="Times,serif" font-size="14.00">vat :float</text>
<text text-anchor="start" x="997.182" y="-35.3" font-family="Times,serif" font-size="14.00">sold_at :datetime</text>
<text text-anchor="start" x="997.182" y="-21.3" font-family="Times,serif" font-size="14.00">created_at :datetime</text>
<text text-anchor="start" x="997.182" y="-7.3" font-family="Times,serif" font-size="14.00">updated_at :datetime</text>
</g>
<!-- Order&#45;&gt;Unit -->
<g id="edge6" class="edge"><title>Order&#45;&gt;Unit</title>
<path fill="none" stroke="#d3a1d1" d="M769.945,-219.88C791.175,-206.078 814.562,-191.496 836.688,-179 883.159,-152.753 937.051,-126.495 979.746,-106.619"/>
<ellipse fill="none" stroke="#d3a1d1" cx="766.481" cy="-222.143" rx="4.00002" ry="4.00002"/>
<polygon fill="#d3a1d1" stroke="#d3a1d1" points="979.883,-106.555 990.849,-106.432 984.42,-104.452 988.956,-102.349 988.956,-102.349 988.956,-102.349 984.42,-104.452 987.063,-98.2668 979.883,-106.555 979.883,-106.555"/>
</g>
<!-- Payment -->
<g id="node7" class="node"><title>Payment</title>
<path fill="none" stroke="black" d="M763.013,-477.5C763.013,-477.5 916.362,-477.5 916.362,-477.5 922.362,-477.5 928.362,-483.5 928.362,-489.5 928.362,-489.5 928.362,-579.5 928.362,-579.5 928.362,-585.5 922.362,-591.5 916.362,-591.5 916.362,-591.5 763.013,-591.5 763.013,-591.5 757.013,-591.5 751.013,-585.5 751.013,-579.5 751.013,-579.5 751.013,-489.5 751.013,-489.5 751.013,-483.5 757.013,-477.5 763.013,-477.5"/>
<text text-anchor="middle" x="839.688" y="-576.3" font-family="Times,serif" font-size="14.00">Payment</text>
<polyline fill="none" stroke="black" points="751.013,-569.5 928.362,-569.5 "/>
<text text-anchor="start" x="759.013" y="-554.3" font-family="Times,serif" font-size="14.00">id :integer</text>
<text text-anchor="start" x="759.013" y="-540.3" font-family="Times,serif" font-size="14.00">payment_method_id :integer</text>
<text text-anchor="start" x="759.013" y="-526.3" font-family="Times,serif" font-size="14.00">is_complete :boolean</text>
<text text-anchor="start" x="759.013" y="-512.3" font-family="Times,serif" font-size="14.00">amount :float</text>
<text text-anchor="start" x="759.013" y="-498.3" font-family="Times,serif" font-size="14.00">created_at :datetime</text>
<text text-anchor="start" x="759.013" y="-484.3" font-family="Times,serif" font-size="14.00">updated_at :datetime</text>
</g>
<!-- Payment&#45;&gt;Order -->
<g id="edge7" class="edge"><title>Payment&#45;&gt;Order</title>
<path fill="none" stroke="#bca060" d="M804.69,-470.066C788.566,-440.842 769.043,-405.456 750.999,-372.753"/>
<ellipse fill="none" stroke="#bca060" cx="806.687" cy="-473.686" rx="4.00002" ry="4.00002"/>
<polygon fill="#bca060" stroke="#bca060" points="750.784,-372.363 749.894,-361.433 748.369,-367.985 745.954,-363.607 745.954,-363.607 745.954,-363.607 748.369,-367.985 742.014,-365.781 750.784,-372.363 750.784,-372.363"/>
</g>
<!-- PaymentMethod -->
<g id="node8" class="node"><title>PaymentMethod</title>
<path fill="none" stroke="black" d="M785.182,-712.5C785.182,-712.5 894.193,-712.5 894.193,-712.5 900.193,-712.5 906.193,-718.5 906.193,-724.5 906.193,-724.5 906.193,-786.5 906.193,-786.5 906.193,-792.5 900.193,-798.5 894.193,-798.5 894.193,-798.5 785.182,-798.5 785.182,-798.5 779.182,-798.5 773.182,-792.5 773.182,-786.5 773.182,-786.5 773.182,-724.5 773.182,-724.5 773.182,-718.5 779.182,-712.5 785.182,-712.5"/>
<text text-anchor="middle" x="839.688" y="-783.3" font-family="Times,serif" font-size="14.00">PaymentMethod</text>
<polyline fill="none" stroke="black" points="773.182,-776.5 906.193,-776.5 "/>
<text text-anchor="start" x="781.182" y="-761.3" font-family="Times,serif" font-size="14.00">id :integer</text>
<text text-anchor="start" x="781.182" y="-747.3" font-family="Times,serif" font-size="14.00">name :string</text>
<text text-anchor="start" x="781.182" y="-733.3" font-family="Times,serif" font-size="14.00">created_at :datetime</text>
<text text-anchor="start" x="781.182" y="-719.3" font-family="Times,serif" font-size="14.00">updated_at :datetime</text>
</g>
<!-- PaymentMethod&#45;&gt;Payment -->
<g id="edge8" class="edge"><title>PaymentMethod&#45;&gt;Payment</title>
<path fill="none" stroke="#d46558" d="M839.688,-703.983C839.688,-673.706 839.688,-634.854 839.688,-602.09"/>
<ellipse fill="none" stroke="#d46558" cx="839.688" cy="-708.275" rx="4" ry="4"/>
<polygon fill="#d46558" stroke="#d46558" points="839.688,-601.685 844.188,-591.685 839.688,-596.685 839.688,-591.685 839.688,-591.685 839.688,-591.685 839.688,-596.685 835.188,-591.685 839.688,-601.685 839.688,-601.685"/>
</g>
<!-- Position -->
<g id="node9" class="node"><title>Position</title>
<path fill="none" stroke="black" d="M576.182,-712.5C576.182,-712.5 685.193,-712.5 685.193,-712.5 691.193,-712.5 697.193,-718.5 697.193,-724.5 697.193,-724.5 697.193,-786.5 697.193,-786.5 697.193,-792.5 691.193,-798.5 685.193,-798.5 685.193,-798.5 576.182,-798.5 576.182,-798.5 570.182,-798.5 564.182,-792.5 564.182,-786.5 564.182,-786.5 564.182,-724.5 564.182,-724.5 564.182,-718.5 570.182,-712.5 576.182,-712.5"/>
<text text-anchor="middle" x="630.688" y="-783.3" font-family="Times,serif" font-size="14.00">Position</text>
<polyline fill="none" stroke="black" points="564.182,-776.5 697.193,-776.5 "/>
<text text-anchor="start" x="572.182" y="-761.3" font-family="Times,serif" font-size="14.00">id :integer</text>
<text text-anchor="start" x="572.182" y="-747.3" font-family="Times,serif" font-size="14.00">name :string</text>
<text text-anchor="start" x="572.182" y="-733.3" font-family="Times,serif" font-size="14.00">created_at :datetime</text>
<text text-anchor="start" x="572.182" y="-719.3" font-family="Times,serif" font-size="14.00">updated_at :datetime</text>
</g>
<!-- Position&#45;&gt;Employee -->
<g id="edge9" class="edge"><title>Position&#45;&gt;Employee</title>
<path fill="none" stroke="#091697" d="M630.688,-704.156C630.688,-696.224 630.688,-687.7 630.688,-678.849"/>
<ellipse fill="none" stroke="#091697" cx="630.688" cy="-708.275" rx="4" ry="4"/>
<polygon fill="#091697" stroke="#091697" points="630.688,-678.731 635.188,-668.731 630.688,-673.731 630.688,-668.731 630.688,-668.731 630.688,-668.731 630.688,-673.731 626.188,-668.731 630.688,-678.731 630.688,-678.731"/>
</g>
<!-- Product&#45;&gt;Image -->
<g id="edge13" class="edge"><title>Product&#45;&gt;Image</title>
<path fill="none" stroke="#f41105" d="M1235.69,-448.15C1235.69,-417.53 1235.69,-383.127 1235.69,-352.937"/>
<ellipse fill="none" stroke="#f41105" cx="1235.69" cy="-452.251" rx="4" ry="4"/>
<polygon fill="#f41105" stroke="#f41105" points="1235.69,-352.872 1240.19,-342.872 1235.69,-347.872 1235.69,-342.872 1235.69,-342.872 1235.69,-342.872 1235.69,-347.872 1231.19,-342.872 1235.69,-352.872 1235.69,-352.872"/>
</g>
<!-- Product&#45;&gt;Rate -->
<g id="edge12" class="edge"><title>Product&#45;&gt;Rate</title>
<path fill="none" stroke="#02124a" d="M1189.87,-449.193C1180.27,-432.651 1169.94,-415.601 1159.69,-400 1145.78,-378.835 1129.56,-356.529 1114.46,-336.596"/>
<ellipse fill="none" stroke="#02124a" cx="1191.93" cy="-452.779" rx="4.00002" ry="4.00002"/>
<polygon fill="#02124a" stroke="#02124a" points="1114.35,-336.454 1111.87,-325.773 1111.32,-332.478 1108.29,-328.501 1108.29,-328.501 1108.29,-328.501 1111.32,-332.478 1104.71,-331.229 1114.35,-336.454 1114.35,-336.454"/>
</g>
<!-- Product&#45;&gt;Thought -->
<g id="edge11" class="edge"><title>Product&#45;&gt;Thought</title>
<path fill="none" stroke="#8e7547" d="M1201.9,-449.014C1190.93,-430.465 1177,-412.619 1159.69,-400 1096.57,-354 1054.46,-404.506 987.688,-364 975.817,-356.799 964.987,-347.022 955.474,-336.531"/>
<ellipse fill="none" stroke="#8e7547" cx="1204.14" cy="-452.95" rx="4.00002" ry="4.00002"/>
<polygon fill="#8e7547" stroke="#8e7547" points="955.324,-336.358 952.189,-325.85 952.054,-332.575 948.785,-328.793 948.785,-328.793 948.785,-328.793 952.054,-332.575 945.38,-331.735 955.324,-336.358 955.324,-336.358"/>
</g>
<!-- Product&#45;&gt;Unit -->
<g id="edge10" class="edge"><title>Product&#45;&gt;Unit</title>
<path fill="none" stroke="#76a721" d="M1295.05,-449.2C1340.76,-372.912 1387.51,-260.371 1331.69,-179 1287.36,-114.375 1197.82,-88.9529 1132.71,-78.9592"/>
<ellipse fill="none" stroke="#76a721" cx="1292.71" cy="-453.049" rx="4.00002" ry="4.00002"/>
<polygon fill="#76a721" stroke="#76a721" points="1132.38,-78.9116 1123.13,-73.0302 1127.43,-78.1979 1122.48,-77.4841 1122.48,-77.4841 1122.48,-77.4841 1127.43,-78.1979 1121.84,-81.9381 1132.38,-78.9116 1132.38,-78.9116"/>
</g>
<!-- Shipment -->
<g id="node12" class="node"><title>Shipment</title>
<path fill="none" stroke="black" d="M236.01,-477.5C236.01,-477.5 347.365,-477.5 347.365,-477.5 353.365,-477.5 359.365,-483.5 359.365,-489.5 359.365,-489.5 359.365,-579.5 359.365,-579.5 359.365,-585.5 353.365,-591.5 347.365,-591.5 347.365,-591.5 236.01,-591.5 236.01,-591.5 230.01,-591.5 224.01,-585.5 224.01,-579.5 224.01,-579.5 224.01,-489.5 224.01,-489.5 224.01,-483.5 230.01,-477.5 236.01,-477.5"/>
<text text-anchor="middle" x="291.688" y="-576.3" font-family="Times,serif" font-size="14.00">Shipment</text>
<polyline fill="none" stroke="black" points="224.01,-569.5 359.365,-569.5 "/>
<text text-anchor="start" x="232.01" y="-554.3" font-family="Times,serif" font-size="14.00">id :integer</text>
<text text-anchor="start" x="232.01" y="-540.3" font-family="Times,serif" font-size="14.00">method :string</text>
<text text-anchor="start" x="232.01" y="-526.3" font-family="Times,serif" font-size="14.00">price :float</text>
<text text-anchor="start" x="232.01" y="-512.3" font-family="Times,serif" font-size="14.00">is_complete :boolean</text>
<text text-anchor="start" x="232.01" y="-498.3" font-family="Times,serif" font-size="14.00">created_at :datetime</text>
<text text-anchor="start" x="232.01" y="-484.3" font-family="Times,serif" font-size="14.00">updated_at :datetime</text>
</g>
<!-- Shipment&#45;&gt;Order -->
<g id="edge14" class="edge"><title>Shipment&#45;&gt;Order</title>
<path fill="none" stroke="#041df4" d="M316.707,-470.002C328.995,-445.447 345.912,-418.793 367.688,-400 440.024,-337.572 546.393,-303.836 618.215,-287.033"/>
<ellipse fill="none" stroke="#041df4" cx="314.954" cy="-473.606" rx="4.00002" ry="4.00002"/>
<polygon fill="#041df4" stroke="#041df4" points="618.364,-286.999 629.114,-289.161 623.238,-285.886 628.113,-284.774 628.113,-284.774 628.113,-284.774 623.238,-285.886 627.111,-280.386 618.364,-286.999 618.364,-286.999"/>
</g>
<!-- ShipmentMethod -->
<g id="node13" class="node"><title>ShipmentMethod</title>
<path fill="none" stroke="black" d="M237.182,-705.5C237.182,-705.5 346.193,-705.5 346.193,-705.5 352.193,-705.5 358.193,-711.5 358.193,-717.5 358.193,-717.5 358.193,-793.5 358.193,-793.5 358.193,-799.5 352.193,-805.5 346.193,-805.5 346.193,-805.5 237.182,-805.5 237.182,-805.5 231.182,-805.5 225.182,-799.5 225.182,-793.5 225.182,-793.5 225.182,-717.5 225.182,-717.5 225.182,-711.5 231.182,-705.5 237.182,-705.5"/>
<text text-anchor="middle" x="291.688" y="-790.3" font-family="Times,serif" font-size="14.00">ShipmentMethod</text>
<polyline fill="none" stroke="black" points="225.182,-783.5 358.193,-783.5 "/>
<text text-anchor="start" x="233.182" y="-768.3" font-family="Times,serif" font-size="14.00">id :integer</text>
<text text-anchor="start" x="233.182" y="-754.3" font-family="Times,serif" font-size="14.00">name :string</text>
<text text-anchor="start" x="233.182" y="-740.3" font-family="Times,serif" font-size="14.00">price :float</text>
<text text-anchor="start" x="233.182" y="-726.3" font-family="Times,serif" font-size="14.00">created_at :datetime</text>
<text text-anchor="start" x="233.182" y="-712.3" font-family="Times,serif" font-size="14.00">updated_at :datetime</text>
</g>
<!-- ShipmentMethod&#45;&gt;Shipment -->
<g id="edge15" class="edge"><title>ShipmentMethod&#45;&gt;Shipment</title>
<path fill="none" stroke="#fd490a" d="M291.688,-697.268C291.688,-668.051 291.688,-632.349 291.688,-601.924"/>
<ellipse fill="none" stroke="#fd490a" cx="291.688" cy="-701.352" rx="4" ry="4"/>
<polygon fill="#fd490a" stroke="#fd490a" points="291.688,-601.826 296.188,-591.826 291.688,-596.826 291.688,-591.826 291.688,-591.826 291.688,-591.826 291.688,-596.826 287.188,-591.826 291.688,-601.826 291.688,-601.826"/>
</g>
<!-- Status -->
<g id="node14" class="node"><title>Status</title>
<path fill="none" stroke="black" d="M389.182,-491.5C389.182,-491.5 498.193,-491.5 498.193,-491.5 504.193,-491.5 510.193,-497.5 510.193,-503.5 510.193,-503.5 510.193,-565.5 510.193,-565.5 510.193,-571.5 504.193,-577.5 498.193,-577.5 498.193,-577.5 389.182,-577.5 389.182,-577.5 383.182,-577.5 377.182,-571.5 377.182,-565.5 377.182,-565.5 377.182,-503.5 377.182,-503.5 377.182,-497.5 383.182,-491.5 389.182,-491.5"/>
<text text-anchor="middle" x="443.688" y="-562.3" font-family="Times,serif" font-size="14.00">Status</text>
<polyline fill="none" stroke="black" points="377.182,-555.5 510.193,-555.5 "/>
<text text-anchor="start" x="385.182" y="-540.3" font-family="Times,serif" font-size="14.00">id :integer</text>
<text text-anchor="start" x="385.182" y="-526.3" font-family="Times,serif" font-size="14.00">name :string</text>
<text text-anchor="start" x="385.182" y="-512.3" font-family="Times,serif" font-size="14.00">created_at :datetime</text>
<text text-anchor="start" x="385.182" y="-498.3" font-family="Times,serif" font-size="14.00">updated_at :datetime</text>
</g>
<!-- Status&#45;&gt;Order -->
<g id="edge16" class="edge"><title>Status&#45;&gt;Order</title>
<path fill="none" stroke="#7693e6" d="M465.474,-484.052C478.73,-457.355 497.399,-424.871 519.688,-400 548.235,-368.145 586.015,-339.499 619.25,-317.467"/>
<ellipse fill="none" stroke="#7693e6" cx="463.634" cy="-487.822" rx="4.00002" ry="4.00002"/>
<polygon fill="#7693e6" stroke="#7693e6" points="619.671,-317.193 630.504,-315.489 623.856,-314.457 628.042,-311.722 628.042,-311.722 628.042,-311.722 623.856,-314.457 625.58,-307.955 619.671,-317.193 619.671,-317.193"/>
</g>
<!-- Vendor -->
<g id="node17" class="node"><title>Vendor</title>
<path fill="none" stroke="black" d="M1256.18,-712.5C1256.18,-712.5 1365.19,-712.5 1365.19,-712.5 1371.19,-712.5 1377.19,-718.5 1377.19,-724.5 1377.19,-724.5 1377.19,-786.5 1377.19,-786.5 1377.19,-792.5 1371.19,-798.5 1365.19,-798.5 1365.19,-798.5 1256.18,-798.5 1256.18,-798.5 1250.18,-798.5 1244.18,-792.5 1244.18,-786.5 1244.18,-786.5 1244.18,-724.5 1244.18,-724.5 1244.18,-718.5 1250.18,-712.5 1256.18,-712.5"/>
<text text-anchor="middle" x="1310.69" y="-783.3" font-family="Times,serif" font-size="14.00">Vendor</text>
<polyline fill="none" stroke="black" points="1244.18,-776.5 1377.19,-776.5 "/>
<text text-anchor="start" x="1252.18" y="-761.3" font-family="Times,serif" font-size="14.00">id :integer</text>
<text text-anchor="start" x="1252.18" y="-747.3" font-family="Times,serif" font-size="14.00">name :string</text>
<text text-anchor="start" x="1252.18" y="-733.3" font-family="Times,serif" font-size="14.00">created_at :datetime</text>
<text text-anchor="start" x="1252.18" y="-719.3" font-family="Times,serif" font-size="14.00">updated_at :datetime</text>
</g>
<!-- Vendor&#45;&gt;Product -->
<g id="edge17" class="edge"><title>Vendor&#45;&gt;Product</title>
<path fill="none" stroke="#646432" d="M1293.55,-704.444C1285.22,-680.143 1274.98,-650.236 1265.44,-622.373"/>
<ellipse fill="none" stroke="#646432" cx="1294.93" cy="-708.49" rx="4.00001" ry="4.00001"/>
<polygon fill="#646432" stroke="#646432" points="1265.34,-622.076 1266.35,-611.157 1263.72,-617.345 1262.1,-612.615 1262.1,-612.615 1262.1,-612.615 1263.72,-617.345 1257.84,-614.073 1265.34,-622.076 1265.34,-622.076"/>
</g>
</g>
</svg>
