<?xml version="1.0" encoding="UTF-8" standalone="no"?>
<!DOCTYPE svg PUBLIC "-//W3C//DTD SVG 1.1//EN"
 "http://www.w3.org/Graphics/SVG/1.1/DTD/svg11.dtd">
<!-- Generated by graphviz version 2.38.0 (20140413.2041)
 -->
<!-- Title: models_diagram Pages: 1 -->
<svg width="638pt" height="297pt"
 viewBox="0.00 0.00 637.86 297.00" xmlns="http://www.w3.org/2000/svg" xmlns:xlink="http://www.w3.org/1999/xlink">
<g id="graph0" class="graph" transform="scale(1 1) rotate(0) translate(4 293)">
<title>models_diagram</title>
<polygon fill="white" stroke="none" points="-4,4 -4,-293 633.86,-293 633.86,4 -4,4"/>
<!-- _diagram_info -->
<g id="node1" class="node"><title>_diagram_info</title>
<text text-anchor="start" x="8" y="-274.6" font-family="Times,serif" font-size="13.00">Models diagram</text>
<text text-anchor="start" x="8" y="-261.6" font-family="Times,serif" font-size="13.00">Date: Jun 07 2015 &#45; 13:15</text>
<text text-anchor="start" x="8" y="-248.6" font-family="Times,serif" font-size="13.00">Migration version: 20150607111053</text>
<text text-anchor="start" x="8" y="-235.6" font-family="Times,serif" font-size="13.00">Generated by RailRoady 1.3.0</text>
<text text-anchor="start" x="8" y="-222.6" font-family="Times,serif" font-size="13.00">http://railroady.prestonlee.com</text>
</g>
<!-- Category -->
<g id="node2" class="node"><title>Category</title>
<ellipse fill="none" stroke="black" cx="498.212" cy="-252.5" rx="42.5456" ry="18"/>
<text text-anchor="middle" x="498.212" y="-248.3" font-family="Times,serif" font-size="14.00">Category</text>
</g>
<!-- Product -->
<g id="node9" class="node"><title>Product</title>
<ellipse fill="none" stroke="black" cx="546.212" cy="-162" rx="37.7352" ry="18"/>
<text text-anchor="middle" x="546.212" y="-157.8" font-family="Times,serif" font-size="14.00">Product</text>
</g>
<!-- Category&#45;&gt;Product -->
<g id="edge1" class="edge"><title>Category&#45;&gt;Product</title>
<path fill="none" stroke="#f7023d" d="M511.089,-227.757C517.67,-215.625 525.682,-200.851 532.392,-188.48"/>
<ellipse fill="none" stroke="#f7023d" cx="509.147" cy="-231.338" rx="4.00002" ry="4.00002"/>
<polygon fill="#f7023d" stroke="#f7023d" points="532.456,-188.362 541.179,-181.717 534.84,-183.967 537.224,-179.572 537.224,-179.572 537.224,-179.572 534.84,-183.967 533.268,-177.426 532.456,-188.362 532.456,-188.362"/>
</g>
<!-- Client -->
<g id="node3" class="node"><title>Client</title>
<ellipse fill="none" stroke="black" cx="459.212" cy="-162" rx="31.948" ry="18"/>
<text text-anchor="middle" x="459.212" y="-157.8" font-family="Times,serif" font-size="14.00">Client</text>
</g>
<!-- Order -->
<g id="node6" class="node"><title>Order</title>
<ellipse fill="none" stroke="black" cx="279.212" cy="-90" rx="30.9619" ry="18"/>
<text text-anchor="middle" x="279.212" y="-85.8" font-family="Times,serif" font-size="14.00">Order</text>
</g>
<!-- Client&#45;&gt;Order -->
<g id="edge2" class="edge"><title>Client&#45;&gt;Order</title>
<path fill="none" stroke="#7ba8fa" d="M427.123,-147.592C424.115,-146.366 421.109,-145.153 418.212,-144 382.793,-129.908 342.01,-114.448 313.822,-103.881"/>
<ellipse fill="none" stroke="#7ba8fa" cx="430.842" cy="-149.118" rx="4.00002" ry="4.00002"/>
<polygon fill="#7ba8fa" stroke="#7ba8fa" points="313.773,-103.863 305.984,-96.1434 309.09,-102.11 304.407,-100.358 304.407,-100.358 304.407,-100.358 309.09,-102.11 302.83,-104.573 313.773,-103.863 313.773,-103.863"/>
</g>
<!-- Rate -->
<g id="node10" class="node"><title>Rate</title>
<ellipse fill="none" stroke="black" cx="469.212" cy="-90" rx="27" ry="18"/>
<text text-anchor="middle" x="469.212" y="-85.8" font-family="Times,serif" font-size="14.00">Rate</text>
</g>
<!-- Client&#45;&gt;Rate -->
<g id="edge4" class="edge"><title>Client&#45;&gt;Rate</title>
<path fill="none" stroke="#bdeb3b" d="M462.835,-135.64C463.652,-129.92 464.522,-123.828 465.349,-118.042"/>
<ellipse fill="none" stroke="#bdeb3b" cx="462.249" cy="-139.737" rx="4.00001" ry="4.00001"/>
<polygon fill="#bdeb3b" stroke="#bdeb3b" points="465.354,-118.004 471.223,-108.741 466.061,-113.054 466.768,-108.104 466.768,-108.104 466.768,-108.104 466.061,-113.054 462.313,-107.468 465.354,-118.004 465.354,-118.004"/>
</g>
<!-- Thought -->
<g id="node13" class="node"><title>Thought</title>
<ellipse fill="none" stroke="black" cx="384.212" cy="-90" rx="40.149" ry="18"/>
<text text-anchor="middle" x="384.212" y="-85.8" font-family="Times,serif" font-size="14.00">Thought</text>
</g>
<!-- Client&#45;&gt;Thought -->
<g id="edge3" class="edge"><title>Client&#45;&gt;Thought</title>
<path fill="none" stroke="#fc4473" d="M437.143,-140.403C428.08,-131.944 417.561,-122.126 408.299,-113.481"/>
<ellipse fill="none" stroke="#fc4473" cx="440.382" cy="-143.426" rx="4.00002" ry="4.00002"/>
<polygon fill="#fc4473" stroke="#fc4473" points="408.185,-113.375 403.945,-103.262 404.529,-109.963 400.874,-106.552 400.874,-106.552 400.874,-106.552 404.529,-109.963 397.804,-109.841 408.185,-113.375 408.185,-113.375"/>
</g>
<!-- Employee -->
<g id="node4" class="node"><title>Employee</title>
<ellipse fill="none" stroke="black" cx="263.212" cy="-162" rx="45.92" ry="18"/>
<text text-anchor="middle" x="263.212" y="-157.8" font-family="Times,serif" font-size="14.00">Employee</text>
</g>
<!-- Employee&#45;&gt;Order -->
<g id="edge5" class="edge"><title>Employee&#45;&gt;Order</title>
<path fill="none" stroke="#6b9495" d="M268.929,-135.987C270.24,-130.249 271.641,-124.121 272.973,-118.293"/>
<ellipse fill="none" stroke="#6b9495" cx="267.976" cy="-140.156" rx="4.00001" ry="4.00001"/>
<polygon fill="#6b9495" stroke="#6b9495" points="273.035,-118.024 279.65,-109.278 274.149,-113.15 275.263,-108.275 275.263,-108.275 275.263,-108.275 274.149,-113.15 270.876,-107.273 273.035,-118.024 273.035,-118.024"/>
</g>
<!-- Image -->
<g id="node5" class="node"><title>Image</title>
<ellipse fill="none" stroke="black" cx="546.212" cy="-90" rx="32.4063" ry="18"/>
<text text-anchor="middle" x="546.212" y="-85.8" font-family="Times,serif" font-size="14.00">Image</text>
</g>
<!-- Unit -->
<g id="node14" class="node"><title>Unit</title>
<ellipse fill="none" stroke="black" cx="450.212" cy="-18" rx="27" ry="18"/>
<text text-anchor="middle" x="450.212" y="-13.8" font-family="Times,serif" font-size="14.00">Unit</text>
</g>
<!-- Order&#45;&gt;Unit -->
<g id="edge6" class="edge"><title>Order&#45;&gt;Unit</title>
<path fill="none" stroke="#36fbfb" d="M311.494,-75.7849C342.116,-63.2496 387.857,-44.5252 418.342,-32.0459"/>
<ellipse fill="none" stroke="#36fbfb" cx="307.414" cy="-77.4553" rx="4.00001" ry="4.00001"/>
<polygon fill="#36fbfb" stroke="#36fbfb" points="418.411,-32.018 429.37,-32.394 423.038,-30.1237 427.665,-28.2295 427.665,-28.2295 427.665,-28.2295 423.038,-30.1237 425.961,-24.0649 418.411,-32.018 418.411,-32.018"/>
</g>
<!-- Payment -->
<g id="node7" class="node"><title>Payment</title>
<ellipse fill="none" stroke="black" cx="368.212" cy="-162" rx="41.1093" ry="18"/>
<text text-anchor="middle" x="368.212" y="-157.8" font-family="Times,serif" font-size="14.00">Payment</text>
</g>
<!-- Payment&#45;&gt;Order -->
<g id="edge7" class="edge"><title>Payment&#45;&gt;Order</title>
<path fill="none" stroke="#84f813" d="M342.458,-140.745C330.72,-131.512 316.852,-120.605 305.098,-111.36"/>
<ellipse fill="none" stroke="#84f813" cx="345.756" cy="-143.338" rx="4.00002" ry="4.00002"/>
<polygon fill="#84f813" stroke="#84f813" points="304.833,-111.152 299.755,-101.433 300.903,-108.061 296.973,-104.97 296.973,-104.97 296.973,-104.97 300.903,-108.061 294.191,-108.507 304.833,-111.152 304.833,-111.152"/>
</g>
<!-- Position -->
<g id="node8" class="node"><title>Position</title>
<ellipse fill="none" stroke="black" cx="263.212" cy="-252.5" rx="39.206" ry="18"/>
<text text-anchor="middle" x="263.212" y="-248.3" font-family="Times,serif" font-size="14.00">Position</text>
</g>
<!-- Position&#45;&gt;Employee -->
<g id="edge8" class="edge"><title>Position&#45;&gt;Employee</title>
<path fill="none" stroke="#f12d5b" d="M263.212,-226.189C263.212,-214.971 263.212,-201.752 263.212,-190.311"/>
<ellipse fill="none" stroke="#f12d5b" cx="263.212" cy="-230.436" rx="4" ry="4"/>
<polygon fill="#f12d5b" stroke="#f12d5b" points="263.212,-190.011 267.712,-180.011 263.212,-185.011 263.212,-180.011 263.212,-180.011 263.212,-180.011 263.212,-185.011 258.712,-180.011 263.212,-190.011 263.212,-190.011"/>
</g>
<!-- Product&#45;&gt;Image -->
<g id="edge12" class="edge"><title>Product&#45;&gt;Image</title>
<path fill="none" stroke="#1ac3e1" d="M546.212,-135.64C546.212,-130.063 546.212,-124.132 546.212,-118.476"/>
<ellipse fill="none" stroke="#1ac3e1" cx="546.212" cy="-139.697" rx="4" ry="4"/>
<polygon fill="#1ac3e1" stroke="#1ac3e1" points="546.212,-118.104 550.712,-108.104 546.212,-113.104 546.212,-108.104 546.212,-108.104 546.212,-108.104 546.212,-113.104 541.712,-108.104 546.212,-118.104 546.212,-118.104"/>
</g>
<!-- Product&#45;&gt;Rate -->
<g id="edge11" class="edge"><title>Product&#45;&gt;Rate</title>
<path fill="none" stroke="#821d4f" d="M523.246,-140.122C513.389,-131.161 501.9,-120.717 492.057,-111.769"/>
<ellipse fill="none" stroke="#821d4f" cx="526.544" cy="-143.12" rx="4.00002" ry="4.00002"/>
<polygon fill="#821d4f" stroke="#821d4f" points="491.978,-111.697 487.605,-101.64 488.278,-108.333 484.578,-104.97 484.578,-104.97 484.578,-104.97 488.278,-108.333 481.551,-108.3 491.978,-111.697 491.978,-111.697"/>
</g>
<!-- Product&#45;&gt;Thought -->
<g id="edge10" class="edge"><title>Product&#45;&gt;Thought</title>
<path fill="none" stroke="#aaa1e1" d="M511.443,-145.977C484.959,-134.533 448.561,-118.805 421.479,-107.103"/>
<ellipse fill="none" stroke="#aaa1e1" cx="515.425" cy="-147.697" rx="4.00002" ry="4.00002"/>
<polygon fill="#aaa1e1" stroke="#aaa1e1" points="421.138,-106.956 413.743,-98.8584 416.548,-104.973 411.958,-102.989 411.958,-102.989 411.958,-102.989 416.548,-104.973 410.173,-107.12 421.138,-106.956 421.138,-106.956"/>
</g>
<!-- Product&#45;&gt;Unit -->
<g id="edge9" class="edge"><title>Product&#45;&gt;Unit</title>
<path fill="none" stroke="#345595" d="M568.014,-139.7C584.468,-120.971 601.901,-93.4327 587.212,-72 564.901,-39.4462 519.501,-26.8827 487.08,-22.037"/>
<ellipse fill="none" stroke="#345595" cx="565.223" cy="-142.745" rx="4.00002" ry="4.00002"/>
<polygon fill="#345595" stroke="#345595" points="486.97,-22.0226 477.642,-16.2577 482.013,-21.371 477.055,-20.7193 477.055,-20.7193 477.055,-20.7193 482.013,-21.371 476.469,-25.181 486.97,-22.0226 486.97,-22.0226"/>
</g>
<!-- Shipment -->
<g id="node11" class="node"><title>Shipment</title>
<ellipse fill="none" stroke="black" cx="73.2117" cy="-162" rx="44.0164" ry="18"/>
<text text-anchor="middle" x="73.2117" y="-157.8" font-family="Times,serif" font-size="14.00">Shipment</text>
</g>
<!-- Shipment&#45;&gt;Order -->
<g id="edge13" class="edge"><title>Shipment&#45;&gt;Order</title>
<path fill="none" stroke="#49960b" d="M113.569,-147.286C151.392,-134.434 207.386,-115.407 243.59,-103.104"/>
<ellipse fill="none" stroke="#49960b" cx="109.64" cy="-148.621" rx="4.00001" ry="4.00001"/>
<polygon fill="#49960b" stroke="#49960b" points="243.777,-103.041 254.693,-104.084 248.511,-101.432 253.246,-99.8234 253.246,-99.8234 253.246,-99.8234 248.511,-101.432 251.798,-95.5627 243.777,-103.041 243.777,-103.041"/>
</g>
<!-- Status -->
<g id="node12" class="node"><title>Status</title>
<ellipse fill="none" stroke="black" cx="167.212" cy="-162" rx="31.9567" ry="18"/>
<text text-anchor="middle" x="167.212" y="-157.8" font-family="Times,serif" font-size="14.00">Status</text>
</g>
<!-- Status&#45;&gt;Order -->
<g id="edge14" class="edge"><title>Status&#45;&gt;Order</title>
<path fill="none" stroke="#748c1f" d="M194.733,-143.799C211.606,-133.254 233.178,-119.771 250.3,-109.07"/>
<ellipse fill="none" stroke="#748c1f" cx="191.146" cy="-146.041" rx="4.00002" ry="4.00002"/>
<polygon fill="#748c1f" stroke="#748c1f" points="250.319,-109.058 261.184,-107.574 254.559,-106.408 258.799,-103.758 258.799,-103.758 258.799,-103.758 254.559,-106.408 256.414,-99.9417 250.319,-109.058 250.319,-109.058"/>
</g>
<!-- Vendor -->
<g id="node15" class="node"><title>Vendor</title>
<ellipse fill="none" stroke="black" cx="594.212" cy="-252.5" rx="35.7974" ry="18"/>
<text text-anchor="middle" x="594.212" y="-248.3" font-family="Times,serif" font-size="14.00">Vendor</text>
</g>
<!-- Vendor&#45;&gt;Product -->
<g id="edge15" class="edge"><title>Vendor&#45;&gt;Product</title>
<path fill="none" stroke="#390749" d="M581.334,-227.757C574.754,-215.625 566.741,-200.851 560.031,-188.48"/>
<ellipse fill="none" stroke="#390749" cx="583.276" cy="-231.338" rx="4.00002" ry="4.00002"/>
<polygon fill="#390749" stroke="#390749" points="559.967,-188.362 559.155,-177.426 557.583,-183.967 555.2,-179.572 555.2,-179.572 555.2,-179.572 557.583,-183.967 551.244,-181.717 559.967,-188.362 559.967,-188.362"/>
</g>
</g>
</svg>
