<?xml version="1.0" encoding="UTF-8" standalone="no"?>
<!DOCTYPE svg PUBLIC "-//W3C//DTD SVG 1.1//EN"
 "http://www.w3.org/Graphics/SVG/1.1/DTD/svg11.dtd">
<!-- Generated by graphviz version 2.38.0 (20140413.2041)
 -->
<!-- Title: models_diagram Pages: 1 -->
<svg width="1011pt" height="523pt"
 viewBox="0.00 0.00 1011.19 523.00" xmlns="http://www.w3.org/2000/svg" xmlns:xlink="http://www.w3.org/1999/xlink">
<g id="graph0" class="graph" transform="scale(1 1) rotate(0) translate(4 519)">
<title>models_diagram</title>
<polygon fill="white" stroke="none" points="-4,4 -4,-519 1007.19,-519 1007.19,4 -4,4"/>
<!-- _diagram_info -->
<g id="node1" class="node"><title>_diagram_info</title>
<text text-anchor="start" x="8" y="-479.6" font-family="Times,serif" font-size="13.00">Models diagram</text>
<text text-anchor="start" x="8" y="-466.6" font-family="Times,serif" font-size="13.00">Date: Jun 07 2015 &#45; 12:59</text>
<text text-anchor="start" x="8" y="-453.6" font-family="Times,serif" font-size="13.00">Migration version: 20150607104300</text>
<text text-anchor="start" x="8" y="-440.6" font-family="Times,serif" font-size="13.00">Generated by RailRoady 1.3.0</text>
<text text-anchor="start" x="8" y="-427.6" font-family="Times,serif" font-size="13.00">http://railroady.prestonlee.com</text>
</g>
<!-- Category -->
<g id="node2" class="node"><title>Category</title>
<path fill="none" stroke="black" d="M237.182,-414.5C237.182,-414.5 346.193,-414.5 346.193,-414.5 352.193,-414.5 358.193,-420.5 358.193,-426.5 358.193,-426.5 358.193,-488.5 358.193,-488.5 358.193,-494.5 352.193,-500.5 346.193,-500.5 346.193,-500.5 237.182,-500.5 237.182,-500.5 231.182,-500.5 225.182,-494.5 225.182,-488.5 225.182,-488.5 225.182,-426.5 225.182,-426.5 225.182,-420.5 231.182,-414.5 237.182,-414.5"/>
<text text-anchor="middle" x="291.688" y="-485.3" font-family="Times,serif" font-size="14.00">Category</text>
<polyline fill="none" stroke="black" points="225.182,-478.5 358.193,-478.5 "/>
<text text-anchor="start" x="233.182" y="-463.3" font-family="Times,serif" font-size="14.00">id :integer</text>
<text text-anchor="start" x="233.182" y="-449.3" font-family="Times,serif" font-size="14.00">name :string</text>
<text text-anchor="start" x="233.182" y="-435.3" font-family="Times,serif" font-size="14.00">created_at :datetime</text>
<text text-anchor="start" x="233.182" y="-421.3" font-family="Times,serif" font-size="14.00">updated_at :datetime</text>
</g>
<!-- Product -->
<g id="node6" class="node"><title>Product</title>
<path fill="none" stroke="black" d="M367.624,-193.5C367.624,-193.5 479.752,-193.5 479.752,-193.5 485.752,-193.5 491.752,-199.5 491.752,-205.5 491.752,-205.5 491.752,-337.5 491.752,-337.5 491.752,-343.5 485.752,-349.5 479.752,-349.5 479.752,-349.5 367.624,-349.5 367.624,-349.5 361.624,-349.5 355.624,-343.5 355.624,-337.5 355.624,-337.5 355.624,-205.5 355.624,-205.5 355.624,-199.5 361.624,-193.5 367.624,-193.5"/>
<text text-anchor="middle" x="423.688" y="-334.3" font-family="Times,serif" font-size="14.00">Product</text>
<polyline fill="none" stroke="black" points="355.624,-327.5 491.752,-327.5 "/>
<text text-anchor="start" x="363.624" y="-312.3" font-family="Times,serif" font-size="14.00">id :integer</text>
<text text-anchor="start" x="363.624" y="-298.3" font-family="Times,serif" font-size="14.00">category_id :integer</text>
<text text-anchor="start" x="363.624" y="-284.3" font-family="Times,serif" font-size="14.00">producent_id :integer</text>
<text text-anchor="start" x="363.624" y="-270.3" font-family="Times,serif" font-size="14.00">name :string</text>
<text text-anchor="start" x="363.624" y="-256.3" font-family="Times,serif" font-size="14.00">netto_price :float</text>
<text text-anchor="start" x="363.624" y="-242.3" font-family="Times,serif" font-size="14.00">vat :float</text>
<text text-anchor="start" x="363.624" y="-228.3" font-family="Times,serif" font-size="14.00">description :text</text>
<text text-anchor="start" x="363.624" y="-214.3" font-family="Times,serif" font-size="14.00">created_at :datetime</text>
<text text-anchor="start" x="363.624" y="-200.3" font-family="Times,serif" font-size="14.00">updated_at :datetime</text>
</g>
<!-- Category&#45;&gt;Product -->
<g id="edge1" class="edge"><title>Category&#45;&gt;Product</title>
<path fill="none" stroke="#b49a10" d="M326.931,-407.373C337.871,-392.123 350.264,-374.848 362.44,-357.875"/>
<ellipse fill="none" stroke="#b49a10" cx="324.303" cy="-411.037" rx="4.00002" ry="4.00002"/>
<polygon fill="#b49a10" stroke="#b49a10" points="362.564,-357.703 372.049,-352.201 365.478,-353.64 368.393,-349.578 368.393,-349.578 368.393,-349.578 365.478,-353.64 364.736,-346.955 362.564,-357.703 362.564,-357.703"/>
</g>
<!-- Image -->
<g id="node3" class="node"><title>Image</title>
<path fill="none" stroke="black" d="M157.579,-0.5C157.579,-0.5 307.797,-0.5 307.797,-0.5 313.797,-0.5 319.797,-6.5 319.797,-12.5 319.797,-12.5 319.797,-130.5 319.797,-130.5 319.797,-136.5 313.797,-142.5 307.797,-142.5 307.797,-142.5 157.579,-142.5 157.579,-142.5 151.579,-142.5 145.579,-136.5 145.579,-130.5 145.579,-130.5 145.579,-12.5 145.579,-12.5 145.579,-6.5 151.579,-0.5 157.579,-0.5"/>
<text text-anchor="middle" x="232.688" y="-127.3" font-family="Times,serif" font-size="14.00">Image</text>
<polyline fill="none" stroke="black" points="145.579,-120.5 319.797,-120.5 "/>
<text text-anchor="start" x="153.579" y="-105.3" font-family="Times,serif" font-size="14.00">id :integer</text>
<text text-anchor="start" x="153.579" y="-91.3" font-family="Times,serif" font-size="14.00">product_id :integer</text>
<text text-anchor="start" x="153.579" y="-77.3" font-family="Times,serif" font-size="14.00">created_at :datetime</text>
<text text-anchor="start" x="153.579" y="-63.3" font-family="Times,serif" font-size="14.00">updated_at :datetime</text>
<text text-anchor="start" x="153.579" y="-49.3" font-family="Times,serif" font-size="14.00">image_file_name :string</text>
<text text-anchor="start" x="153.579" y="-35.3" font-family="Times,serif" font-size="14.00">image_content_type :string</text>
<text text-anchor="start" x="153.579" y="-21.3" font-family="Times,serif" font-size="14.00">image_file_size :integer</text>
<text text-anchor="start" x="153.579" y="-7.3" font-family="Times,serif" font-size="14.00">image_updated_at :datetime</text>
</g>
<!-- Order -->
<g id="node4" class="node"><title>Order</title>
<path fill="none" stroke="black" d="M651.403,-179.5C651.403,-179.5 761.972,-179.5 761.972,-179.5 767.972,-179.5 773.972,-185.5 773.972,-191.5 773.972,-191.5 773.972,-351.5 773.972,-351.5 773.972,-357.5 767.972,-363.5 761.972,-363.5 761.972,-363.5 651.403,-363.5 651.403,-363.5 645.403,-363.5 639.403,-357.5 639.403,-351.5 639.403,-351.5 639.403,-191.5 639.403,-191.5 639.403,-185.5 645.403,-179.5 651.403,-179.5"/>
<text text-anchor="middle" x="706.688" y="-348.3" font-family="Times,serif" font-size="14.00">Order</text>
<polyline fill="none" stroke="black" points="639.403,-341.5 773.972,-341.5 "/>
<text text-anchor="start" x="647.403" y="-326.3" font-family="Times,serif" font-size="14.00">id :integer</text>
<text text-anchor="start" x="647.403" y="-312.3" font-family="Times,serif" font-size="14.00">client_id :integer</text>
<text text-anchor="start" x="647.403" y="-298.3" font-family="Times,serif" font-size="14.00">employee_id :integer</text>
<text text-anchor="start" x="647.403" y="-284.3" font-family="Times,serif" font-size="14.00">status_id :integer</text>
<text text-anchor="start" x="647.403" y="-270.3" font-family="Times,serif" font-size="14.00">shipment_id :integer</text>
<text text-anchor="start" x="647.403" y="-256.3" font-family="Times,serif" font-size="14.00">payment_id :integer</text>
<text text-anchor="start" x="647.403" y="-242.3" font-family="Times,serif" font-size="14.00">redeem_code :string</text>
<text text-anchor="start" x="647.403" y="-228.3" font-family="Times,serif" font-size="14.00">cost :float</text>
<text text-anchor="start" x="647.403" y="-214.3" font-family="Times,serif" font-size="14.00">extra_info :text</text>
<text text-anchor="start" x="647.403" y="-200.3" font-family="Times,serif" font-size="14.00">created_at :datetime</text>
<text text-anchor="start" x="647.403" y="-186.3" font-family="Times,serif" font-size="14.00">updated_at :datetime</text>
</g>
<!-- Unit -->
<g id="node11" class="node"><title>Unit</title>
<path fill="none" stroke="black" d="M652.182,-0.5C652.182,-0.5 761.193,-0.5 761.193,-0.5 767.193,-0.5 773.193,-6.5 773.193,-12.5 773.193,-12.5 773.193,-130.5 773.193,-130.5 773.193,-136.5 767.193,-142.5 761.193,-142.5 761.193,-142.5 652.182,-142.5 652.182,-142.5 646.182,-142.5 640.182,-136.5 640.182,-130.5 640.182,-130.5 640.182,-12.5 640.182,-12.5 640.182,-6.5 646.182,-0.5 652.182,-0.5"/>
<text text-anchor="middle" x="706.688" y="-127.3" font-family="Times,serif" font-size="14.00">Unit</text>
<polyline fill="none" stroke="black" points="640.182,-120.5 773.193,-120.5 "/>
<text text-anchor="start" x="648.182" y="-105.3" font-family="Times,serif" font-size="14.00">id :integer</text>
<text text-anchor="start" x="648.182" y="-91.3" font-family="Times,serif" font-size="14.00">product_id :integer</text>
<text text-anchor="start" x="648.182" y="-77.3" font-family="Times,serif" font-size="14.00">order_id :integer</text>
<text text-anchor="start" x="648.182" y="-63.3" font-family="Times,serif" font-size="14.00">netto_price :float</text>
<text text-anchor="start" x="648.182" y="-49.3" font-family="Times,serif" font-size="14.00">vat :float</text>
<text text-anchor="start" x="648.182" y="-35.3" font-family="Times,serif" font-size="14.00">sold_at :datetime</text>
<text text-anchor="start" x="648.182" y="-21.3" font-family="Times,serif" font-size="14.00">created_at :datetime</text>
<text text-anchor="start" x="648.182" y="-7.3" font-family="Times,serif" font-size="14.00">updated_at :datetime</text>
</g>
<!-- Order&#45;&gt;Unit -->
<g id="edge2" class="edge"><title>Order&#45;&gt;Unit</title>
<path fill="none" stroke="#358814" d="M706.688,-171.249C706.688,-165.086 706.688,-158.923 706.688,-152.858"/>
<ellipse fill="none" stroke="#358814" cx="706.688" cy="-175.324" rx="4" ry="4"/>
<polygon fill="#358814" stroke="#358814" points="706.688,-152.759 711.188,-142.759 706.688,-147.759 706.688,-142.759 706.688,-142.759 706.688,-142.759 706.688,-147.759 702.188,-142.759 706.688,-152.759 706.688,-152.759"/>
</g>
<!-- Payment -->
<g id="node5" class="node"><title>Payment</title>
<path fill="none" stroke="black" d="M576.01,-400.5C576.01,-400.5 687.365,-400.5 687.365,-400.5 693.365,-400.5 699.365,-406.5 699.365,-412.5 699.365,-412.5 699.365,-502.5 699.365,-502.5 699.365,-508.5 693.365,-514.5 687.365,-514.5 687.365,-514.5 576.01,-514.5 576.01,-514.5 570.01,-514.5 564.01,-508.5 564.01,-502.5 564.01,-502.5 564.01,-412.5 564.01,-412.5 564.01,-406.5 570.01,-400.5 576.01,-400.5"/>
<text text-anchor="middle" x="631.688" y="-499.3" font-family="Times,serif" font-size="14.00">Payment</text>
<polyline fill="none" stroke="black" points="564.01,-492.5 699.365,-492.5 "/>
<text text-anchor="start" x="572.01" y="-477.3" font-family="Times,serif" font-size="14.00">id :integer</text>
<text text-anchor="start" x="572.01" y="-463.3" font-family="Times,serif" font-size="14.00">method :string</text>
<text text-anchor="start" x="572.01" y="-449.3" font-family="Times,serif" font-size="14.00">is_complete :boolean</text>
<text text-anchor="start" x="572.01" y="-435.3" font-family="Times,serif" font-size="14.00">amount :float</text>
<text text-anchor="start" x="572.01" y="-421.3" font-family="Times,serif" font-size="14.00">created_at :datetime</text>
<text text-anchor="start" x="572.01" y="-407.3" font-family="Times,serif" font-size="14.00">updated_at :datetime</text>
</g>
<!-- Payment&#45;&gt;Order -->
<g id="edge3" class="edge"><title>Payment&#45;&gt;Order</title>
<path fill="none" stroke="#39e361" d="M657.642,-392.826C660.228,-386.482 662.894,-379.939 665.586,-373.336"/>
<ellipse fill="none" stroke="#39e361" cx="656.108" cy="-396.59" rx="4.00002" ry="4.00002"/>
<polygon fill="#39e361" stroke="#39e361" points="665.767,-372.893 673.708,-365.331 667.654,-368.263 669.541,-363.632 669.541,-363.632 669.541,-363.632 667.654,-368.263 665.374,-361.934 665.767,-372.893 665.767,-372.893"/>
</g>
<!-- Product&#45;&gt;Image -->
<g id="edge7" class="edge"><title>Product&#45;&gt;Image</title>
<path fill="none" stroke="#2870f4" d="M349.624,-193.722C335.848,-179.441 321.445,-164.51 307.643,-150.202"/>
<ellipse fill="none" stroke="#2870f4" cx="352.764" cy="-196.977" rx="4.00002" ry="4.00002"/>
<polygon fill="#2870f4" stroke="#2870f4" points="307.429,-149.981 303.725,-139.659 303.958,-146.382 300.487,-142.784 300.487,-142.784 300.487,-142.784 303.958,-146.382 297.248,-145.908 307.429,-149.981 307.429,-149.981"/>
</g>
<!-- Rate -->
<g id="node7" class="node"><title>Rate</title>
<path fill="none" stroke="black" d="M350.182,-14.5C350.182,-14.5 459.193,-14.5 459.193,-14.5 465.193,-14.5 471.193,-20.5 471.193,-26.5 471.193,-26.5 471.193,-116.5 471.193,-116.5 471.193,-122.5 465.193,-128.5 459.193,-128.5 459.193,-128.5 350.182,-128.5 350.182,-128.5 344.182,-128.5 338.182,-122.5 338.182,-116.5 338.182,-116.5 338.182,-26.5 338.182,-26.5 338.182,-20.5 344.182,-14.5 350.182,-14.5"/>
<text text-anchor="middle" x="404.688" y="-113.3" font-family="Times,serif" font-size="14.00">Rate</text>
<polyline fill="none" stroke="black" points="338.182,-106.5 471.193,-106.5 "/>
<text text-anchor="start" x="346.182" y="-91.3" font-family="Times,serif" font-size="14.00">id :integer</text>
<text text-anchor="start" x="346.182" y="-77.3" font-family="Times,serif" font-size="14.00">product_id :integer</text>
<text text-anchor="start" x="346.182" y="-63.3" font-family="Times,serif" font-size="14.00">client_id :integer</text>
<text text-anchor="start" x="346.182" y="-49.3" font-family="Times,serif" font-size="14.00">rate :integer</text>
<text text-anchor="start" x="346.182" y="-35.3" font-family="Times,serif" font-size="14.00">created_at :datetime</text>
<text text-anchor="start" x="346.182" y="-21.3" font-family="Times,serif" font-size="14.00">updated_at :datetime</text>
</g>
<!-- Product&#45;&gt;Rate -->
<g id="edge6" class="edge"><title>Product&#45;&gt;Rate</title>
<path fill="none" stroke="#d72946" d="M415.504,-185.218C414.01,-169.645 412.471,-153.609 411.04,-138.694"/>
<ellipse fill="none" stroke="#d72946" cx="415.905" cy="-189.399" rx="4" ry="4"/>
<polygon fill="#d72946" stroke="#d72946" points="411.023,-138.521 414.547,-128.137 410.546,-133.544 410.068,-128.567 410.068,-128.567 410.068,-128.567 410.546,-133.544 405.588,-128.997 411.023,-138.521 411.023,-138.521"/>
</g>
<!-- Thought -->
<g id="node10" class="node"><title>Thought</title>
<path fill="none" stroke="black" d="M501.182,-14.5C501.182,-14.5 610.193,-14.5 610.193,-14.5 616.193,-14.5 622.193,-20.5 622.193,-26.5 622.193,-26.5 622.193,-116.5 622.193,-116.5 622.193,-122.5 616.193,-128.5 610.193,-128.5 610.193,-128.5 501.182,-128.5 501.182,-128.5 495.182,-128.5 489.182,-122.5 489.182,-116.5 489.182,-116.5 489.182,-26.5 489.182,-26.5 489.182,-20.5 495.182,-14.5 501.182,-14.5"/>
<text text-anchor="middle" x="555.688" y="-113.3" font-family="Times,serif" font-size="14.00">Thought</text>
<polyline fill="none" stroke="black" points="489.182,-106.5 622.193,-106.5 "/>
<text text-anchor="start" x="497.182" y="-91.3" font-family="Times,serif" font-size="14.00">id :integer</text>
<text text-anchor="start" x="497.182" y="-77.3" font-family="Times,serif" font-size="14.00">product_id :integer</text>
<text text-anchor="start" x="497.182" y="-63.3" font-family="Times,serif" font-size="14.00">client_id :integer</text>
<text text-anchor="start" x="497.182" y="-49.3" font-family="Times,serif" font-size="14.00">body :text</text>
<text text-anchor="start" x="497.182" y="-35.3" font-family="Times,serif" font-size="14.00">created_at :datetime</text>
<text text-anchor="start" x="497.182" y="-21.3" font-family="Times,serif" font-size="14.00">updated_at :datetime</text>
</g>
<!-- Product&#45;&gt;Thought -->
<g id="edge5" class="edge"><title>Product&#45;&gt;Thought</title>
<path fill="none" stroke="#6f0941" d="M479.687,-186.5C490.691,-169.995 502.074,-152.921 512.575,-137.169"/>
<ellipse fill="none" stroke="#6f0941" cx="477.319" cy="-190.053" rx="4.00002" ry="4.00002"/>
<polygon fill="#6f0941" stroke="#6f0941" points="512.763,-136.887 522.054,-131.063 515.536,-132.727 518.31,-128.567 518.31,-128.567 518.31,-128.567 515.536,-132.727 514.566,-126.071 512.763,-136.887 512.763,-136.887"/>
</g>
<!-- Product&#45;&gt;Unit -->
<g id="edge4" class="edge"><title>Product&#45;&gt;Unit</title>
<path fill="none" stroke="#3ec4d6" d="M498.965,-229.362C539.592,-205.941 589.843,-174.956 631.688,-143 631.772,-142.936 631.856,-142.871 631.941,-142.807"/>
<ellipse fill="none" stroke="#3ec4d6" cx="495.484" cy="-231.359" rx="4.00002" ry="4.00002"/>
<polygon fill="#3ec4d6" stroke="#3ec4d6" points="631.958,-142.793 642.594,-140.125 635.881,-139.694 639.804,-136.594 639.804,-136.594 639.804,-136.594 635.881,-139.694 637.014,-133.063 631.958,-142.793 631.958,-142.793"/>
</g>
<!-- Shipment -->
<g id="node8" class="node"><title>Shipment</title>
<path fill="none" stroke="black" d="M729.01,-400.5C729.01,-400.5 840.365,-400.5 840.365,-400.5 846.365,-400.5 852.365,-406.5 852.365,-412.5 852.365,-412.5 852.365,-502.5 852.365,-502.5 852.365,-508.5 846.365,-514.5 840.365,-514.5 840.365,-514.5 729.01,-514.5 729.01,-514.5 723.01,-514.5 717.01,-508.5 717.01,-502.5 717.01,-502.5 717.01,-412.5 717.01,-412.5 717.01,-406.5 723.01,-400.5 729.01,-400.5"/>
<text text-anchor="middle" x="784.688" y="-499.3" font-family="Times,serif" font-size="14.00">Shipment</text>
<polyline fill="none" stroke="black" points="717.01,-492.5 852.365,-492.5 "/>
<text text-anchor="start" x="725.01" y="-477.3" font-family="Times,serif" font-size="14.00">id :integer</text>
<text text-anchor="start" x="725.01" y="-463.3" font-family="Times,serif" font-size="14.00">method :string</text>
<text text-anchor="start" x="725.01" y="-449.3" font-family="Times,serif" font-size="14.00">price :float</text>
<text text-anchor="start" x="725.01" y="-435.3" font-family="Times,serif" font-size="14.00">is_complete :boolean</text>
<text text-anchor="start" x="725.01" y="-421.3" font-family="Times,serif" font-size="14.00">created_at :datetime</text>
<text text-anchor="start" x="725.01" y="-407.3" font-family="Times,serif" font-size="14.00">updated_at :datetime</text>
</g>
<!-- Shipment&#45;&gt;Order -->
<g id="edge8" class="edge"><title>Shipment&#45;&gt;Order</title>
<path fill="none" stroke="#b03863" d="M757.695,-392.826C754.944,-386.335 752.104,-379.635 749.238,-372.875"/>
<ellipse fill="none" stroke="#b03863" cx="759.3" cy="-396.611" rx="4.00002" ry="4.00002"/>
<polygon fill="#b03863" stroke="#b03863" points="749.223,-372.839 749.463,-361.876 747.271,-368.236 745.32,-363.632 745.32,-363.632 745.32,-363.632 747.271,-368.236 741.177,-365.389 749.223,-372.839 749.223,-372.839"/>
</g>
<!-- Status -->
<g id="node9" class="node"><title>Status</title>
<path fill="none" stroke="black" d="M882.182,-414.5C882.182,-414.5 991.193,-414.5 991.193,-414.5 997.193,-414.5 1003.19,-420.5 1003.19,-426.5 1003.19,-426.5 1003.19,-488.5 1003.19,-488.5 1003.19,-494.5 997.193,-500.5 991.193,-500.5 991.193,-500.5 882.182,-500.5 882.182,-500.5 876.182,-500.5 870.182,-494.5 870.182,-488.5 870.182,-488.5 870.182,-426.5 870.182,-426.5 870.182,-420.5 876.182,-414.5 882.182,-414.5"/>
<text text-anchor="middle" x="936.688" y="-485.3" font-family="Times,serif" font-size="14.00">Status</text>
<polyline fill="none" stroke="black" points="870.182,-478.5 1003.19,-478.5 "/>
<text text-anchor="start" x="878.182" y="-463.3" font-family="Times,serif" font-size="14.00">id :integer</text>
<text text-anchor="start" x="878.182" y="-449.3" font-family="Times,serif" font-size="14.00">name :string</text>
<text text-anchor="start" x="878.182" y="-435.3" font-family="Times,serif" font-size="14.00">created_at :datetime</text>
<text text-anchor="start" x="878.182" y="-421.3" font-family="Times,serif" font-size="14.00">updated_at :datetime</text>
</g>
<!-- Vendor -->
<g id="node12" class="node"><title>Vendor</title>
<path fill="none" stroke="black" d="M388.182,-414.5C388.182,-414.5 497.193,-414.5 497.193,-414.5 503.193,-414.5 509.193,-420.5 509.193,-426.5 509.193,-426.5 509.193,-488.5 509.193,-488.5 509.193,-494.5 503.193,-500.5 497.193,-500.5 497.193,-500.5 388.182,-500.5 388.182,-500.5 382.182,-500.5 376.182,-494.5 376.182,-488.5 376.182,-488.5 376.182,-426.5 376.182,-426.5 376.182,-420.5 382.182,-414.5 388.182,-414.5"/>
<text text-anchor="middle" x="442.688" y="-485.3" font-family="Times,serif" font-size="14.00">Vendor</text>
<polyline fill="none" stroke="black" points="376.182,-478.5 509.193,-478.5 "/>
<text text-anchor="start" x="384.182" y="-463.3" font-family="Times,serif" font-size="14.00">id :integer</text>
<text text-anchor="start" x="384.182" y="-449.3" font-family="Times,serif" font-size="14.00">name :string</text>
<text text-anchor="start" x="384.182" y="-435.3" font-family="Times,serif" font-size="14.00">created_at :datetime</text>
<text text-anchor="start" x="384.182" y="-421.3" font-family="Times,serif" font-size="14.00">updated_at :datetime</text>
</g>
<!-- Vendor&#45;&gt;Product -->
<g id="edge9" class="edge"><title>Vendor&#45;&gt;Product</title>
<path fill="none" stroke="#22bf03" d="M437.468,-405.954C435.993,-391.669 434.344,-375.698 432.714,-359.908"/>
<ellipse fill="none" stroke="#22bf03" cx="437.918" cy="-410.308" rx="4" ry="4"/>
<polygon fill="#22bf03" stroke="#22bf03" points="432.674,-359.525 436.123,-349.116 432.16,-354.551 431.647,-349.578 431.647,-349.578 431.647,-349.578 432.16,-354.551 427.171,-350.04 432.674,-359.525 432.674,-359.525"/>
</g>
</g>
</svg>
