<?xml version="1.0" encoding="UTF-8" standalone="no"?>
<!DOCTYPE svg PUBLIC "-//W3C//DTD SVG 1.1//EN"
 "http://www.w3.org/Graphics/SVG/1.1/DTD/svg11.dtd">
<!-- Generated by graphviz version 2.38.0 (20140413.2041)
 -->
<!-- Title: models_diagram Pages: 1 -->
<svg width="889pt" height="297pt"
 viewBox="0.00 0.00 889.34 297.00" xmlns="http://www.w3.org/2000/svg" xmlns:xlink="http://www.w3.org/1999/xlink">
<g id="graph0" class="graph" transform="scale(1 1) rotate(0) translate(4 293)">
<title>models_diagram</title>
<polygon fill="white" stroke="none" points="-4,4 -4,-293 885.336,-293 885.336,4 -4,4"/>
<!-- _diagram_info -->
<g id="node1" class="node"><title>_diagram_info</title>
<text text-anchor="start" x="8" y="-274.6" font-family="Times,serif" font-size="13.00">Models diagram</text>
<text text-anchor="start" x="8" y="-261.6" font-family="Times,serif" font-size="13.00">Date: Jun 07 2015 &#45; 20:55</text>
<text text-anchor="start" x="8" y="-248.6" font-family="Times,serif" font-size="13.00">Migration version: 20150607184923</text>
<text text-anchor="start" x="8" y="-235.6" font-family="Times,serif" font-size="13.00">Generated by RailRoady 1.3.0</text>
<text text-anchor="start" x="8" y="-222.6" font-family="Times,serif" font-size="13.00">http://railroady.prestonlee.com</text>
</g>
<!-- Category -->
<g id="node2" class="node"><title>Category</title>
<ellipse fill="none" stroke="black" cx="749.688" cy="-252.5" rx="42.5456" ry="18"/>
<text text-anchor="middle" x="749.688" y="-248.3" font-family="Times,serif" font-size="14.00">Category</text>
</g>
<!-- Product -->
<g id="node10" class="node"><title>Product</title>
<ellipse fill="none" stroke="black" cx="769.688" cy="-162" rx="37.7352" ry="18"/>
<text text-anchor="middle" x="769.688" y="-157.8" font-family="Times,serif" font-size="14.00">Product</text>
</g>
<!-- Category&#45;&gt;Product -->
<g id="edge1" class="edge"><title>Category&#45;&gt;Product</title>
<path fill="none" stroke="#4b5381" d="M755.314,-226.603C757.888,-215.215 760.943,-201.696 763.573,-190.057"/>
<ellipse fill="none" stroke="#4b5381" cx="754.426" cy="-230.535" rx="4.00001" ry="4.00001"/>
<polygon fill="#4b5381" stroke="#4b5381" points="763.639,-189.765 770.233,-181.003 764.741,-184.888 765.843,-180.011 765.843,-180.011 765.843,-180.011 764.741,-184.888 761.454,-179.019 763.639,-189.765 763.639,-189.765"/>
</g>
<!-- Client -->
<g id="node3" class="node"><title>Client</title>
<ellipse fill="none" stroke="black" cx="682.688" cy="-162" rx="31.948" ry="18"/>
<text text-anchor="middle" x="682.688" y="-157.8" font-family="Times,serif" font-size="14.00">Client</text>
</g>
<!-- Order -->
<g id="node6" class="node"><title>Order</title>
<ellipse fill="none" stroke="black" cx="502.688" cy="-90" rx="30.9619" ry="18"/>
<text text-anchor="middle" x="502.688" y="-85.8" font-family="Times,serif" font-size="14.00">Order</text>
</g>
<!-- Client&#45;&gt;Order -->
<g id="edge2" class="edge"><title>Client&#45;&gt;Order</title>
<path fill="none" stroke="#4a5b34" d="M650.599,-147.592C647.591,-146.366 644.585,-145.153 641.688,-144 606.269,-129.908 565.486,-114.448 537.298,-103.881"/>
<ellipse fill="none" stroke="#4a5b34" cx="654.318" cy="-149.118" rx="4.00002" ry="4.00002"/>
<polygon fill="#4a5b34" stroke="#4a5b34" points="537.249,-103.863 529.46,-96.1434 532.566,-102.11 527.883,-100.358 527.883,-100.358 527.883,-100.358 532.566,-102.11 526.306,-104.573 537.249,-103.863 537.249,-103.863"/>
</g>
<!-- Rate -->
<g id="node11" class="node"><title>Rate</title>
<ellipse fill="none" stroke="black" cx="692.688" cy="-90" rx="27" ry="18"/>
<text text-anchor="middle" x="692.688" y="-85.8" font-family="Times,serif" font-size="14.00">Rate</text>
</g>
<!-- Client&#45;&gt;Rate -->
<g id="edge4" class="edge"><title>Client&#45;&gt;Rate</title>
<path fill="none" stroke="#92cedc" d="M686.311,-135.64C687.128,-129.92 687.998,-123.828 688.825,-118.042"/>
<ellipse fill="none" stroke="#92cedc" cx="685.725" cy="-139.737" rx="4.00001" ry="4.00001"/>
<polygon fill="#92cedc" stroke="#92cedc" points="688.83,-118.004 694.699,-108.741 689.537,-113.054 690.244,-108.104 690.244,-108.104 690.244,-108.104 689.537,-113.054 685.789,-107.468 688.83,-118.004 688.83,-118.004"/>
</g>
<!-- Thought -->
<g id="node15" class="node"><title>Thought</title>
<ellipse fill="none" stroke="black" cx="607.688" cy="-90" rx="40.149" ry="18"/>
<text text-anchor="middle" x="607.688" y="-85.8" font-family="Times,serif" font-size="14.00">Thought</text>
</g>
<!-- Client&#45;&gt;Thought -->
<g id="edge3" class="edge"><title>Client&#45;&gt;Thought</title>
<path fill="none" stroke="#f727a5" d="M660.619,-140.403C651.556,-131.944 641.037,-122.126 631.775,-113.481"/>
<ellipse fill="none" stroke="#f727a5" cx="663.858" cy="-143.426" rx="4.00002" ry="4.00002"/>
<polygon fill="#f727a5" stroke="#f727a5" points="631.661,-113.375 627.421,-103.262 628.005,-109.963 624.35,-106.552 624.35,-106.552 624.35,-106.552 628.005,-109.963 621.28,-109.841 631.661,-113.375 631.661,-113.375"/>
</g>
<!-- Employee -->
<g id="node4" class="node"><title>Employee</title>
<ellipse fill="none" stroke="black" cx="486.688" cy="-162" rx="45.92" ry="18"/>
<text text-anchor="middle" x="486.688" y="-157.8" font-family="Times,serif" font-size="14.00">Employee</text>
</g>
<!-- Employee&#45;&gt;Order -->
<g id="edge5" class="edge"><title>Employee&#45;&gt;Order</title>
<path fill="none" stroke="#bd4c89" d="M492.405,-135.987C493.716,-130.249 495.117,-124.121 496.449,-118.293"/>
<ellipse fill="none" stroke="#bd4c89" cx="491.452" cy="-140.156" rx="4.00001" ry="4.00001"/>
<polygon fill="#bd4c89" stroke="#bd4c89" points="496.511,-118.024 503.126,-109.278 497.625,-113.15 498.739,-108.275 498.739,-108.275 498.739,-108.275 497.625,-113.15 494.352,-107.273 496.511,-118.024 496.511,-118.024"/>
</g>
<!-- Image -->
<g id="node5" class="node"><title>Image</title>
<ellipse fill="none" stroke="black" cx="769.688" cy="-90" rx="32.4063" ry="18"/>
<text text-anchor="middle" x="769.688" y="-85.8" font-family="Times,serif" font-size="14.00">Image</text>
</g>
<!-- Unit -->
<g id="node16" class="node"><title>Unit</title>
<ellipse fill="none" stroke="black" cx="673.688" cy="-18" rx="27" ry="18"/>
<text text-anchor="middle" x="673.688" y="-13.8" font-family="Times,serif" font-size="14.00">Unit</text>
</g>
<!-- Order&#45;&gt;Unit -->
<g id="edge6" class="edge"><title>Order&#45;&gt;Unit</title>
<path fill="none" stroke="#89e9f4" d="M534.97,-75.7849C565.592,-63.2496 611.333,-44.5252 641.818,-32.0459"/>
<ellipse fill="none" stroke="#89e9f4" cx="530.89" cy="-77.4553" rx="4.00001" ry="4.00001"/>
<polygon fill="#89e9f4" stroke="#89e9f4" points="641.887,-32.018 652.846,-32.394 646.514,-30.1237 651.142,-28.2295 651.142,-28.2295 651.142,-28.2295 646.514,-30.1237 649.437,-24.0649 641.887,-32.018 641.887,-32.018"/>
</g>
<!-- Payment -->
<g id="node7" class="node"><title>Payment</title>
<ellipse fill="none" stroke="black" cx="591.688" cy="-162" rx="41.1093" ry="18"/>
<text text-anchor="middle" x="591.688" y="-157.8" font-family="Times,serif" font-size="14.00">Payment</text>
</g>
<!-- Payment&#45;&gt;Order -->
<g id="edge7" class="edge"><title>Payment&#45;&gt;Order</title>
<path fill="none" stroke="#d619fb" d="M565.934,-140.745C554.196,-131.512 540.328,-120.605 528.574,-111.36"/>
<ellipse fill="none" stroke="#d619fb" cx="569.232" cy="-143.338" rx="4.00002" ry="4.00002"/>
<polygon fill="#d619fb" stroke="#d619fb" points="528.309,-111.152 523.231,-101.433 524.379,-108.061 520.449,-104.97 520.449,-104.97 520.449,-104.97 524.379,-108.061 517.667,-108.507 528.309,-111.152 528.309,-111.152"/>
</g>
<!-- PaymentMethod -->
<g id="node8" class="node"><title>PaymentMethod</title>
<ellipse fill="none" stroke="black" cx="601.688" cy="-252.5" rx="68.6305" ry="18"/>
<text text-anchor="middle" x="601.688" y="-248.3" font-family="Times,serif" font-size="14.00">PaymentMethod</text>
</g>
<!-- PaymentMethod&#45;&gt;Payment -->
<g id="edge8" class="edge"><title>PaymentMethod&#45;&gt;Payment</title>
<path fill="none" stroke="#3d0aa6" d="M598.828,-226.189C597.547,-214.855 596.036,-201.479 594.734,-189.958"/>
<ellipse fill="none" stroke="#3d0aa6" cx="599.31" cy="-230.462" rx="4.00001" ry="4.00001"/>
<polygon fill="#3d0aa6" stroke="#3d0aa6" points="594.733,-189.948 598.081,-179.506 594.171,-184.98 593.61,-180.011 593.61,-180.011 593.61,-180.011 594.171,-184.98 589.138,-180.517 594.733,-189.948 594.733,-189.948"/>
</g>
<!-- Position -->
<g id="node9" class="node"><title>Position</title>
<ellipse fill="none" stroke="black" cx="475.688" cy="-252.5" rx="39.206" ry="18"/>
<text text-anchor="middle" x="475.688" y="-248.3" font-family="Times,serif" font-size="14.00">Position</text>
</g>
<!-- Position&#45;&gt;Employee -->
<g id="edge9" class="edge"><title>Position&#45;&gt;Employee</title>
<path fill="none" stroke="#6a196a" d="M478.834,-226.189C480.242,-214.855 481.905,-201.479 483.337,-189.958"/>
<ellipse fill="none" stroke="#6a196a" cx="478.302" cy="-230.467" rx="4.00001" ry="4.00001"/>
<polygon fill="#6a196a" stroke="#6a196a" points="483.34,-189.935 489.039,-180.566 483.957,-184.973 484.573,-180.011 484.573,-180.011 484.573,-180.011 483.957,-184.973 480.108,-179.456 483.34,-189.935 483.34,-189.935"/>
</g>
<!-- Product&#45;&gt;Image -->
<g id="edge13" class="edge"><title>Product&#45;&gt;Image</title>
<path fill="none" stroke="#385d99" d="M769.688,-135.64C769.688,-130.063 769.688,-124.132 769.688,-118.476"/>
<ellipse fill="none" stroke="#385d99" cx="769.688" cy="-139.697" rx="4" ry="4"/>
<polygon fill="#385d99" stroke="#385d99" points="769.688,-118.104 774.188,-108.104 769.688,-113.104 769.688,-108.104 769.688,-108.104 769.688,-108.104 769.688,-113.104 765.188,-108.104 769.688,-118.104 769.688,-118.104"/>
</g>
<!-- Product&#45;&gt;Rate -->
<g id="edge12" class="edge"><title>Product&#45;&gt;Rate</title>
<path fill="none" stroke="#a85d6d" d="M746.722,-140.122C736.865,-131.161 725.376,-120.717 715.533,-111.769"/>
<ellipse fill="none" stroke="#a85d6d" cx="750.02" cy="-143.12" rx="4.00002" ry="4.00002"/>
<polygon fill="#a85d6d" stroke="#a85d6d" points="715.454,-111.697 711.082,-101.64 711.754,-108.333 708.054,-104.97 708.054,-104.97 708.054,-104.97 711.754,-108.333 705.027,-108.3 715.454,-111.697 715.454,-111.697"/>
</g>
<!-- Product&#45;&gt;Thought -->
<g id="edge11" class="edge"><title>Product&#45;&gt;Thought</title>
<path fill="none" stroke="#5f4bd4" d="M734.919,-145.977C708.435,-134.533 672.037,-118.805 644.955,-107.103"/>
<ellipse fill="none" stroke="#5f4bd4" cx="738.901" cy="-147.697" rx="4.00002" ry="4.00002"/>
<polygon fill="#5f4bd4" stroke="#5f4bd4" points="644.614,-106.956 637.219,-98.8584 640.024,-104.973 635.434,-102.989 635.434,-102.989 635.434,-102.989 640.024,-104.973 633.649,-107.12 644.614,-106.956 644.614,-106.956"/>
</g>
<!-- Product&#45;&gt;Unit -->
<g id="edge10" class="edge"><title>Product&#45;&gt;Unit</title>
<path fill="none" stroke="#98c4f8" d="M791.49,-139.7C807.944,-120.971 825.377,-93.4327 810.688,-72 788.377,-39.4462 742.977,-26.8827 710.556,-22.037"/>
<ellipse fill="none" stroke="#98c4f8" cx="788.699" cy="-142.745" rx="4.00002" ry="4.00002"/>
<polygon fill="#98c4f8" stroke="#98c4f8" points="710.446,-22.0226 701.118,-16.2577 705.489,-21.371 700.531,-20.7193 700.531,-20.7193 700.531,-20.7193 705.489,-21.371 699.945,-25.181 710.446,-22.0226 710.446,-22.0226"/>
</g>
<!-- Shipment -->
<g id="node12" class="node"><title>Shipment</title>
<ellipse fill="none" stroke="black" cx="296.688" cy="-162" rx="44.0164" ry="18"/>
<text text-anchor="middle" x="296.688" y="-157.8" font-family="Times,serif" font-size="14.00">Shipment</text>
</g>
<!-- Shipment&#45;&gt;Order -->
<g id="edge14" class="edge"><title>Shipment&#45;&gt;Order</title>
<path fill="none" stroke="#b19d26" d="M337.045,-147.286C374.868,-134.434 430.862,-115.407 467.066,-103.104"/>
<ellipse fill="none" stroke="#b19d26" cx="333.116" cy="-148.621" rx="4.00001" ry="4.00001"/>
<polygon fill="#b19d26" stroke="#b19d26" points="467.253,-103.041 478.169,-104.084 471.987,-101.432 476.722,-99.8234 476.722,-99.8234 476.722,-99.8234 471.987,-101.432 475.274,-95.5627 467.253,-103.041 467.253,-103.041"/>
</g>
<!-- ShipmentMethod -->
<g id="node13" class="node"><title>ShipmentMethod</title>
<ellipse fill="none" stroke="black" cx="296.688" cy="-252.5" rx="71.5376" ry="18"/>
<text text-anchor="middle" x="296.688" y="-248.3" font-family="Times,serif" font-size="14.00">ShipmentMethod</text>
</g>
<!-- ShipmentMethod&#45;&gt;Shipment -->
<g id="edge15" class="edge"><title>ShipmentMethod&#45;&gt;Shipment</title>
<path fill="none" stroke="#8b4c20" d="M296.688,-226.189C296.688,-214.971 296.688,-201.752 296.688,-190.311"/>
<ellipse fill="none" stroke="#8b4c20" cx="296.688" cy="-230.436" rx="4" ry="4"/>
<polygon fill="#8b4c20" stroke="#8b4c20" points="296.688,-190.011 301.188,-180.011 296.688,-185.011 296.688,-180.011 296.688,-180.011 296.688,-180.011 296.688,-185.011 292.188,-180.011 296.688,-190.011 296.688,-190.011"/>
</g>
<!-- Status -->
<g id="node14" class="node"><title>Status</title>
<ellipse fill="none" stroke="black" cx="390.688" cy="-162" rx="31.9567" ry="18"/>
<text text-anchor="middle" x="390.688" y="-157.8" font-family="Times,serif" font-size="14.00">Status</text>
</g>
<!-- Status&#45;&gt;Order -->
<g id="edge16" class="edge"><title>Status&#45;&gt;Order</title>
<path fill="none" stroke="#41bdca" d="M418.209,-143.799C435.082,-133.254 456.654,-119.771 473.776,-109.07"/>
<ellipse fill="none" stroke="#41bdca" cx="414.622" cy="-146.041" rx="4.00002" ry="4.00002"/>
<polygon fill="#41bdca" stroke="#41bdca" points="473.795,-109.058 484.66,-107.574 478.035,-106.408 482.275,-103.758 482.275,-103.758 482.275,-103.758 478.035,-106.408 479.89,-99.9417 473.795,-109.058 473.795,-109.058"/>
</g>
<!-- Vendor -->
<g id="node17" class="node"><title>Vendor</title>
<ellipse fill="none" stroke="black" cx="845.688" cy="-252.5" rx="35.7974" ry="18"/>
<text text-anchor="middle" x="845.688" y="-248.3" font-family="Times,serif" font-size="14.00">Vendor</text>
</g>
<!-- Vendor&#45;&gt;Product -->
<g id="edge17" class="edge"><title>Vendor&#45;&gt;Product</title>
<path fill="none" stroke="#8a7fce" d="M826.627,-229.304C815.493,-216.339 801.444,-199.979 790.087,-186.754"/>
<ellipse fill="none" stroke="#8a7fce" cx="829.494" cy="-232.643" rx="4.00002" ry="4.00002"/>
<polygon fill="#8a7fce" stroke="#8a7fce" points="789.929,-186.57 786.828,-176.052 786.671,-182.777 783.414,-178.983 783.414,-178.983 783.414,-178.983 786.671,-182.777 780,-181.915 789.929,-186.57 789.929,-186.57"/>
</g>
</g>
</svg>
